%FSLAX34Y34*%
%MOMM*%
%LNSILK_TOP*%
G71*
G01*
%ADD10C, 1.80*%
%ADD11R, 2.40X2.40*%
%ADD12R, 3.80X2.40*%
%ADD13C, 2.20*%
%ADD14R, 2.20X2.40*%
%ADD15R, 4.50X2.40*%
%ADD16R, 5.80X2.80*%
%ADD17R, 2.18X3.59*%
%ADD18C, 1.00*%
%ADD19R, 1.50X3.00*%
%ADD20R, 2.00X2.20*%
%ADD21C, 1.50*%
%ADD22R, 1.20X2.15*%
%ADD23R, 2.60X2.70*%
%ADD24C, 1.50*%
%ADD25C, 1.20*%
%ADD26C, 6.00*%
%ADD27C, 0.10*%
%ADD28C, 6.00*%
%ADD29R, 4.00X3.50*%
%ADD30R, 1.60X2.20*%
%ADD31R, 1.90X1.90*%
%ADD32C, 1.00*%
%ADD33C, 1.00*%
%ADD34C, 1.00*%
%ADD35C, 1.00*%
%ADD36C, 0.47*%
%ADD37C, 0.70*%
%ADD38C, 0.40*%
%ADD39C, 0.50*%
%ADD40C, 0.46*%
%ADD41C, 1.67*%
%ADD42C, 0.80*%
%ADD43C, 1.00*%
%ADD44R, 1.60X1.60*%
%ADD45R, 3.00X1.60*%
%ADD46C, 1.40*%
%ADD47R, 1.20X1.40*%
%ADD48R, 3.50X1.40*%
%ADD49R, 5.00X2.00*%
%ADD50R, 1.38X2.79*%
%ADD51R, 0.70X2.20*%
%ADD52R, 0.40X1.35*%
%ADD53R, 1.80X1.90*%
%ADD54C, 0.70*%
%ADD55C, 5.00*%
%ADD56C, 5.00*%
%ADD57R, 3.00X2.50*%
%ADD58R, 0.80X1.40*%
%ADD59R, 1.10X1.10*%
%LPD*%
G36*
X0Y1000000D02*
X-300000Y1000000D01*
X-300000Y-400000D01*
X0Y-400000D01*
X0Y1000000D01*
G37*
%LPC*%
G54D10*
X-140036Y940317D02*
X-140035Y865313D01*
G54D10*
X-140141Y-139682D02*
X-140142Y-64678D01*
X-101935Y814513D02*
G54D11*
D03*
X-101935Y786513D02*
G54D11*
D03*
G54D10*
X-101935Y814513D02*
X-101935Y857585D01*
X-109538Y865188D01*
X-139909Y865188D01*
X-140035Y865313D01*
X-136860Y754760D02*
G54D11*
D03*
G36*
X-168860Y766763D02*
X-192860Y766763D01*
X-192860Y742763D01*
X-168860Y742763D01*
X-168860Y766763D01*
G37*
X-180860Y786513D02*
G54D11*
D03*
X-136860Y786513D02*
G54D11*
D03*
X-101935Y754763D02*
G54D12*
D03*
X-101930Y708660D02*
G54D12*
D03*
G54D10*
X-101935Y754763D02*
X-101935Y786513D01*
G54D10*
X-101935Y786513D02*
X-136860Y786513D01*
G54D10*
X-180860Y754763D02*
X-180860Y786513D01*
X-171335Y719838D02*
G54D12*
D03*
X-171335Y673738D02*
G54D12*
D03*
G54D10*
X-180860Y754763D02*
X-180860Y729363D01*
X-171335Y719838D01*
X-240610Y786513D02*
G54D11*
D03*
X-212610Y786513D02*
G54D11*
D03*
X-240610Y754763D02*
G54D11*
D03*
X-212610Y754763D02*
G54D11*
D03*
X-240610Y723013D02*
G54D11*
D03*
X-212610Y723013D02*
G54D11*
D03*
X-240610Y691263D02*
G54D11*
D03*
X-212610Y691263D02*
G54D11*
D03*
X-240610Y659513D02*
G54D11*
D03*
X-212610Y659513D02*
G54D11*
D03*
X-240610Y627763D02*
G54D11*
D03*
X-212610Y627760D02*
G54D11*
D03*
G54D10*
X-212555Y786513D02*
X-212555Y806785D01*
X-204952Y814388D01*
X-144462Y814388D01*
X-136860Y806785D01*
X-136860Y786513D01*
G54D10*
X-240610Y786513D02*
X-240610Y754763D01*
G54D10*
X-212610Y754763D02*
X-212610Y723013D01*
G54D10*
X-240610Y723013D02*
X-240610Y691263D01*
G54D10*
X-212610Y691263D02*
X-212610Y659513D01*
G54D10*
X-240610Y659513D02*
X-240610Y627763D01*
G54D10*
X-171335Y673738D02*
X-171335Y635809D01*
X-171838Y635306D01*
X-240610Y596013D02*
G54D11*
D03*
X-212610Y596010D02*
G54D11*
D03*
G54D10*
X-240610Y627763D02*
X-240610Y596013D01*
G54D10*
X-108338Y447981D02*
X-108338Y486081D01*
X-126838Y394031D02*
G54D11*
D03*
X-98840Y394030D02*
G54D11*
D03*
G54D10*
X-126838Y394031D02*
X-126838Y416781D01*
X-117838Y425781D01*
X-181825Y394031D02*
G54D11*
D03*
X-153830Y394030D02*
G54D11*
D03*
X-181825Y425781D02*
G54D11*
D03*
X-153830Y425780D02*
G54D11*
D03*
G54D10*
X-181825Y394031D02*
X-181825Y425781D01*
X-181825Y476093D01*
X-171838Y486081D01*
X-181825Y308881D02*
G54D11*
D03*
X-181825Y336881D02*
G54D11*
D03*
X-153825Y308881D02*
G54D11*
D03*
X-153825Y336881D02*
G54D11*
D03*
G54D10*
X-153825Y336881D02*
X-181825Y336881D01*
X-181825Y394031D01*
G54D10*
X-181825Y308881D02*
X-153825Y308881D01*
G54D10*
X-240788Y439738D02*
X-240788Y375738D01*
G36*
X-249788Y439738D02*
X-231788Y439738D01*
X-231788Y448738D01*
X-249788Y448738D01*
X-249788Y439738D01*
G37*
X-241575Y308881D02*
G54D11*
D03*
X-213575Y308881D02*
G54D11*
D03*
G54D10*
X-240788Y375738D02*
X-240788Y309668D01*
X-241575Y308881D01*
G54D10*
X-213575Y308881D02*
X-181825Y308881D01*
G54D10*
X-39291Y439738D02*
X-39291Y375738D01*
X-39302Y279920D01*
G36*
X-48291Y439738D02*
X-30291Y439738D01*
X-30291Y448738D01*
X-48291Y448738D01*
X-48291Y439738D01*
G37*
X-63912Y352756D02*
G54D13*
D03*
X-213575Y346981D02*
G54D13*
D03*
G54D10*
X-213575Y308881D02*
X-213575Y346981D01*
G36*
X-235947Y37264D02*
X-209947Y37264D01*
X-209947Y55264D01*
X-235947Y55264D01*
X-235947Y37264D01*
G37*
G54D10*
X-222947Y186264D02*
X-233890Y186264D01*
X-241501Y193878D01*
X-241575Y308881D01*
G36*
X-222947Y195264D02*
X-222947Y177264D01*
X-213947Y177264D01*
X-213947Y195264D01*
X-222947Y195264D01*
G37*
G54D10*
X-222947Y166264D02*
X-245640Y166264D01*
X-268288Y188912D01*
X-268288Y579438D01*
X-251712Y596013D01*
X-240610Y596013D01*
G36*
X-222947Y175264D02*
X-222947Y157264D01*
X-213947Y157264D01*
X-213947Y175264D01*
X-222947Y175264D01*
G37*
X-254697Y46264D02*
G54D11*
D03*
X-254697Y74264D02*
G54D11*
D03*
G54D10*
X-153825Y308881D02*
X-153825Y208124D01*
X-153988Y96838D01*
X-204560Y46264D01*
X-222947Y46264D01*
X-254697Y46264D01*
G54D10*
X-222947Y146264D02*
X-245640Y146264D01*
X-254695Y137222D01*
X-254697Y74264D01*
G36*
X-222947Y155264D02*
X-222947Y137264D01*
X-213947Y137264D01*
X-213947Y155264D01*
X-222947Y155264D01*
G37*
X-39298Y6564D02*
G54D11*
D03*
X-67300Y6560D02*
G54D11*
D03*
X-99041Y293188D02*
G54D11*
D03*
X-71041Y293188D02*
G54D11*
D03*
X-99041Y324938D02*
G54D11*
D03*
X-71041Y324938D02*
G54D11*
D03*
G54D10*
X-99041Y324938D02*
X-99041Y293188D01*
G54D10*
X-71041Y324938D02*
X-40188Y324938D01*
G54D10*
X-57232Y86264D02*
X-98964Y86264D01*
X-109538Y96838D01*
X-109437Y236692D01*
X-71056Y275018D01*
X-71041Y293188D01*
G36*
X-57232Y95264D02*
X-57232Y77264D01*
X-48232Y77264D01*
X-48232Y95264D01*
X-57232Y95264D01*
G37*
G54D10*
X-57232Y106264D02*
X-87214Y106264D01*
X-90488Y109538D01*
X-90488Y228600D01*
X-39302Y279920D01*
G36*
X-57232Y115264D02*
X-57232Y97264D01*
X-48232Y97264D01*
X-48232Y115264D01*
X-57232Y115264D01*
G37*
X-39298Y230188D02*
G54D13*
D03*
X-127412Y254330D02*
G54D13*
D03*
G54D10*
X-126838Y394031D02*
X-126838Y384013D01*
X-95362Y352720D01*
X-63912Y352756D01*
X-39298Y186264D02*
G54D13*
D03*
X-39298Y166264D02*
G54D13*
D03*
X-39298Y146264D02*
G54D13*
D03*
G54D10*
X-39298Y186264D02*
X-57232Y186264D01*
G36*
X-57232Y177264D02*
X-57232Y195264D01*
X-66232Y195264D01*
X-66232Y177264D01*
X-57232Y177264D01*
G37*
G54D10*
X-39298Y166264D02*
X-57232Y166264D01*
G36*
X-57232Y157264D02*
X-57232Y175264D01*
X-66232Y175264D01*
X-66232Y157264D01*
X-57232Y157264D01*
G37*
G54D10*
X-39298Y146264D02*
X-57232Y146264D01*
G36*
X-57232Y137264D02*
X-57232Y155264D01*
X-66232Y155264D01*
X-66232Y137264D01*
X-57232Y137264D01*
G37*
G54D10*
X-39298Y230188D02*
X-49212Y230188D01*
X-74612Y204788D01*
X-74612Y131762D01*
X-69114Y126264D01*
X-57232Y126264D01*
G54D10*
X-39298Y6564D02*
X-39298Y59538D01*
X-46038Y66278D01*
X-57232Y66264D01*
G36*
X-57221Y57264D02*
X-57243Y75264D01*
X-66243Y75254D01*
X-66221Y57254D01*
X-57221Y57264D01*
G37*
X-206297Y-97888D02*
G54D14*
D03*
G36*
X-218296Y-85889D02*
X-240296Y-85888D01*
X-240297Y-109888D01*
X-218297Y-109889D01*
X-218296Y-85889D01*
G37*
X-252300Y-97890D02*
G54D14*
D03*
X-229297Y-35889D02*
G54D15*
D03*
X-229297Y-27951D02*
G54D16*
D03*
X-154506Y-1360D02*
G54D11*
D03*
X-126506Y-1360D02*
G54D11*
D03*
G54D10*
X-154506Y-1360D02*
X-207072Y-1360D01*
X-254697Y46264D01*
X-97931Y-1360D02*
G54D13*
D03*
G54D10*
X-126506Y-1360D02*
X-97931Y-1360D01*
X-97949Y-22650D01*
X-81190Y-39460D01*
X-66181Y-39460D01*
X-222946Y-148688D02*
G54D17*
D03*
X-262850Y-148690D02*
G54D17*
D03*
X-39300Y-119860D02*
G54D11*
D03*
X-39298Y-91860D02*
G54D11*
D03*
X-67872Y-119860D02*
G54D11*
D03*
X-67872Y-91860D02*
G54D11*
D03*
X-67476Y-148832D02*
G54D11*
D03*
X-39480Y-148830D02*
G54D11*
D03*
X-39218Y-61660D02*
G54D13*
D03*
G54D10*
X-75681Y-61660D02*
X-75681Y-84052D01*
X-67872Y-91860D01*
X-39298Y-91860D01*
G54D10*
X-67872Y-119860D02*
X-137314Y-119860D01*
G54D10*
X-67872Y-119860D02*
X-67872Y-148436D01*
X-67476Y-148832D01*
G54D18*
X-56681Y-61660D02*
X-39218Y-61660D01*
G54D10*
X-222946Y-186788D02*
X-206315Y-186788D01*
X-206297Y-97888D01*
X-39300Y-172870D02*
G54D13*
D03*
X-57780Y-277890D02*
G54D19*
D03*
X-70484Y-277890D02*
G54D19*
D03*
X-83184Y-277890D02*
G54D19*
D03*
X-95884Y-277890D02*
G54D19*
D03*
X-108584Y-277890D02*
G54D19*
D03*
X-121284Y-277890D02*
G54D19*
D03*
X-133984Y-277890D02*
G54D19*
D03*
X-146684Y-277890D02*
G54D19*
D03*
X-146684Y-203890D02*
G54D19*
D03*
X-133984Y-203890D02*
G54D19*
D03*
X-121284Y-203890D02*
G54D19*
D03*
X-108584Y-203890D02*
G54D19*
D03*
G36*
X-88383Y-188890D02*
X-103383Y-188890D01*
X-103384Y-218890D01*
X-88384Y-218890D01*
X-88383Y-188890D01*
G37*
X-83184Y-203890D02*
G54D19*
D03*
X-70484Y-203890D02*
G54D19*
D03*
X-57784Y-203890D02*
G54D19*
D03*
X-76788Y-237418D02*
G54D13*
D03*
X-93600Y-246938D02*
G54D13*
D03*
X-186767Y-229976D02*
G54D20*
D03*
X-186767Y-251804D02*
G54D20*
D03*
X-169701Y-229976D02*
G54D20*
D03*
X-169701Y-251804D02*
G54D20*
D03*
G54D21*
X-133984Y-277890D02*
X-133984Y-245429D01*
X-149454Y-229958D01*
X-169701Y-229976D01*
G54D21*
X-186767Y-251804D02*
X-186767Y-267258D01*
X-176154Y-277842D01*
X-146684Y-277890D01*
X-243800Y-237590D02*
G54D11*
D03*
X-215797Y-237588D02*
G54D11*
D03*
G54D21*
X-215797Y-269338D02*
X-185672Y-269338D01*
G54D21*
X-215797Y-237588D02*
X-215797Y-218972D01*
X-204788Y-207962D01*
X-179388Y-207962D01*
G54D21*
X-168378Y-224888D02*
X-168378Y-218972D01*
X-179388Y-207962D01*
G54D10*
X-190103Y-3175D02*
X-190103Y-65088D01*
X-221853Y-65088D01*
X-229296Y-72531D01*
X-229296Y-97888D01*
X-229296Y-142338D01*
X-222946Y-148688D01*
X-137812Y-328612D02*
G54D22*
D03*
X-144312Y-328612D02*
G54D22*
D03*
X-150812Y-328612D02*
G54D22*
D03*
X-157312Y-328612D02*
G54D22*
D03*
X-163810Y-328610D02*
G54D22*
D03*
X-110810Y-355360D02*
G54D23*
D03*
X-190810Y-355360D02*
G54D23*
D03*
X-130810Y-333860D02*
G54D24*
D03*
X-170810Y-333860D02*
G54D24*
D03*
G54D25*
X-108584Y-277890D02*
X-108584Y-295909D01*
X-117475Y-304800D01*
X-144462Y-304800D01*
X-150812Y-311150D01*
X-150812Y-328612D01*
G54D25*
X-57784Y-303846D02*
X-71438Y-317500D01*
X-136525Y-317500D01*
X-137812Y-318788D01*
X-137812Y-328612D01*
X-89631Y-301707D02*
G54D13*
D03*
G54D25*
X-144312Y-328612D02*
X-144312Y-314325D01*
X-141138Y-311150D01*
X-99074Y-311150D01*
X-89631Y-301707D01*
G54D25*
X-121284Y-277890D02*
X-121284Y-294321D01*
X-123825Y-296862D01*
X-164161Y-296862D01*
X-164161Y-296862D02*
G54D13*
D03*
X-243800Y-304260D02*
G54D13*
D03*
X-206297Y-120114D02*
G54D13*
D03*
X-56990Y-303846D02*
G54D13*
D03*
G54D21*
X-70484Y-277890D02*
X-70484Y-243721D01*
X-76788Y-237418D01*
G54D21*
X-83184Y-277890D02*
X-83184Y-257354D01*
X-93600Y-246938D01*
G54D21*
X-188595Y-56753D02*
X-188595Y-165497D01*
X-176292Y-177800D01*
X-63579Y-177800D01*
X-57773Y-183607D01*
X-57784Y-203947D01*
X-57798Y-218106D01*
X-57798Y-219723D01*
X-60325Y-222250D01*
X-101600Y-222250D01*
X-111125Y-231775D01*
X-111125Y-250825D01*
X-95884Y-266066D01*
X-95884Y-277890D01*
X-53975Y-348672D02*
G54D26*
D03*
X-247650Y-348672D02*
G54D26*
D03*
X-53975Y943553D02*
G54D26*
D03*
X-247650Y943553D02*
G54D26*
D03*
X-222946Y-186788D02*
G54D17*
D03*
X-262850Y-186790D02*
G54D17*
D03*
X-243800Y-269340D02*
G54D11*
D03*
X-215797Y-269338D02*
G54D11*
D03*
G36*
X-193000Y328096D02*
X-193000Y317778D01*
X-142597Y317778D01*
X-142597Y328096D01*
X-193000Y328096D01*
G37*
G54D27*
X-193000Y328096D02*
X-193000Y317778D01*
X-142597Y317778D01*
X-142597Y328096D01*
X-193000Y328096D01*
G36*
X-112935Y775513D02*
X-90935Y775513D01*
X-90935Y825513D01*
X-112935Y825513D01*
X-112935Y775513D01*
G37*
G54D27*
X-112935Y775513D02*
X-90935Y775513D01*
X-90935Y825513D01*
X-112935Y825513D01*
X-112935Y775513D01*
G36*
X-201610Y775513D02*
X-201610Y797513D01*
X-251610Y797513D01*
X-251610Y775513D01*
X-201610Y775513D01*
G37*
G54D27*
X-201610Y775513D02*
X-201610Y797513D01*
X-251610Y797513D01*
X-251610Y775513D01*
X-201610Y775513D01*
G36*
X-201610Y743763D02*
X-201610Y765763D01*
X-251610Y765763D01*
X-251610Y743763D01*
X-201610Y743763D01*
G37*
G54D27*
X-201610Y743763D02*
X-201610Y765763D01*
X-251610Y765763D01*
X-251610Y743763D01*
X-201610Y743763D01*
G36*
X-201610Y712013D02*
X-201610Y734013D01*
X-251610Y734013D01*
X-251610Y712013D01*
X-201610Y712013D01*
G37*
G54D27*
X-201610Y712013D02*
X-201610Y734013D01*
X-251610Y734013D01*
X-251610Y712013D01*
X-201610Y712013D01*
G36*
X-201610Y680263D02*
X-201610Y702263D01*
X-251610Y702263D01*
X-251610Y680263D01*
X-201610Y680263D01*
G37*
G54D27*
X-201610Y680263D02*
X-201610Y702263D01*
X-251610Y702263D01*
X-251610Y680263D01*
X-201610Y680263D01*
G36*
X-201610Y648513D02*
X-201610Y670513D01*
X-251610Y670513D01*
X-251610Y648513D01*
X-201610Y648513D01*
G37*
G54D27*
X-201610Y648513D02*
X-201610Y670513D01*
X-251610Y670513D01*
X-251610Y648513D01*
X-201610Y648513D01*
G36*
X-201610Y616763D02*
X-201610Y638763D01*
X-251610Y638763D01*
X-251610Y616763D01*
X-201610Y616763D01*
G37*
G54D27*
X-201610Y616763D02*
X-201610Y638763D01*
X-251610Y638763D01*
X-251610Y616763D01*
X-201610Y616763D01*
G36*
X-201610Y585013D02*
X-201610Y607013D01*
X-251610Y607013D01*
X-251610Y585013D01*
X-201610Y585013D01*
G37*
G54D27*
X-201610Y585013D02*
X-201610Y607013D01*
X-251610Y607013D01*
X-251610Y585013D01*
X-201610Y585013D01*
G36*
X-125724Y775302D02*
X-125724Y797699D01*
X-191996Y797699D01*
X-191996Y775302D01*
X-125724Y775302D01*
G37*
G54D27*
X-125724Y775302D02*
X-125724Y797699D01*
X-191996Y797699D01*
X-191996Y775302D01*
X-125724Y775302D01*
G36*
X-125723Y743578D02*
X-125723Y765975D01*
X-191995Y765975D01*
X-191995Y743578D01*
X-125723Y743578D01*
G37*
G54D27*
X-125723Y743578D02*
X-125723Y765975D01*
X-191995Y765975D01*
X-191995Y743578D01*
X-125723Y743578D01*
G36*
X-83592Y697387D02*
X-83592Y766040D01*
X-120277Y766040D01*
X-120277Y697387D01*
X-83592Y697387D01*
G37*
G54D27*
X-83592Y697387D02*
X-83592Y766040D01*
X-120277Y766040D01*
X-120277Y697387D01*
X-83592Y697387D01*
G36*
X-152992Y662462D02*
X-152992Y731115D01*
X-189677Y731115D01*
X-189677Y662462D01*
X-152992Y662462D01*
G37*
G54D27*
X-152992Y662462D02*
X-152992Y731115D01*
X-189677Y731115D01*
X-189677Y662462D01*
X-152992Y662462D01*
G54D10*
X-98840Y394030D02*
X-76530Y394030D01*
G36*
X-76530Y403030D02*
X-76530Y385030D01*
X-67530Y385030D01*
X-67530Y403030D01*
X-76530Y403030D01*
G37*
G54D10*
X-75290Y439740D02*
X-75290Y375740D01*
G36*
X-84290Y439740D02*
X-66290Y439740D01*
X-66290Y448740D01*
X-84290Y448740D01*
X-84290Y439740D01*
G37*
G36*
X-66290Y375740D02*
X-84290Y375740D01*
X-84290Y366740D01*
X-66290Y366740D01*
X-66290Y375740D01*
G37*
G54D10*
X-204790Y439740D02*
X-204790Y375740D01*
G36*
X-213790Y439740D02*
X-195790Y439740D01*
X-195790Y448740D01*
X-213790Y448740D01*
X-213790Y439740D01*
G37*
G36*
X-195790Y375740D02*
X-213790Y375740D01*
X-213790Y366740D01*
X-195790Y366740D01*
X-195790Y375740D01*
G37*
G36*
X-31291Y433738D02*
X-83291Y433738D01*
X-83291Y381738D01*
X-31291Y381738D01*
X-31291Y433738D01*
G37*
G54D27*
X-31291Y433738D02*
X-83291Y433738D01*
X-83291Y381738D01*
X-31291Y381738D01*
X-31291Y433738D01*
G36*
X-87838Y405031D02*
X-137838Y405031D01*
X-137838Y383031D01*
X-87838Y383031D01*
X-87838Y405031D01*
G37*
G54D27*
X-87838Y405031D02*
X-137838Y405031D01*
X-137838Y383031D01*
X-87838Y383031D01*
X-87838Y405031D01*
G36*
X-92438Y443181D02*
X-124238Y443181D01*
X-124238Y430481D01*
X-92438Y430481D01*
X-92438Y443181D01*
G37*
G54D27*
X-92438Y443181D02*
X-124238Y443181D01*
X-124238Y430481D01*
X-92438Y430481D01*
X-92438Y443181D01*
G36*
X-142825Y436781D02*
X-192825Y436781D01*
X-192825Y414781D01*
X-142825Y414781D01*
X-142825Y436781D01*
G37*
G54D27*
X-142825Y436781D02*
X-192825Y436781D01*
X-192825Y414781D01*
X-142825Y414781D01*
X-142825Y436781D01*
G36*
X-142825Y405031D02*
X-192825Y405031D01*
X-192825Y383031D01*
X-142825Y383031D01*
X-142825Y405031D01*
G37*
G54D27*
X-142825Y405031D02*
X-192825Y405031D01*
X-192825Y383031D01*
X-142825Y383031D01*
X-142825Y405031D01*
G36*
X-196788Y433738D02*
X-248788Y433738D01*
X-248788Y381738D01*
X-196788Y381738D01*
X-196788Y433738D01*
G37*
G54D27*
X-196788Y433738D02*
X-248788Y433738D01*
X-248788Y381738D01*
X-196788Y381738D01*
X-196788Y433738D01*
G36*
X-202575Y319881D02*
X-252575Y319881D01*
X-252575Y297881D01*
X-202575Y297881D01*
X-202575Y319881D01*
G37*
G54D27*
X-202575Y319881D02*
X-252575Y319881D01*
X-252575Y297881D01*
X-202575Y297881D01*
X-202575Y319881D01*
G36*
X-60041Y335938D02*
X-110041Y335938D01*
X-110041Y313938D01*
X-60041Y313938D01*
X-60041Y335938D01*
G37*
G54D27*
X-60041Y335938D02*
X-110041Y335938D01*
X-110041Y313938D01*
X-60041Y313938D01*
X-60041Y335938D01*
G36*
X-60041Y304188D02*
X-110041Y304188D01*
X-110041Y282188D01*
X-60041Y282188D01*
X-60041Y304188D01*
G37*
G54D27*
X-60041Y304188D02*
X-110041Y304188D01*
X-110041Y282188D01*
X-60041Y282188D01*
X-60041Y304188D01*
G36*
X-243697Y85264D02*
X-265697Y85264D01*
X-265697Y35264D01*
X-243697Y35264D01*
X-243697Y85264D01*
G37*
G54D27*
X-243697Y85264D02*
X-265697Y85264D01*
X-265697Y35264D01*
X-243697Y35264D01*
X-243697Y85264D01*
G36*
X-28298Y17564D02*
X-78298Y17564D01*
X-78298Y-4436D01*
X-28298Y-4436D01*
X-28298Y17564D01*
G37*
G54D27*
X-28298Y17564D02*
X-78298Y17564D01*
X-78298Y-4436D01*
X-28298Y-4436D01*
X-28298Y17564D01*
G36*
X-115506Y9640D02*
X-165506Y9640D01*
X-165506Y-12360D01*
X-115506Y-12360D01*
X-115506Y9640D01*
G37*
G54D27*
X-115506Y9640D02*
X-165506Y9640D01*
X-165506Y-12360D01*
X-115506Y-12360D01*
X-115506Y9640D01*
G36*
X-50281Y-44260D02*
X-82081Y-44260D01*
X-82081Y-56960D01*
X-50281Y-56960D01*
X-50281Y-44260D01*
G37*
G54D27*
X-50281Y-44260D02*
X-82081Y-44260D01*
X-82081Y-56960D01*
X-50281Y-56960D01*
X-50281Y-44260D01*
G36*
X-196796Y-50389D02*
X-261797Y-50389D01*
X-261797Y-85388D01*
X-196796Y-85388D01*
X-196796Y-50389D01*
G37*
G54D27*
X-196796Y-50389D02*
X-261797Y-50389D01*
X-261797Y-85388D01*
X-196796Y-85388D01*
X-196796Y-50389D01*
G36*
X-28298Y-80860D02*
X-50298Y-80860D01*
X-50298Y-130861D01*
X-28298Y-130861D01*
X-28298Y-80860D01*
G37*
G54D27*
X-28298Y-80860D02*
X-50298Y-80860D01*
X-50298Y-130861D01*
X-28298Y-130861D01*
X-28298Y-80860D01*
G36*
X-56872Y-80860D02*
X-78873Y-80860D01*
X-78873Y-130860D01*
X-56872Y-130860D01*
X-56872Y-80860D01*
G37*
G54D27*
X-56872Y-80860D02*
X-78873Y-80860D01*
X-78873Y-130860D01*
X-56872Y-130860D01*
X-56872Y-80860D01*
G36*
X-28476Y-137832D02*
X-78476Y-137832D01*
X-78476Y-159832D01*
X-28476Y-159832D01*
X-28476Y-137832D01*
G37*
G54D27*
X-28476Y-137832D02*
X-78476Y-137832D01*
X-78476Y-159832D01*
X-28476Y-159832D01*
X-28476Y-137832D01*
G36*
X-211547Y-133688D02*
X-274247Y-133688D01*
X-274247Y-163688D01*
X-211547Y-163688D01*
X-211547Y-133688D01*
G37*
G54D27*
X-211547Y-133688D02*
X-274247Y-133688D01*
X-274247Y-163688D01*
X-211547Y-163688D01*
X-211547Y-133688D01*
G36*
X-211547Y-171788D02*
X-274247Y-171788D01*
X-274247Y-201788D01*
X-211547Y-201788D01*
X-211547Y-171788D01*
G37*
G54D27*
X-211547Y-171788D02*
X-274247Y-171788D01*
X-274247Y-201788D01*
X-211547Y-201788D01*
X-211547Y-171788D01*
G36*
X-211546Y-163688D02*
X-274246Y-163688D01*
X-274246Y-171788D01*
X-211546Y-171788D01*
X-211546Y-163688D01*
G37*
G54D27*
X-211546Y-163688D02*
X-274246Y-163688D01*
X-274246Y-171788D01*
X-211546Y-171788D01*
X-211546Y-163688D01*
G36*
X-162732Y-221991D02*
X-193720Y-221991D01*
X-193720Y-259791D01*
X-162732Y-259791D01*
X-162732Y-221991D01*
G37*
G54D27*
X-162732Y-221991D02*
X-193720Y-221991D01*
X-193720Y-259791D01*
X-162732Y-259791D01*
X-162732Y-221991D01*
G36*
X-204797Y-226588D02*
X-254797Y-226588D01*
X-254797Y-248588D01*
X-204797Y-248588D01*
X-204797Y-226588D01*
G37*
G54D27*
X-204797Y-226588D02*
X-254797Y-226588D01*
X-254797Y-248588D01*
X-204797Y-248588D01*
X-204797Y-226588D01*
G36*
X-204797Y-258338D02*
X-254797Y-258338D01*
X-254797Y-280338D01*
X-204797Y-280338D01*
X-204797Y-258338D01*
G37*
G54D27*
X-204797Y-258338D02*
X-254797Y-258338D01*
X-254797Y-280338D01*
X-204797Y-280338D01*
X-204797Y-258338D01*
G36*
X-113893Y-326469D02*
X-187893Y-326469D01*
X-187893Y-376419D01*
X-113893Y-376419D01*
X-113893Y-326469D01*
G37*
G54D27*
X-113893Y-326469D02*
X-187893Y-326469D01*
X-187893Y-376419D01*
X-113893Y-376419D01*
X-113893Y-326469D01*
G36*
X-107950Y-290512D02*
X-121284Y-290512D01*
X-121284Y-294321D01*
X-107950Y-294321D01*
X-107950Y-290512D01*
G37*
G54D27*
X-107950Y-290512D02*
X-121284Y-290512D01*
X-121284Y-294321D01*
X-107950Y-294321D01*
X-107950Y-290512D01*
G54D10*
X-262850Y-148690D02*
X-262850Y-186790D01*
G36*
X-188595Y-165497D02*
X-206297Y-165497D01*
X-206297Y-97888D01*
X-188595Y-97888D01*
X-188595Y-165497D01*
G37*
G54D27*
X-188595Y-165497D02*
X-206297Y-165497D01*
X-206297Y-97888D01*
X-188595Y-97888D01*
X-188595Y-165497D01*
G36*
X-196796Y-50389D02*
X-255588Y-50389D01*
X-255588Y-109538D01*
X-196796Y-109538D01*
X-196796Y-50389D01*
G37*
G54D27*
X-196796Y-50389D02*
X-255588Y-50389D01*
X-255588Y-109538D01*
X-196796Y-109538D01*
X-196796Y-50389D01*
G36*
X-200025Y-100012D02*
X-229296Y-100012D01*
X-229296Y-142338D01*
X-200025Y-142338D01*
X-200025Y-100012D01*
G37*
G54D27*
X-200025Y-100012D02*
X-229296Y-100012D01*
X-229296Y-142338D01*
X-200025Y-142338D01*
X-200025Y-100012D01*
G36*
X-70484Y-243721D02*
X-90488Y-243721D01*
X-90488Y-257175D01*
X-70484Y-257175D01*
X-70484Y-243721D01*
G37*
G54D27*
X-70484Y-243721D02*
X-90488Y-243721D01*
X-90488Y-257175D01*
X-70484Y-257175D01*
X-70484Y-243721D01*
G36*
X-196796Y-50389D02*
X-261938Y-50389D01*
X-261938Y-39688D01*
X-196796Y-39688D01*
X-196796Y-50389D01*
G37*
G54D27*
X-196796Y-50389D02*
X-261938Y-50389D01*
X-261938Y-39688D01*
X-196796Y-39688D01*
X-196796Y-50389D01*
G36*
X-201612Y-44450D02*
X-190103Y-44450D01*
X-190103Y-3175D01*
X-201612Y-3175D01*
X-201612Y-44450D01*
G37*
G54D27*
X-201612Y-44450D02*
X-190103Y-44450D01*
X-190103Y-3175D01*
X-201612Y-3175D01*
X-201612Y-44450D01*
G36*
X-234950Y50800D02*
X-211138Y50800D01*
X-211138Y193675D01*
X-234950Y193675D01*
X-234950Y50800D01*
G37*
G54D27*
X-234950Y50800D02*
X-211138Y50800D01*
X-211138Y193675D01*
X-234950Y193675D01*
X-234950Y50800D01*
G36*
X-82550Y40084D02*
X-198438Y40084D01*
X-198438Y16272D01*
X-82550Y16272D01*
X-82550Y40084D01*
G37*
G54D27*
X-82550Y40084D02*
X-198438Y40084D01*
X-198438Y16272D01*
X-82550Y16272D01*
X-82550Y40084D01*
G36*
X-39298Y186264D02*
X-75803Y186264D01*
X-75803Y146050D01*
X-39298Y146050D01*
X-39298Y186264D01*
G37*
G54D27*
X-39298Y186264D02*
X-75803Y186264D01*
X-75803Y146050D01*
X-39298Y146050D01*
X-39298Y186264D01*
G36*
X-45641Y78978D02*
X-95250Y78978D01*
X-95250Y171450D01*
X-45641Y171450D01*
X-45641Y78978D01*
G37*
G54D27*
X-45641Y78978D02*
X-95250Y78978D01*
X-95250Y171450D01*
X-45641Y171450D01*
X-45641Y78978D01*
G36*
X-88900Y123031D02*
X-109538Y123031D01*
X-109538Y96838D01*
X-88900Y96838D01*
X-88900Y123031D01*
G37*
G54D27*
X-88900Y123031D02*
X-109538Y123031D01*
X-109538Y96838D01*
X-88900Y96838D01*
X-88900Y123031D01*
G36*
X-92075Y101997D02*
X-98964Y101997D01*
X-98964Y86264D01*
X-92075Y86264D01*
X-92075Y101997D01*
G37*
G54D27*
X-92075Y101997D02*
X-98964Y101997D01*
X-98964Y86264D01*
X-92075Y86264D01*
X-92075Y101997D01*
G36*
X-109538Y96838D02*
X-90488Y96838D01*
X-90488Y228600D01*
X-109538Y228600D01*
X-109538Y96838D01*
G37*
G54D27*
X-109538Y96838D02*
X-90488Y96838D01*
X-90488Y228600D01*
X-109538Y228600D01*
X-109538Y96838D01*
G36*
X-68659Y40481D02*
X-47625Y40481D01*
X-47625Y66278D01*
X-68659Y66278D01*
X-68659Y40481D01*
G37*
G54D27*
X-68659Y40481D02*
X-47625Y40481D01*
X-47625Y66278D01*
X-68659Y66278D01*
X-68659Y40481D01*
G36*
X-39302Y279920D02*
X-66154Y279920D01*
X-71056Y275018D01*
X-71056Y293172D01*
X-71041Y293188D01*
X-99041Y293188D01*
X-99041Y276352D01*
X-108362Y267030D01*
X-108362Y237766D01*
X-109437Y236692D01*
X-109437Y221356D01*
X-106759Y218678D01*
X-94059Y218678D01*
X-92075Y220662D01*
X-92075Y227012D01*
X-90488Y228600D01*
X-90488Y228735D01*
X-39302Y279920D01*
G37*
G54D27*
X-39302Y279920D02*
X-66154Y279920D01*
X-71056Y275018D01*
X-71056Y293172D01*
X-71041Y293188D01*
X-99041Y293188D01*
X-99041Y276352D01*
X-108362Y267030D01*
X-108362Y237766D01*
X-109437Y236692D01*
X-109437Y221356D01*
X-106759Y218678D01*
X-94059Y218678D01*
X-92075Y220662D01*
X-92075Y227012D01*
X-90488Y228600D01*
X-90488Y228735D01*
X-39302Y279920D01*
X-140036Y940317D02*
G54D28*
D03*
X-140141Y-139682D02*
G54D28*
D03*
X-140035Y865313D02*
G54D28*
D03*
X-140142Y-64678D02*
G54D28*
D03*
X-171838Y635306D02*
G54D29*
D03*
X-108340Y635310D02*
G54D29*
D03*
X-171838Y486081D02*
G54D29*
D03*
X-108338Y486081D02*
G54D29*
D03*
X-204790Y439740D02*
G54D30*
D03*
X-204790Y375740D02*
G54D30*
D03*
X-240788Y375738D02*
G54D30*
D03*
X-240788Y439738D02*
G54D30*
D03*
X-39291Y439738D02*
G54D30*
D03*
X-39291Y375738D02*
G54D30*
D03*
X-75281Y375738D02*
G54D30*
D03*
X-75281Y439738D02*
G54D30*
D03*
G36*
X-235589Y57264D02*
X-209589Y57264D01*
X-209589Y75264D01*
X-235589Y75264D01*
X-235589Y57264D01*
G37*
G36*
X-235589Y77264D02*
X-209589Y77264D01*
X-209589Y95264D01*
X-235589Y95264D01*
X-235589Y77264D01*
G37*
G36*
X-235589Y97264D02*
X-209589Y97264D01*
X-209589Y115264D01*
X-235589Y115264D01*
X-235589Y97264D01*
G37*
G36*
X-235589Y117264D02*
X-209589Y117264D01*
X-209589Y135264D01*
X-235589Y135264D01*
X-235589Y117264D01*
G37*
G36*
X-235589Y137264D02*
X-209589Y137264D01*
X-209589Y155264D01*
X-235589Y155264D01*
X-235589Y137264D01*
G37*
G36*
X-235589Y157264D02*
X-209589Y157264D01*
X-209589Y175264D01*
X-235589Y175264D01*
X-235589Y157264D01*
G37*
G36*
X-235589Y177264D02*
X-209589Y177264D01*
X-209589Y195264D01*
X-235589Y195264D01*
X-235589Y177264D01*
G37*
G36*
X-69873Y37260D02*
X-43873Y37260D01*
X-43873Y55260D01*
X-69873Y55260D01*
X-69873Y37260D01*
G37*
G36*
X-69874Y57264D02*
X-43874Y57264D01*
X-43874Y75264D01*
X-69874Y75264D01*
X-69874Y57264D01*
G37*
G36*
X-69874Y77264D02*
X-43874Y77264D01*
X-43874Y95264D01*
X-69874Y95264D01*
X-69874Y77264D01*
G37*
G36*
X-69874Y97264D02*
X-43874Y97264D01*
X-43874Y115264D01*
X-69874Y115264D01*
X-69874Y97264D01*
G37*
G36*
X-69874Y117264D02*
X-43874Y117264D01*
X-43874Y135264D01*
X-69874Y135264D01*
X-69874Y117264D01*
G37*
G36*
X-69874Y137264D02*
X-43874Y137264D01*
X-43874Y155264D01*
X-69874Y155264D01*
X-69874Y137264D01*
G37*
G36*
X-69874Y157264D02*
X-43874Y157264D01*
X-43874Y175264D01*
X-69874Y175264D01*
X-69874Y157264D01*
G37*
G36*
X-69874Y177264D02*
X-43874Y177264D01*
X-43874Y195264D01*
X-69874Y195264D01*
X-69874Y177264D01*
G37*
G36*
X-199090Y41130D02*
X-199090Y15130D01*
X-181090Y15130D01*
X-181090Y41130D01*
X-199090Y41130D01*
G37*
G36*
X-179090Y41130D02*
X-179090Y15130D01*
X-161090Y15130D01*
X-161090Y41130D01*
X-179090Y41130D01*
G37*
G36*
X-159090Y41130D02*
X-159090Y15130D01*
X-141090Y15130D01*
X-141090Y41130D01*
X-159090Y41130D01*
G37*
G36*
X-139090Y41130D02*
X-139090Y15130D01*
X-121090Y15130D01*
X-121090Y41130D01*
X-139090Y41130D01*
G37*
G36*
X-119090Y41130D02*
X-119090Y15130D01*
X-101090Y15130D01*
X-101090Y41130D01*
X-119090Y41130D01*
G37*
G36*
X-99090Y41130D02*
X-99090Y15130D01*
X-81090Y15130D01*
X-81090Y41130D01*
X-99090Y41130D01*
G37*
G36*
X-235589Y37264D02*
X-209589Y37264D01*
X-209589Y55264D01*
X-235589Y55264D01*
X-235589Y37264D01*
G37*
G54D10*
X-99041Y293188D02*
X-99041Y282702D01*
X-127412Y254330D01*
X-117838Y425781D02*
G54D31*
D03*
X-98840Y425780D02*
G54D31*
D03*
X-108338Y447981D02*
G54D31*
D03*
X-75681Y-61660D02*
G54D31*
D03*
X-56680Y-61660D02*
G54D31*
D03*
X-66181Y-39460D02*
G54D31*
D03*
X-256390Y17860D02*
G54D11*
D03*
X-228392Y17858D02*
G54D11*
D03*
%LPD*%
G54D32*
G36*
X-141846Y754760D02*
X-141846Y742260D01*
X-131874Y742260D01*
X-131874Y754760D01*
X-141846Y754760D01*
G37*
G54D32*
G36*
X-106916Y708660D02*
X-106916Y696160D01*
X-96944Y696160D01*
X-96944Y708660D01*
X-106916Y708660D01*
G37*
G54D32*
G36*
X-217596Y627760D02*
X-217596Y615260D01*
X-207624Y615260D01*
X-207624Y627760D01*
X-217596Y627760D01*
G37*
G54D33*
G36*
X-217624Y596010D02*
X-217624Y583510D01*
X-207596Y583510D01*
X-207596Y596010D01*
X-217624Y596010D01*
G37*
G36*
X-207596Y596010D02*
X-207596Y608510D01*
X-217624Y608510D01*
X-217624Y596010D01*
X-207596Y596010D01*
G37*
G54D32*
G36*
X-98840Y389044D02*
X-86340Y389044D01*
X-86340Y399016D01*
X-98840Y399016D01*
X-98840Y389044D01*
G37*
G36*
X-93854Y394030D02*
X-93854Y406530D01*
X-103826Y406530D01*
X-103826Y394030D01*
X-93854Y394030D01*
G37*
G54D32*
G36*
X-158816Y394030D02*
X-158816Y381530D01*
X-148844Y381530D01*
X-148844Y394030D01*
X-158816Y394030D01*
G37*
G36*
X-148844Y394030D02*
X-148844Y406530D01*
X-158816Y406530D01*
X-158816Y394030D01*
X-148844Y394030D01*
G37*
G54D33*
G36*
X-158844Y425780D02*
X-158844Y413280D01*
X-148816Y413280D01*
X-148816Y425780D01*
X-158844Y425780D01*
G37*
G36*
X-148816Y425780D02*
X-148816Y438280D01*
X-158844Y438280D01*
X-158844Y425780D01*
X-148816Y425780D01*
G37*
G54D32*
G36*
X-62314Y6560D02*
X-62314Y19060D01*
X-72286Y19060D01*
X-72286Y6560D01*
X-62314Y6560D01*
G37*
G36*
X-72286Y6560D02*
X-72286Y-5940D01*
X-62314Y-5940D01*
X-62314Y6560D01*
X-72286Y6560D01*
G37*
G54D34*
G36*
X-257320Y-97890D02*
X-257320Y-110390D01*
X-247280Y-110390D01*
X-247280Y-97890D01*
X-257320Y-97890D01*
G37*
G54D35*
G36*
X-257836Y-148690D02*
X-257836Y-130240D01*
X-267864Y-130240D01*
X-267864Y-148690D01*
X-257836Y-148690D01*
G37*
G36*
X-262850Y-143676D02*
X-274250Y-143676D01*
X-274250Y-153704D01*
X-262850Y-153704D01*
X-262850Y-143676D01*
G37*
G36*
X-267864Y-148690D02*
X-267864Y-167140D01*
X-257836Y-167140D01*
X-257836Y-148690D01*
X-267864Y-148690D01*
G37*
G54D32*
G36*
X-39300Y-124846D02*
X-26800Y-124846D01*
X-26800Y-114874D01*
X-39300Y-114874D01*
X-39300Y-124846D01*
G37*
G36*
X-44286Y-119860D02*
X-44286Y-132360D01*
X-34314Y-132360D01*
X-34314Y-119860D01*
X-44286Y-119860D01*
G37*
G54D33*
G36*
X-44494Y-148830D02*
X-44494Y-161330D01*
X-34466Y-161330D01*
X-34466Y-148830D01*
X-44494Y-148830D01*
G37*
G36*
X-39480Y-153844D02*
X-26980Y-153844D01*
X-26980Y-143816D01*
X-39480Y-143816D01*
X-39480Y-153844D01*
G37*
G36*
X-34466Y-148830D02*
X-34466Y-136330D01*
X-44494Y-136330D01*
X-44494Y-148830D01*
X-34466Y-148830D01*
G37*
G54D36*
G36*
X-39218Y-59327D02*
X-50718Y-59327D01*
X-50718Y-63994D01*
X-39218Y-63994D01*
X-39218Y-59327D01*
G37*
G36*
X-41552Y-61660D02*
X-41552Y-73160D01*
X-36885Y-73160D01*
X-36885Y-61660D01*
X-41552Y-61660D01*
G37*
G36*
X-39218Y-63994D02*
X-27718Y-63994D01*
X-27718Y-59327D01*
X-39218Y-59327D01*
X-39218Y-63994D01*
G37*
G36*
X-36885Y-61660D02*
X-36885Y-50160D01*
X-41552Y-50160D01*
X-41552Y-61660D01*
X-36885Y-61660D01*
G37*
G54D36*
G36*
X-39300Y-170537D02*
X-50800Y-170537D01*
X-50800Y-175203D01*
X-39300Y-175203D01*
X-39300Y-170537D01*
G37*
G36*
X-41633Y-172870D02*
X-41633Y-184370D01*
X-36967Y-184370D01*
X-36967Y-172870D01*
X-41633Y-172870D01*
G37*
G36*
X-39300Y-175203D02*
X-27800Y-175203D01*
X-27800Y-170537D01*
X-39300Y-170537D01*
X-39300Y-175203D01*
G37*
G36*
X-36967Y-172870D02*
X-36967Y-161370D01*
X-41633Y-161370D01*
X-41633Y-172870D01*
X-36967Y-172870D01*
G37*
G54D37*
G36*
X-57780Y-281390D02*
X-49780Y-281390D01*
X-49780Y-274390D01*
X-57780Y-274390D01*
X-57780Y-281390D01*
G37*
G54D32*
G36*
X-243800Y-232604D02*
X-256300Y-232604D01*
X-256300Y-242576D01*
X-243800Y-242576D01*
X-243800Y-232604D01*
G37*
G54D38*
G36*
X-161810Y-328610D02*
X-161810Y-317360D01*
X-165810Y-317360D01*
X-165810Y-328610D01*
X-161810Y-328610D01*
G37*
G54D39*
G36*
X-108320Y-355360D02*
X-108320Y-341360D01*
X-113300Y-341360D01*
X-113300Y-355360D01*
X-108320Y-355360D01*
G37*
G36*
X-113300Y-355360D02*
X-113300Y-369360D01*
X-108320Y-369360D01*
X-108320Y-355360D01*
X-113300Y-355360D01*
G37*
G36*
X-110810Y-357850D02*
X-97310Y-357850D01*
X-97310Y-352870D01*
X-110810Y-352870D01*
X-110810Y-357850D01*
G37*
G54D39*
G36*
X-188320Y-355360D02*
X-188320Y-341360D01*
X-193300Y-341360D01*
X-193300Y-355360D01*
X-188320Y-355360D01*
G37*
G36*
X-190810Y-352870D02*
X-204310Y-352870D01*
X-204310Y-357850D01*
X-190810Y-357850D01*
X-190810Y-352870D01*
G37*
G36*
X-193300Y-355360D02*
X-193300Y-369360D01*
X-188320Y-369360D01*
X-188320Y-355360D01*
X-193300Y-355360D01*
G37*
G54D40*
G36*
X-243800Y-301950D02*
X-255300Y-301950D01*
X-255300Y-306570D01*
X-243800Y-306570D01*
X-243800Y-301950D01*
G37*
G36*
X-246110Y-304260D02*
X-246110Y-315760D01*
X-241490Y-315760D01*
X-241490Y-304260D01*
X-246110Y-304260D01*
G37*
G36*
X-243800Y-306570D02*
X-232300Y-306570D01*
X-232300Y-301950D01*
X-243800Y-301950D01*
X-243800Y-306570D01*
G37*
G36*
X-241490Y-304260D02*
X-241490Y-292760D01*
X-246110Y-292760D01*
X-246110Y-304260D01*
X-241490Y-304260D01*
G37*
G54D41*
G36*
X-45642Y-348672D02*
X-45642Y-318172D01*
X-62308Y-318172D01*
X-62308Y-348672D01*
X-45642Y-348672D01*
G37*
G36*
X-53975Y-340339D02*
X-84475Y-340339D01*
X-84475Y-357005D01*
X-53975Y-357005D01*
X-53975Y-340339D01*
G37*
G36*
X-62308Y-348672D02*
X-62308Y-379172D01*
X-45642Y-379172D01*
X-45642Y-348672D01*
X-62308Y-348672D01*
G37*
G36*
X-53975Y-357005D02*
X-23475Y-357005D01*
X-23475Y-340339D01*
X-53975Y-340339D01*
X-53975Y-357005D01*
G37*
G54D41*
G36*
X-239317Y-348672D02*
X-239317Y-318172D01*
X-255983Y-318172D01*
X-255983Y-348672D01*
X-239317Y-348672D01*
G37*
G36*
X-247650Y-340339D02*
X-278150Y-340339D01*
X-278150Y-357005D01*
X-247650Y-357005D01*
X-247650Y-340339D01*
G37*
G36*
X-255983Y-348672D02*
X-255983Y-379172D01*
X-239317Y-379172D01*
X-239317Y-348672D01*
X-255983Y-348672D01*
G37*
G36*
X-247650Y-357005D02*
X-217150Y-357005D01*
X-217150Y-340339D01*
X-247650Y-340339D01*
X-247650Y-357005D01*
G37*
G54D41*
G36*
X-45642Y943553D02*
X-45642Y974053D01*
X-62308Y974053D01*
X-62308Y943553D01*
X-45642Y943553D01*
G37*
G36*
X-53975Y951886D02*
X-84475Y951886D01*
X-84475Y935220D01*
X-53975Y935220D01*
X-53975Y951886D01*
G37*
G36*
X-62308Y943553D02*
X-62308Y913053D01*
X-45642Y913053D01*
X-45642Y943553D01*
X-62308Y943553D01*
G37*
G36*
X-53975Y935220D02*
X-23475Y935220D01*
X-23475Y951886D01*
X-53975Y951886D01*
X-53975Y935220D01*
G37*
G54D41*
G36*
X-239317Y943553D02*
X-239317Y974053D01*
X-255983Y974053D01*
X-255983Y943553D01*
X-239317Y943553D01*
G37*
G36*
X-247650Y951886D02*
X-278150Y951886D01*
X-278150Y935220D01*
X-247650Y935220D01*
X-247650Y951886D01*
G37*
G36*
X-255983Y943553D02*
X-255983Y913053D01*
X-239317Y913053D01*
X-239317Y943553D01*
X-255983Y943553D01*
G37*
G36*
X-247650Y935220D02*
X-217150Y935220D01*
X-217150Y951886D01*
X-247650Y951886D01*
X-247650Y935220D01*
G37*
G54D35*
G36*
X-257836Y-186790D02*
X-257836Y-168340D01*
X-267864Y-168340D01*
X-267864Y-186790D01*
X-257836Y-186790D01*
G37*
G36*
X-262850Y-181776D02*
X-274250Y-181776D01*
X-274250Y-191804D01*
X-262850Y-191804D01*
X-262850Y-181776D01*
G37*
G36*
X-267864Y-186790D02*
X-267864Y-205240D01*
X-257836Y-205240D01*
X-257836Y-186790D01*
X-267864Y-186790D01*
G37*
G54D32*
G36*
X-243800Y-264354D02*
X-256300Y-264354D01*
X-256300Y-274326D01*
X-243800Y-274326D01*
X-243800Y-264354D01*
G37*
G54D18*
G36*
X-103340Y635310D02*
X-103340Y653310D01*
X-113340Y653310D01*
X-113340Y635310D01*
X-103340Y635310D01*
G37*
G54D42*
G36*
X-208790Y439740D02*
X-208790Y428240D01*
X-200790Y428240D01*
X-200790Y439740D01*
X-208790Y439740D01*
G37*
G36*
X-200790Y439740D02*
X-200790Y451240D01*
X-208790Y451240D01*
X-208790Y439740D01*
X-200790Y439740D01*
G37*
G54D42*
G36*
X-208790Y375740D02*
X-208790Y364240D01*
X-200790Y364240D01*
X-200790Y375740D01*
X-208790Y375740D01*
G37*
G36*
X-200790Y375740D02*
X-200790Y387240D01*
X-208790Y387240D01*
X-208790Y375740D01*
X-200790Y375740D01*
G37*
G54D42*
G36*
X-71281Y375738D02*
X-71281Y387238D01*
X-79281Y387238D01*
X-79281Y375738D01*
X-71281Y375738D01*
G37*
G54D42*
G36*
X-79281Y439738D02*
X-79281Y428238D01*
X-71281Y428238D01*
X-71281Y439738D01*
X-79281Y439738D01*
G37*
G36*
X-71281Y439738D02*
X-71281Y451238D01*
X-79281Y451238D01*
X-79281Y439738D01*
X-71281Y439738D01*
G37*
G54D42*
G36*
X-56873Y50260D02*
X-70373Y50260D01*
X-70373Y42260D01*
X-56873Y42260D01*
X-56873Y50260D01*
G37*
G54D43*
G36*
X-103845Y425780D02*
X-103845Y415780D01*
X-93835Y415780D01*
X-93835Y425780D01*
X-103845Y425780D01*
G37*
G54D43*
G36*
X-56680Y-66665D02*
X-46680Y-66665D01*
X-46680Y-56655D01*
X-56680Y-56655D01*
X-56680Y-66665D01*
G37*
G54D32*
G36*
X-256390Y22846D02*
X-268890Y22846D01*
X-268890Y12874D01*
X-256390Y12874D01*
X-256390Y22846D01*
G37*
G54D33*
G36*
X-233406Y17858D02*
X-233406Y5358D01*
X-223379Y5358D01*
X-223379Y17858D01*
X-233406Y17858D01*
G37*
G36*
X-228392Y12844D02*
X-215892Y12844D01*
X-215892Y22871D01*
X-228392Y22871D01*
X-228392Y12844D01*
G37*
G36*
X-223379Y17858D02*
X-223379Y30358D01*
X-233406Y30358D01*
X-233406Y17858D01*
X-223379Y17858D01*
G37*
G54D18*
X-140036Y940317D02*
X-140035Y865313D01*
G54D18*
X-140141Y-139682D02*
X-140142Y-64678D01*
X-101935Y814513D02*
G54D44*
D03*
X-101935Y786513D02*
G54D44*
D03*
G54D18*
X-101935Y814513D02*
X-101935Y857585D01*
X-109538Y865188D01*
X-139909Y865188D01*
X-140035Y865313D01*
X-136860Y754760D02*
G54D44*
D03*
G36*
X-172860Y762763D02*
X-188860Y762763D01*
X-188860Y746763D01*
X-172860Y746763D01*
X-172860Y762763D01*
G37*
X-180860Y786513D02*
G54D44*
D03*
X-136860Y786513D02*
G54D44*
D03*
X-101935Y754763D02*
G54D45*
D03*
X-101930Y708660D02*
G54D45*
D03*
G54D18*
X-101935Y754763D02*
X-101935Y786513D01*
G54D18*
X-101935Y786513D02*
X-136860Y786513D01*
G54D18*
X-180860Y754763D02*
X-180860Y786513D01*
X-171335Y719838D02*
G54D45*
D03*
X-171335Y673738D02*
G54D45*
D03*
G54D18*
X-180860Y754763D02*
X-180860Y729363D01*
X-171335Y719838D01*
X-240610Y786513D02*
G54D44*
D03*
X-212610Y786513D02*
G54D44*
D03*
X-240610Y754763D02*
G54D44*
D03*
X-212610Y754763D02*
G54D44*
D03*
X-240610Y723013D02*
G54D44*
D03*
X-212610Y723013D02*
G54D44*
D03*
X-240610Y691263D02*
G54D44*
D03*
X-212610Y691263D02*
G54D44*
D03*
X-240610Y659513D02*
G54D44*
D03*
X-212610Y659513D02*
G54D44*
D03*
X-240610Y627763D02*
G54D44*
D03*
X-212610Y627760D02*
G54D44*
D03*
G54D18*
X-212555Y786513D02*
X-212555Y806785D01*
X-204952Y814388D01*
X-144462Y814388D01*
X-136860Y806785D01*
X-136860Y786513D01*
G54D18*
X-240610Y786513D02*
X-240610Y754763D01*
G54D18*
X-212610Y754763D02*
X-212610Y723013D01*
G54D18*
X-240610Y723013D02*
X-240610Y691263D01*
G54D18*
X-212610Y691263D02*
X-212610Y659513D01*
G54D18*
X-240610Y659513D02*
X-240610Y627763D01*
G54D18*
X-171335Y673738D02*
X-171335Y635809D01*
X-171838Y635306D01*
X-240610Y596013D02*
G54D44*
D03*
X-212610Y596010D02*
G54D44*
D03*
G54D18*
X-240610Y627763D02*
X-240610Y596013D01*
G54D18*
X-108338Y447981D02*
X-108338Y486081D01*
X-126838Y394031D02*
G54D44*
D03*
X-98840Y394030D02*
G54D44*
D03*
G54D18*
X-126838Y394031D02*
X-126838Y416781D01*
X-117838Y425781D01*
X-181825Y394031D02*
G54D44*
D03*
X-153830Y394030D02*
G54D44*
D03*
X-181825Y425781D02*
G54D44*
D03*
X-153830Y425780D02*
G54D44*
D03*
G54D18*
X-181825Y394031D02*
X-181825Y425781D01*
X-181825Y476093D01*
X-171838Y486081D01*
X-181825Y308881D02*
G54D44*
D03*
X-181825Y336881D02*
G54D44*
D03*
X-153825Y308881D02*
G54D44*
D03*
X-153825Y336881D02*
G54D44*
D03*
G54D18*
X-153825Y336881D02*
X-181825Y336881D01*
X-181825Y394031D01*
G54D18*
X-181825Y308881D02*
X-153825Y308881D01*
G54D18*
X-240788Y439738D02*
X-240788Y375738D01*
G36*
X-245788Y439738D02*
X-235788Y439738D01*
X-235788Y444738D01*
X-245788Y444738D01*
X-245788Y439738D01*
G37*
X-241575Y308881D02*
G54D44*
D03*
X-213575Y308881D02*
G54D44*
D03*
G54D18*
X-240788Y375738D02*
X-240788Y309668D01*
X-241575Y308881D01*
G54D18*
X-213575Y308881D02*
X-181825Y308881D01*
G54D18*
X-39291Y439738D02*
X-39291Y375738D01*
X-39302Y279920D01*
G36*
X-44291Y439738D02*
X-34291Y439738D01*
X-34291Y444738D01*
X-44291Y444738D01*
X-44291Y439738D01*
G37*
X-63912Y352756D02*
G54D46*
D03*
X-213575Y346981D02*
G54D46*
D03*
G54D18*
X-213575Y308881D02*
X-213575Y346981D01*
G36*
X-230947Y42264D02*
X-214947Y42264D01*
X-214947Y50264D01*
X-230947Y50264D01*
X-230947Y42264D01*
G37*
G54D18*
X-222947Y186264D02*
X-233890Y186264D01*
X-241501Y193878D01*
X-241575Y308881D01*
G36*
X-222947Y191264D02*
X-222947Y181264D01*
X-217947Y181264D01*
X-217947Y191264D01*
X-222947Y191264D01*
G37*
G54D18*
X-222947Y166264D02*
X-245640Y166264D01*
X-268288Y188912D01*
X-268288Y579438D01*
X-251712Y596013D01*
X-240610Y596013D01*
G36*
X-222947Y171264D02*
X-222947Y161264D01*
X-217947Y161264D01*
X-217947Y171264D01*
X-222947Y171264D01*
G37*
X-254697Y46264D02*
G54D44*
D03*
X-254697Y74264D02*
G54D44*
D03*
G54D18*
X-153825Y308881D02*
X-153825Y208124D01*
X-153988Y96838D01*
X-204560Y46264D01*
X-222947Y46264D01*
X-254697Y46264D01*
G54D18*
X-222947Y146264D02*
X-245640Y146264D01*
X-254695Y137222D01*
X-254697Y74264D01*
G36*
X-222947Y151264D02*
X-222947Y141264D01*
X-217947Y141264D01*
X-217947Y151264D01*
X-222947Y151264D01*
G37*
X-39298Y6564D02*
G54D44*
D03*
X-67300Y6560D02*
G54D44*
D03*
X-99041Y293188D02*
G54D44*
D03*
X-71041Y293188D02*
G54D44*
D03*
X-99041Y324938D02*
G54D44*
D03*
X-71041Y324938D02*
G54D44*
D03*
G54D18*
X-99041Y324938D02*
X-99041Y293188D01*
G54D18*
X-71041Y324938D02*
X-40188Y324938D01*
G54D18*
X-57232Y86264D02*
X-98964Y86264D01*
X-109538Y96838D01*
X-109437Y236692D01*
X-71056Y275018D01*
X-71041Y293188D01*
G36*
X-57232Y91264D02*
X-57232Y81264D01*
X-52232Y81264D01*
X-52232Y91264D01*
X-57232Y91264D01*
G37*
G54D18*
X-57232Y106264D02*
X-87214Y106264D01*
X-90488Y109538D01*
X-90488Y228600D01*
X-39302Y279920D01*
G36*
X-57232Y111264D02*
X-57232Y101264D01*
X-52232Y101264D01*
X-52232Y111264D01*
X-57232Y111264D01*
G37*
X-39298Y230188D02*
G54D46*
D03*
X-127412Y254330D02*
G54D46*
D03*
G54D18*
X-126838Y394031D02*
X-126838Y384013D01*
X-95362Y352720D01*
X-63912Y352756D01*
X-39298Y186264D02*
G54D46*
D03*
X-39298Y166264D02*
G54D46*
D03*
X-39298Y146264D02*
G54D46*
D03*
G54D18*
X-39298Y186264D02*
X-57232Y186264D01*
G36*
X-57232Y181264D02*
X-57232Y191264D01*
X-62232Y191264D01*
X-62232Y181264D01*
X-57232Y181264D01*
G37*
G54D18*
X-39298Y166264D02*
X-57232Y166264D01*
G36*
X-57232Y161264D02*
X-57232Y171264D01*
X-62232Y171264D01*
X-62232Y161264D01*
X-57232Y161264D01*
G37*
G54D18*
X-39298Y146264D02*
X-57232Y146264D01*
G36*
X-57232Y141264D02*
X-57232Y151264D01*
X-62232Y151264D01*
X-62232Y141264D01*
X-57232Y141264D01*
G37*
G54D18*
X-39298Y230188D02*
X-49212Y230188D01*
X-74612Y204788D01*
X-74612Y131762D01*
X-69114Y126264D01*
X-57232Y126264D01*
G54D18*
X-39298Y6564D02*
X-39298Y59538D01*
X-46038Y66278D01*
X-57232Y66264D01*
G36*
X-57226Y61264D02*
X-57238Y71264D01*
X-62238Y71258D01*
X-62226Y61258D01*
X-57226Y61264D01*
G37*
X-206297Y-97888D02*
G54D47*
D03*
G36*
X-223296Y-90889D02*
X-235296Y-90888D01*
X-235297Y-104888D01*
X-223297Y-104889D01*
X-223296Y-90889D01*
G37*
X-252300Y-97890D02*
G54D47*
D03*
X-229297Y-35889D02*
G54D48*
D03*
X-229297Y-27951D02*
G54D49*
D03*
X-154506Y-1360D02*
G54D44*
D03*
X-126506Y-1360D02*
G54D44*
D03*
G54D18*
X-154506Y-1360D02*
X-207072Y-1360D01*
X-254697Y46264D01*
X-97931Y-1360D02*
G54D46*
D03*
G54D18*
X-126506Y-1360D02*
X-97931Y-1360D01*
X-97949Y-22650D01*
X-81190Y-39460D01*
X-66181Y-39460D01*
X-222946Y-148688D02*
G54D50*
D03*
X-262850Y-148690D02*
G54D50*
D03*
X-39300Y-119860D02*
G54D44*
D03*
X-39298Y-91860D02*
G54D44*
D03*
X-67872Y-119860D02*
G54D44*
D03*
X-67872Y-91860D02*
G54D44*
D03*
X-67476Y-148832D02*
G54D44*
D03*
X-39480Y-148830D02*
G54D44*
D03*
X-39218Y-61660D02*
G54D46*
D03*
G54D18*
X-75681Y-61660D02*
X-75681Y-84052D01*
X-67872Y-91860D01*
X-39298Y-91860D01*
G54D18*
X-67872Y-119860D02*
X-137314Y-119860D01*
G54D18*
X-67872Y-119860D02*
X-67872Y-148436D01*
X-67476Y-148832D01*
G54D18*
X-56681Y-61660D02*
X-39218Y-61660D01*
G54D18*
X-222946Y-186788D02*
X-206315Y-186788D01*
X-206297Y-97888D01*
X-39300Y-172870D02*
G54D46*
D03*
X-57780Y-277890D02*
G54D51*
D03*
X-70484Y-277890D02*
G54D51*
D03*
X-83184Y-277890D02*
G54D51*
D03*
X-95884Y-277890D02*
G54D51*
D03*
X-108584Y-277890D02*
G54D51*
D03*
X-121284Y-277890D02*
G54D51*
D03*
X-133984Y-277890D02*
G54D51*
D03*
X-146684Y-277890D02*
G54D51*
D03*
X-146684Y-203890D02*
G54D51*
D03*
X-133984Y-203890D02*
G54D51*
D03*
X-121284Y-203890D02*
G54D51*
D03*
X-108584Y-203890D02*
G54D51*
D03*
G36*
X-92383Y-192890D02*
X-99383Y-192890D01*
X-99384Y-214890D01*
X-92384Y-214890D01*
X-92383Y-192890D01*
G37*
X-83184Y-203890D02*
G54D51*
D03*
X-70484Y-203890D02*
G54D51*
D03*
X-57784Y-203890D02*
G54D51*
D03*
X-76788Y-237418D02*
G54D46*
D03*
X-93600Y-246938D02*
G54D46*
D03*
X-186767Y-229976D02*
G54D47*
D03*
X-186767Y-251804D02*
G54D47*
D03*
X-169701Y-229976D02*
G54D47*
D03*
X-169701Y-251804D02*
G54D47*
D03*
G54D37*
X-133984Y-277890D02*
X-133984Y-245429D01*
X-149454Y-229958D01*
X-169701Y-229976D01*
G54D37*
X-186767Y-251804D02*
X-186767Y-267258D01*
X-176154Y-277842D01*
X-146684Y-277890D01*
X-243800Y-237590D02*
G54D44*
D03*
X-215797Y-237588D02*
G54D44*
D03*
G54D37*
X-215797Y-269338D02*
X-185672Y-269338D01*
G54D37*
X-215797Y-237588D02*
X-215797Y-218972D01*
X-204788Y-207962D01*
X-179388Y-207962D01*
G54D37*
X-168378Y-224888D02*
X-168378Y-218972D01*
X-179388Y-207962D01*
G54D18*
X-190103Y-3175D02*
X-190103Y-65088D01*
X-221853Y-65088D01*
X-229296Y-72531D01*
X-229296Y-97888D01*
X-229296Y-142338D01*
X-222946Y-148688D01*
X-137812Y-328612D02*
G54D52*
D03*
X-144312Y-328612D02*
G54D52*
D03*
X-150812Y-328612D02*
G54D52*
D03*
X-157312Y-328612D02*
G54D52*
D03*
X-163810Y-328610D02*
G54D52*
D03*
X-110810Y-355360D02*
G54D53*
D03*
X-190810Y-355360D02*
G54D53*
D03*
X-130810Y-333860D02*
G54D54*
D03*
X-170810Y-333860D02*
G54D54*
D03*
G54D38*
X-108584Y-277890D02*
X-108584Y-295909D01*
X-117475Y-304800D01*
X-144462Y-304800D01*
X-150812Y-311150D01*
X-150812Y-328612D01*
G54D38*
X-57784Y-303846D02*
X-71438Y-317500D01*
X-136525Y-317500D01*
X-137812Y-318788D01*
X-137812Y-328612D01*
X-89631Y-301707D02*
G54D46*
D03*
G54D38*
X-144312Y-328612D02*
X-144312Y-314325D01*
X-141138Y-311150D01*
X-99074Y-311150D01*
X-89631Y-301707D01*
G54D38*
X-121284Y-277890D02*
X-121284Y-294321D01*
X-123825Y-296862D01*
X-164161Y-296862D01*
X-164161Y-296862D02*
G54D46*
D03*
X-243800Y-304260D02*
G54D46*
D03*
X-206297Y-120114D02*
G54D46*
D03*
X-56990Y-303846D02*
G54D46*
D03*
G54D37*
X-70484Y-277890D02*
X-70484Y-243721D01*
X-76788Y-237418D01*
G54D37*
X-83184Y-277890D02*
X-83184Y-257354D01*
X-93600Y-246938D01*
G54D37*
X-188595Y-56753D02*
X-188595Y-165497D01*
X-176292Y-177800D01*
X-63579Y-177800D01*
X-57773Y-183607D01*
X-57784Y-203947D01*
X-57798Y-218106D01*
X-57798Y-219723D01*
X-60325Y-222250D01*
X-101600Y-222250D01*
X-111125Y-231775D01*
X-111125Y-250825D01*
X-95884Y-266066D01*
X-95884Y-277890D01*
X-53975Y-348672D02*
G54D55*
D03*
X-247650Y-348672D02*
G54D55*
D03*
X-53975Y943553D02*
G54D55*
D03*
X-247650Y943553D02*
G54D55*
D03*
X-222946Y-186788D02*
G54D50*
D03*
X-262850Y-186790D02*
G54D50*
D03*
X-243800Y-269340D02*
G54D44*
D03*
X-215797Y-269338D02*
G54D44*
D03*
G54D18*
X-98840Y394030D02*
X-76530Y394030D01*
G36*
X-76530Y399030D02*
X-76530Y389030D01*
X-71530Y389030D01*
X-71530Y399030D01*
X-76530Y399030D01*
G37*
G54D18*
X-75290Y439740D02*
X-75290Y375740D01*
G36*
X-80290Y439740D02*
X-70290Y439740D01*
X-70290Y444740D01*
X-80290Y444740D01*
X-80290Y439740D01*
G37*
G36*
X-70290Y375740D02*
X-80290Y375740D01*
X-80290Y370740D01*
X-70290Y370740D01*
X-70290Y375740D01*
G37*
G54D18*
X-204790Y439740D02*
X-204790Y375740D01*
G36*
X-209790Y439740D02*
X-199790Y439740D01*
X-199790Y444740D01*
X-209790Y444740D01*
X-209790Y439740D01*
G37*
G36*
X-199790Y375740D02*
X-209790Y375740D01*
X-209790Y370740D01*
X-199790Y370740D01*
X-199790Y375740D01*
G37*
G54D18*
X-262850Y-148690D02*
X-262850Y-186790D01*
X-140036Y940317D02*
G54D56*
D03*
X-140141Y-139682D02*
G54D56*
D03*
X-140035Y865313D02*
G54D56*
D03*
X-140142Y-64678D02*
G54D56*
D03*
X-171838Y635306D02*
G54D57*
D03*
X-108340Y635310D02*
G54D57*
D03*
X-171838Y486081D02*
G54D57*
D03*
X-108338Y486081D02*
G54D57*
D03*
X-204790Y439740D02*
G54D58*
D03*
X-204790Y375740D02*
G54D58*
D03*
X-240788Y375738D02*
G54D58*
D03*
X-240788Y439738D02*
G54D58*
D03*
X-39291Y439738D02*
G54D58*
D03*
X-39291Y375738D02*
G54D58*
D03*
X-75281Y375738D02*
G54D58*
D03*
X-75281Y439738D02*
G54D58*
D03*
G36*
X-230589Y62264D02*
X-214589Y62264D01*
X-214589Y70264D01*
X-230589Y70264D01*
X-230589Y62264D01*
G37*
G36*
X-230589Y82264D02*
X-214589Y82264D01*
X-214589Y90264D01*
X-230589Y90264D01*
X-230589Y82264D01*
G37*
G36*
X-230589Y102264D02*
X-214589Y102264D01*
X-214589Y110264D01*
X-230589Y110264D01*
X-230589Y102264D01*
G37*
G36*
X-230589Y122264D02*
X-214589Y122264D01*
X-214589Y130264D01*
X-230589Y130264D01*
X-230589Y122264D01*
G37*
G36*
X-230589Y142264D02*
X-214589Y142264D01*
X-214589Y150264D01*
X-230589Y150264D01*
X-230589Y142264D01*
G37*
G36*
X-230589Y162264D02*
X-214589Y162264D01*
X-214589Y170264D01*
X-230589Y170264D01*
X-230589Y162264D01*
G37*
G36*
X-230589Y182264D02*
X-214589Y182264D01*
X-214589Y190264D01*
X-230589Y190264D01*
X-230589Y182264D01*
G37*
G36*
X-64873Y42260D02*
X-48873Y42260D01*
X-48873Y50260D01*
X-64873Y50260D01*
X-64873Y42260D01*
G37*
G36*
X-64874Y62264D02*
X-48874Y62264D01*
X-48874Y70264D01*
X-64874Y70264D01*
X-64874Y62264D01*
G37*
G36*
X-64874Y82264D02*
X-48874Y82264D01*
X-48874Y90264D01*
X-64874Y90264D01*
X-64874Y82264D01*
G37*
G36*
X-64874Y102264D02*
X-48874Y102264D01*
X-48874Y110264D01*
X-64874Y110264D01*
X-64874Y102264D01*
G37*
G36*
X-64874Y122264D02*
X-48874Y122264D01*
X-48874Y130264D01*
X-64874Y130264D01*
X-64874Y122264D01*
G37*
G36*
X-64874Y142264D02*
X-48874Y142264D01*
X-48874Y150264D01*
X-64874Y150264D01*
X-64874Y142264D01*
G37*
G36*
X-64874Y162264D02*
X-48874Y162264D01*
X-48874Y170264D01*
X-64874Y170264D01*
X-64874Y162264D01*
G37*
G36*
X-64874Y182264D02*
X-48874Y182264D01*
X-48874Y190264D01*
X-64874Y190264D01*
X-64874Y182264D01*
G37*
G36*
X-194090Y36130D02*
X-194090Y20130D01*
X-186090Y20130D01*
X-186090Y36130D01*
X-194090Y36130D01*
G37*
G36*
X-174090Y36130D02*
X-174090Y20130D01*
X-166090Y20130D01*
X-166090Y36130D01*
X-174090Y36130D01*
G37*
G36*
X-154090Y36130D02*
X-154090Y20130D01*
X-146090Y20130D01*
X-146090Y36130D01*
X-154090Y36130D01*
G37*
G36*
X-134090Y36130D02*
X-134090Y20130D01*
X-126090Y20130D01*
X-126090Y36130D01*
X-134090Y36130D01*
G37*
G36*
X-114090Y36130D02*
X-114090Y20130D01*
X-106090Y20130D01*
X-106090Y36130D01*
X-114090Y36130D01*
G37*
G36*
X-94090Y36130D02*
X-94090Y20130D01*
X-86090Y20130D01*
X-86090Y36130D01*
X-94090Y36130D01*
G37*
G36*
X-230589Y42264D02*
X-214589Y42264D01*
X-214589Y50264D01*
X-230589Y50264D01*
X-230589Y42264D01*
G37*
G54D18*
X-99041Y293188D02*
X-99041Y282702D01*
X-127412Y254330D01*
X-117838Y425781D02*
G54D59*
D03*
X-98840Y425780D02*
G54D59*
D03*
X-108338Y447981D02*
G54D59*
D03*
X-75681Y-61660D02*
G54D59*
D03*
X-56680Y-61660D02*
G54D59*
D03*
X-66181Y-39460D02*
G54D59*
D03*
X-256390Y17860D02*
G54D44*
D03*
X-228392Y17858D02*
G54D44*
D03*
M02*
