%FSLAX34Y34*%
%MOMM*%
%LNCOPPER_TOP*%
G71*
G01*
%ADD10C, 2.20*%
%ADD11C, 1.80*%
%ADD12C, 1.50*%
%ADD13C, 6.00*%
%ADD14C, 0.10*%
%ADD15C, 6.00*%
%ADD16C, 0.47*%
%ADD17C, 0.46*%
%ADD18C, 1.67*%
%ADD19C, 1.40*%
%ADD20C, 1.00*%
%ADD21C, 0.70*%
%ADD22C, 5.00*%
%ADD23C, 5.00*%
%LPD*%
G36*
X0Y1000000D02*
X-300000Y1000000D01*
X-300000Y-400000D01*
X0Y-400000D01*
X0Y1000000D01*
G37*
%LPC*%
X-63912Y352756D02*
G54D10*
D03*
X-213575Y346981D02*
G54D10*
D03*
X-39298Y230188D02*
G54D10*
D03*
X-127412Y254330D02*
G54D10*
D03*
X-39298Y186264D02*
G54D10*
D03*
X-39298Y166264D02*
G54D10*
D03*
X-39298Y146264D02*
G54D10*
D03*
X-97931Y-1360D02*
G54D10*
D03*
X-39218Y-61660D02*
G54D10*
D03*
G54D11*
X-39298Y230188D02*
X-39298Y328140D01*
X-63912Y352756D01*
G54D11*
X-97931Y-1360D02*
X-97931Y87631D01*
X-39298Y146264D01*
X-39300Y-172870D02*
G54D10*
D03*
X-76788Y-237418D02*
G54D10*
D03*
X-93600Y-246938D02*
G54D10*
D03*
X-130810Y-333860D02*
G54D12*
D03*
X-170810Y-333860D02*
G54D12*
D03*
X-89631Y-301707D02*
G54D10*
D03*
X-164161Y-296862D02*
G54D10*
D03*
G54D11*
X-89631Y-301707D02*
X-159316Y-301707D01*
X-164161Y-296862D01*
G54D11*
X-39298Y186264D02*
X-208962Y186241D01*
X-267412Y127712D01*
X-267412Y-221538D01*
X-242012Y-246938D01*
X-96774Y-246938D01*
X-243800Y-304260D02*
G54D10*
D03*
X-206297Y-120114D02*
G54D10*
D03*
X-56990Y-303846D02*
G54D10*
D03*
G54D11*
X-206297Y-120114D02*
X-206342Y-173864D01*
X-192881Y-187325D01*
X-75406Y-187325D01*
X-56853Y-205877D01*
X-56990Y-303846D01*
G54D11*
X-39298Y166264D02*
X-192510Y166264D01*
X-238125Y120650D01*
X-238125Y-203200D01*
X-222250Y-219075D01*
X-88900Y-219075D01*
X-76788Y-231188D01*
X-76788Y-237418D01*
X-53975Y-348672D02*
G54D13*
D03*
X-247650Y-348672D02*
G54D13*
D03*
X-53975Y943553D02*
G54D13*
D03*
X-247650Y943553D02*
G54D13*
D03*
G36*
X-175014Y971550D02*
X-175014Y831850D01*
X-105164Y831850D01*
X-105164Y971550D01*
X-175014Y971550D01*
G37*
G54D14*
X-175014Y971550D02*
X-175014Y831850D01*
X-105164Y831850D01*
X-105164Y971550D01*
X-175014Y971550D01*
G36*
X-175014Y-31750D02*
X-175014Y-171450D01*
X-105164Y-171450D01*
X-105164Y-31750D01*
X-175014Y-31750D01*
G37*
G54D14*
X-175014Y-31750D02*
X-175014Y-171450D01*
X-105164Y-171450D01*
X-105164Y-31750D01*
X-175014Y-31750D01*
X-140036Y940317D02*
G54D15*
D03*
X-140141Y-139682D02*
G54D15*
D03*
X-140035Y865313D02*
G54D15*
D03*
X-140142Y-64678D02*
G54D15*
D03*
G54D11*
X-127412Y254330D02*
X-127412Y260818D01*
X-213575Y346981D01*
%LPD*%
G54D16*
G36*
X-39218Y-59327D02*
X-50718Y-59327D01*
X-50718Y-63994D01*
X-39218Y-63994D01*
X-39218Y-59327D01*
G37*
G36*
X-41552Y-61660D02*
X-41552Y-73160D01*
X-36885Y-73160D01*
X-36885Y-61660D01*
X-41552Y-61660D01*
G37*
G36*
X-39218Y-63994D02*
X-27718Y-63994D01*
X-27718Y-59327D01*
X-39218Y-59327D01*
X-39218Y-63994D01*
G37*
G36*
X-36885Y-61660D02*
X-36885Y-50160D01*
X-41552Y-50160D01*
X-41552Y-61660D01*
X-36885Y-61660D01*
G37*
G54D16*
G36*
X-39300Y-170537D02*
X-50800Y-170537D01*
X-50800Y-175203D01*
X-39300Y-175203D01*
X-39300Y-170537D01*
G37*
G36*
X-41633Y-172870D02*
X-41633Y-184370D01*
X-36967Y-184370D01*
X-36967Y-172870D01*
X-41633Y-172870D01*
G37*
G36*
X-39300Y-175203D02*
X-27800Y-175203D01*
X-27800Y-170537D01*
X-39300Y-170537D01*
X-39300Y-175203D01*
G37*
G36*
X-36967Y-172870D02*
X-36967Y-161370D01*
X-41633Y-161370D01*
X-41633Y-172870D01*
X-36967Y-172870D01*
G37*
G54D17*
G36*
X-243800Y-301950D02*
X-255300Y-301950D01*
X-255300Y-306570D01*
X-243800Y-306570D01*
X-243800Y-301950D01*
G37*
G36*
X-246110Y-304260D02*
X-246110Y-315760D01*
X-241490Y-315760D01*
X-241490Y-304260D01*
X-246110Y-304260D01*
G37*
G36*
X-243800Y-306570D02*
X-232300Y-306570D01*
X-232300Y-301950D01*
X-243800Y-301950D01*
X-243800Y-306570D01*
G37*
G36*
X-241490Y-304260D02*
X-241490Y-292760D01*
X-246110Y-292760D01*
X-246110Y-304260D01*
X-241490Y-304260D01*
G37*
G54D18*
G36*
X-45642Y-348672D02*
X-45642Y-318172D01*
X-62308Y-318172D01*
X-62308Y-348672D01*
X-45642Y-348672D01*
G37*
G36*
X-53975Y-340339D02*
X-84475Y-340339D01*
X-84475Y-357005D01*
X-53975Y-357005D01*
X-53975Y-340339D01*
G37*
G36*
X-62308Y-348672D02*
X-62308Y-379172D01*
X-45642Y-379172D01*
X-45642Y-348672D01*
X-62308Y-348672D01*
G37*
G36*
X-53975Y-357005D02*
X-23475Y-357005D01*
X-23475Y-340339D01*
X-53975Y-340339D01*
X-53975Y-357005D01*
G37*
G54D18*
G36*
X-239317Y-348672D02*
X-239317Y-318172D01*
X-255983Y-318172D01*
X-255983Y-348672D01*
X-239317Y-348672D01*
G37*
G36*
X-247650Y-340339D02*
X-278150Y-340339D01*
X-278150Y-357005D01*
X-247650Y-357005D01*
X-247650Y-340339D01*
G37*
G36*
X-255983Y-348672D02*
X-255983Y-379172D01*
X-239317Y-379172D01*
X-239317Y-348672D01*
X-255983Y-348672D01*
G37*
G36*
X-247650Y-357005D02*
X-217150Y-357005D01*
X-217150Y-340339D01*
X-247650Y-340339D01*
X-247650Y-357005D01*
G37*
G54D18*
G36*
X-45642Y943553D02*
X-45642Y974053D01*
X-62308Y974053D01*
X-62308Y943553D01*
X-45642Y943553D01*
G37*
G36*
X-53975Y951886D02*
X-84475Y951886D01*
X-84475Y935220D01*
X-53975Y935220D01*
X-53975Y951886D01*
G37*
G36*
X-62308Y943553D02*
X-62308Y913053D01*
X-45642Y913053D01*
X-45642Y943553D01*
X-62308Y943553D01*
G37*
G36*
X-53975Y935220D02*
X-23475Y935220D01*
X-23475Y951886D01*
X-53975Y951886D01*
X-53975Y935220D01*
G37*
G54D18*
G36*
X-239317Y943553D02*
X-239317Y974053D01*
X-255983Y974053D01*
X-255983Y943553D01*
X-239317Y943553D01*
G37*
G36*
X-247650Y951886D02*
X-278150Y951886D01*
X-278150Y935220D01*
X-247650Y935220D01*
X-247650Y951886D01*
G37*
G36*
X-255983Y943553D02*
X-255983Y913053D01*
X-239317Y913053D01*
X-239317Y943553D01*
X-255983Y943553D01*
G37*
G36*
X-247650Y935220D02*
X-217150Y935220D01*
X-217150Y951886D01*
X-247650Y951886D01*
X-247650Y935220D01*
G37*
X-63912Y352756D02*
G54D19*
D03*
X-213575Y346981D02*
G54D19*
D03*
X-39298Y230188D02*
G54D19*
D03*
X-127412Y254330D02*
G54D19*
D03*
X-39298Y186264D02*
G54D19*
D03*
X-39298Y166264D02*
G54D19*
D03*
X-39298Y146264D02*
G54D19*
D03*
X-97931Y-1360D02*
G54D19*
D03*
X-39218Y-61660D02*
G54D19*
D03*
G54D20*
X-39298Y230188D02*
X-39298Y328140D01*
X-63912Y352756D01*
G54D20*
X-97931Y-1360D02*
X-97931Y87631D01*
X-39298Y146264D01*
X-39300Y-172870D02*
G54D19*
D03*
X-76788Y-237418D02*
G54D19*
D03*
X-93600Y-246938D02*
G54D19*
D03*
X-130810Y-333860D02*
G54D21*
D03*
X-170810Y-333860D02*
G54D21*
D03*
X-89631Y-301707D02*
G54D19*
D03*
X-164161Y-296862D02*
G54D19*
D03*
G54D20*
X-89631Y-301707D02*
X-159316Y-301707D01*
X-164161Y-296862D01*
G54D20*
X-39298Y186264D02*
X-208962Y186241D01*
X-267412Y127712D01*
X-267412Y-221538D01*
X-242012Y-246938D01*
X-96774Y-246938D01*
X-243800Y-304260D02*
G54D19*
D03*
X-206297Y-120114D02*
G54D19*
D03*
X-56990Y-303846D02*
G54D19*
D03*
G54D20*
X-206297Y-120114D02*
X-206342Y-173864D01*
X-192881Y-187325D01*
X-75406Y-187325D01*
X-56853Y-205877D01*
X-56990Y-303846D01*
G54D20*
X-39298Y166264D02*
X-192510Y166264D01*
X-238125Y120650D01*
X-238125Y-203200D01*
X-222250Y-219075D01*
X-88900Y-219075D01*
X-76788Y-231188D01*
X-76788Y-237418D01*
X-53975Y-348672D02*
G54D22*
D03*
X-247650Y-348672D02*
G54D22*
D03*
X-53975Y943553D02*
G54D22*
D03*
X-247650Y943553D02*
G54D22*
D03*
X-140036Y940317D02*
G54D23*
D03*
X-140141Y-139682D02*
G54D23*
D03*
X-140035Y865313D02*
G54D23*
D03*
X-140142Y-64678D02*
G54D23*
D03*
G54D20*
X-127412Y254330D02*
X-127412Y260818D01*
X-213575Y346981D01*
M02*
