M48
M72
T01C0.0118
T02C0.0197
T03C0.063
T04C0.1378
%
G05
G90
T01
X-005150Y-013140
X-006720Y-013140
T02
X-002240Y-011960
X-003530Y-011880
X-003690Y-009720
X-003020Y-009350
X-001550Y-006810
X-001540Y-002430
X-003860Y-000050
X-001550Y005760
X-001550Y006550
X-001550Y007330
X-001550Y009060
X-005020Y010010
X-002520Y013890
X-008410Y013660
X-008120Y-004730
X-006460Y-011690
X-009600Y-011980
T03
X-005520Y-005500
X-005520Y-002550
X-005510Y034070
X-005510Y037020
T04
X-002120Y-013730
X-009750Y-013730
X-009750Y037150
X-002120Y037150
M30
