%FSLAX34Y34*%
%MOMM*%
%LNCOPPER_BOTTOM*%
G71*
G01*
%ADD10C, 0.79*%
%ADD11C, 0.15*%
%LPD*%
G54D10*
X-126199Y321428D02*
X-120643Y324761D01*
X-117866Y331428D01*
X-117866Y338095D01*
X-120643Y344761D01*
X-126199Y348095D01*
X-131755Y348095D01*
X-137310Y344761D01*
X-140088Y338095D01*
X-140088Y331428D01*
X-142866Y324761D01*
X-148421Y321428D01*
X-153977Y321428D01*
X-159532Y324761D01*
X-162310Y331428D01*
X-162310Y338095D01*
X-159532Y344761D01*
X-153977Y348095D01*
G54D10*
X-117866Y363651D02*
X-162310Y363651D01*
X-162310Y380318D01*
X-159532Y386984D01*
X-153977Y390318D01*
X-148421Y390318D01*
X-142866Y386984D01*
X-140088Y380318D01*
X-137310Y386984D01*
X-131755Y390318D01*
X-126199Y390318D01*
X-120643Y386984D01*
X-117866Y380318D01*
X-117866Y363651D01*
G54D10*
X-140088Y363651D02*
X-140088Y380318D01*
G54D10*
X-117866Y405874D02*
X-162310Y405874D01*
X-134532Y422541D01*
X-162310Y439207D01*
X-117866Y439207D01*
G54D10*
X-137310Y454763D02*
X-137310Y481430D01*
G54D10*
X-117866Y523653D02*
X-117866Y496986D01*
X-120643Y496986D01*
X-126199Y500319D01*
X-142866Y520319D01*
X-148421Y523653D01*
X-153977Y523653D01*
X-159532Y520319D01*
X-162310Y513653D01*
X-162310Y506986D01*
X-159532Y500319D01*
X-153977Y496986D01*
G54D10*
X-153977Y565876D02*
X-126199Y565876D01*
X-120643Y562542D01*
X-117866Y555876D01*
X-117866Y549209D01*
X-120643Y542542D01*
X-126199Y539209D01*
X-153977Y539209D01*
X-159532Y542542D01*
X-162310Y549209D01*
X-162310Y555876D01*
X-159532Y562542D01*
X-153977Y565876D01*
G54D10*
X-153368Y778002D02*
X-126701Y778002D01*
G54D10*
X-140035Y766891D02*
X-140035Y789113D01*
G54D11*
X-195086Y-171019D02*
X-85091Y-171042D01*
X-85091Y971654D01*
X-195086Y971676D01*
X-195086Y-171019D01*
M02*
