%FSLAX34Y34*%
%MOMM*%
%LNSILK_BOTTOM_*%
G71*
G01*
%ADD10C, 0.15*%
%ADD11C, 0.50*%
%ADD12C, 0.16*%
%ADD13C, 0.24*%
%ADD14C, 0.33*%
%LPD*%
G54D10*
X-90935Y825513D02*
X-112935Y825513D01*
X-112935Y775513D01*
X-90935Y775513D01*
X-90935Y825513D01*
G54D10*
X-125723Y743578D02*
X-125723Y765975D01*
X-191995Y765975D01*
X-191995Y743578D01*
X-125723Y743578D01*
X-165173Y754776D02*
G54D11*
D03*
G54D10*
X-191996Y797699D02*
X-191996Y775302D01*
X-125724Y775302D01*
X-125724Y797699D01*
X-191996Y797699D01*
X-152546Y786500D02*
G54D11*
D03*
G54D10*
X-90053Y731118D02*
X-126737Y731118D01*
X-126737Y662465D01*
X-90053Y662465D01*
X-90053Y731118D01*
G54D10*
X-152992Y731115D02*
X-189677Y731115D01*
X-189677Y662462D01*
X-152992Y662462D01*
X-152992Y731115D01*
G54D12*
X-98787Y861214D02*
X-103453Y856547D01*
X-91009Y856547D01*
G54D12*
X-101120Y845658D02*
X-93342Y845658D01*
X-91787Y846591D01*
X-91009Y848458D01*
X-91009Y850325D01*
X-91787Y852192D01*
X-93342Y853125D01*
X-101120Y853125D01*
X-102676Y852191D01*
X-103453Y850325D01*
X-103453Y848458D01*
X-102676Y846591D01*
X-101120Y845658D01*
G54D12*
X-91009Y842236D02*
X-103453Y842236D01*
X-95676Y837569D01*
X-103453Y832902D01*
X-91009Y832902D01*
G54D12*
X-133871Y723175D02*
X-133871Y730642D01*
X-134649Y730642D01*
X-136204Y729709D01*
X-140871Y724109D01*
X-142427Y723175D01*
X-143982Y723175D01*
X-145538Y724109D01*
X-146315Y725975D01*
X-146315Y727842D01*
X-145538Y729709D01*
X-143982Y730642D01*
G54D12*
X-140871Y719753D02*
X-133871Y712286D01*
G54D12*
X-133871Y719753D02*
X-140871Y712286D01*
G54D12*
X-141649Y708864D02*
X-146315Y704197D01*
X-133871Y704197D01*
G54D12*
X-143982Y693308D02*
X-136204Y693308D01*
X-134649Y694242D01*
X-133871Y696108D01*
X-133871Y697975D01*
X-134649Y699842D01*
X-136204Y700775D01*
X-143982Y700775D01*
X-145538Y699842D01*
X-146315Y697975D01*
X-146315Y696108D01*
X-145538Y694242D01*
X-143982Y693308D01*
G54D12*
X-143982Y682419D02*
X-136204Y682419D01*
X-134649Y683353D01*
X-133871Y685219D01*
X-133871Y687086D01*
X-134649Y688953D01*
X-136204Y689886D01*
X-143982Y689886D01*
X-145538Y688953D01*
X-146315Y687086D01*
X-146315Y685219D01*
X-145538Y683353D01*
X-143982Y682419D01*
G54D12*
X-133871Y678997D02*
X-140871Y678997D01*
G54D12*
X-139315Y678997D02*
X-140404Y678064D01*
X-140871Y676197D01*
X-140404Y674330D01*
X-139315Y673397D01*
X-133871Y673397D01*
G54D12*
X-133871Y669975D02*
X-146315Y669975D01*
X-146315Y663442D01*
G54D12*
X-140093Y669975D02*
X-140093Y663442D01*
G54D12*
X-135128Y804016D02*
X-127662Y804016D01*
X-127662Y804793D01*
X-128595Y806349D01*
X-134195Y811016D01*
X-135128Y812571D01*
X-135128Y814127D01*
X-134195Y815682D01*
X-132328Y816460D01*
X-130462Y816460D01*
X-128595Y815682D01*
X-127662Y814127D01*
G54D12*
X-138551Y811016D02*
X-146017Y804016D01*
G54D12*
X-138551Y804016D02*
X-146017Y811016D01*
G54D12*
X-155040Y804016D02*
X-155040Y816460D01*
X-149440Y808682D01*
X-149440Y807127D01*
X-156906Y807127D01*
G54D12*
X-167795Y814127D02*
X-167795Y806349D01*
X-166862Y804793D01*
X-164995Y804016D01*
X-163129Y804016D01*
X-161262Y804793D01*
X-160329Y806349D01*
X-160329Y814127D01*
X-161262Y815682D01*
X-163129Y816460D01*
X-164995Y816460D01*
X-166862Y815682D01*
X-167795Y814127D01*
G54D12*
X-178684Y814127D02*
X-178684Y806349D01*
X-177751Y804793D01*
X-175884Y804016D01*
X-174018Y804016D01*
X-172151Y804793D01*
X-171218Y806349D01*
X-171218Y814127D01*
X-172151Y815682D01*
X-174018Y816460D01*
X-175884Y816460D01*
X-177751Y815682D01*
X-178684Y814127D01*
G54D12*
X-182107Y816460D02*
X-189573Y816460D01*
X-188640Y814905D01*
X-186773Y812571D01*
X-184907Y809460D01*
X-183973Y807127D01*
X-183973Y804016D01*
G54D10*
X-254785Y699088D02*
X-254785Y677088D01*
X-204785Y677088D01*
X-204785Y699088D01*
X-254785Y699088D01*
G54D10*
X-254785Y667338D02*
X-254785Y645338D01*
X-204785Y645338D01*
X-204785Y667338D01*
X-254785Y667338D01*
G54D10*
X-254785Y635588D02*
X-254785Y613588D01*
X-204785Y613588D01*
X-204785Y635588D01*
X-254785Y635588D01*
G54D10*
X-254785Y603838D02*
X-254785Y581838D01*
X-204785Y581838D01*
X-204785Y603838D01*
X-254785Y603838D01*
G54D10*
X-254785Y572088D02*
X-254785Y550088D01*
X-204785Y550088D01*
X-204785Y572088D01*
X-254785Y572088D01*
G54D10*
X-254785Y540338D02*
X-254785Y518338D01*
X-204785Y518338D01*
X-204785Y540338D01*
X-254785Y540338D01*
G54D10*
X-254785Y508588D02*
X-254785Y486588D01*
X-204785Y486588D01*
X-204785Y508588D01*
X-254785Y508588D01*
G54D12*
X-219737Y475243D02*
X-224403Y479910D01*
X-224403Y467466D01*
G54D12*
X-227826Y467466D02*
X-227826Y474466D01*
G54D12*
X-227826Y472910D02*
X-228759Y473999D01*
X-230626Y474466D01*
X-232492Y473999D01*
X-233426Y472910D01*
X-233426Y467466D01*
G54D12*
X-236848Y467466D02*
X-236848Y479910D01*
X-243381Y479910D01*
G54D12*
X-236848Y473688D02*
X-243381Y473688D01*
G54D12*
X-268567Y543822D02*
X-273234Y539156D01*
X-260789Y539156D01*
G54D12*
X-270900Y528267D02*
X-263122Y528267D01*
X-261567Y529200D01*
X-260789Y531067D01*
X-260789Y532934D01*
X-261567Y534800D01*
X-263122Y535734D01*
X-270900Y535734D01*
X-272456Y534800D01*
X-273234Y532934D01*
X-273234Y531067D01*
X-272456Y529200D01*
X-270900Y528267D01*
G54D12*
X-270900Y517378D02*
X-263122Y517378D01*
X-261567Y518311D01*
X-260789Y520178D01*
X-260789Y522044D01*
X-261567Y523911D01*
X-263122Y524844D01*
X-270900Y524844D01*
X-272456Y523911D01*
X-273234Y522044D01*
X-273234Y520178D01*
X-272456Y518311D01*
X-270900Y517378D01*
G54D12*
X-260789Y513956D02*
X-273234Y513956D01*
G54D12*
X-264678Y513956D02*
X-273234Y506489D01*
G54D12*
X-267011Y511156D02*
X-260789Y506489D01*
G54D12*
X-272759Y565659D02*
X-272759Y573126D01*
X-267315Y573126D01*
X-267315Y572192D01*
X-268093Y570326D01*
X-268093Y568459D01*
X-267315Y566592D01*
X-265759Y565659D01*
X-262648Y565659D01*
X-261093Y566592D01*
X-260315Y568459D01*
X-260315Y570326D01*
X-261093Y572192D01*
X-262648Y573126D01*
G54D12*
X-260315Y562237D02*
X-272759Y562237D01*
X-264981Y557570D01*
X-272759Y552903D01*
X-260315Y552903D01*
G54D12*
X-261396Y427477D02*
X-259840Y424677D01*
X-258285Y423744D01*
X-255174Y423744D01*
G54D12*
X-255174Y431211D02*
X-267618Y431211D01*
X-267618Y426544D01*
X-266840Y424677D01*
X-265285Y423744D01*
X-263729Y423744D01*
X-262174Y424677D01*
X-261396Y426544D01*
X-261396Y431211D01*
G54D12*
X-255174Y413788D02*
X-255174Y420322D01*
X-267618Y420322D01*
X-267618Y413788D01*
G54D12*
X-261396Y420322D02*
X-261396Y413788D01*
G54D12*
X-257507Y410367D02*
X-255951Y409433D01*
X-255174Y407567D01*
X-255174Y405700D01*
X-255951Y403833D01*
X-257507Y402900D01*
X-259062Y402900D01*
X-260618Y403833D01*
X-261396Y405700D01*
X-261396Y407567D01*
X-262174Y409433D01*
X-263729Y410367D01*
X-265285Y410367D01*
X-266840Y409433D01*
X-267618Y407567D01*
X-267618Y405700D01*
X-266840Y403833D01*
X-265285Y402900D01*
G54D12*
X-255174Y392944D02*
X-255174Y399478D01*
X-267618Y399478D01*
X-267618Y392944D01*
G54D12*
X-261396Y399478D02*
X-261396Y392944D01*
G54D12*
X-255174Y385789D02*
X-267618Y385789D01*
G54D12*
X-267618Y389523D02*
X-267618Y382056D01*
G54D10*
X-137838Y405031D02*
X-137838Y383031D01*
X-87838Y383031D01*
X-87838Y405031D01*
X-137838Y405031D01*
G54D12*
X-91149Y372056D02*
X-95816Y376723D01*
X-95816Y364278D01*
G54D12*
X-106705Y374389D02*
X-106705Y366612D01*
X-105772Y365056D01*
X-103905Y364278D01*
X-102038Y364278D01*
X-100172Y365056D01*
X-99238Y366612D01*
X-99238Y374389D01*
X-100172Y375945D01*
X-102038Y376723D01*
X-103905Y376723D01*
X-105772Y375945D01*
X-106705Y374389D01*
G54D12*
X-110127Y364278D02*
X-110127Y376723D01*
G54D12*
X-110127Y368167D02*
X-117594Y376723D01*
G54D12*
X-112927Y370500D02*
X-117594Y364278D01*
G54D10*
X-192826Y405031D02*
X-192825Y383031D01*
X-142825Y383031D01*
X-142825Y405031D01*
X-192826Y405031D01*
G54D10*
X-192826Y436781D02*
X-192825Y414781D01*
X-142825Y414781D01*
X-142825Y436781D01*
X-192826Y436781D01*
G54D10*
X-192826Y297880D02*
X-170825Y297881D01*
X-170825Y347880D01*
X-192825Y347881D01*
X-192826Y297880D01*
G54D10*
X-164826Y297880D02*
X-142825Y297881D01*
X-142825Y347880D01*
X-164825Y347881D01*
X-164826Y297880D01*
G54D10*
X-252576Y319881D02*
X-252575Y297881D01*
X-202575Y297881D01*
X-202575Y319881D01*
X-252576Y319881D01*
G54D12*
X-213387Y286331D02*
X-218053Y290998D01*
X-218053Y278553D01*
G54D12*
X-228942Y288664D02*
X-228942Y280886D01*
X-228009Y279331D01*
X-226142Y278553D01*
X-224276Y278553D01*
X-222409Y279331D01*
X-221476Y280886D01*
X-221476Y288664D01*
X-222409Y290220D01*
X-224276Y290998D01*
X-226142Y290998D01*
X-228009Y290220D01*
X-228942Y288664D01*
G54D12*
X-232365Y278553D02*
X-232365Y290998D01*
G54D12*
X-232365Y282442D02*
X-239831Y290998D01*
G54D12*
X-235165Y284776D02*
X-239831Y278553D01*
G54D12*
X-157353Y280141D02*
X-149887Y280141D01*
X-149887Y280918D01*
X-150820Y282474D01*
X-156420Y287141D01*
X-157353Y288696D01*
X-157353Y290252D01*
X-156420Y291807D01*
X-154553Y292585D01*
X-152687Y292585D01*
X-150820Y291807D01*
X-149887Y290252D01*
G54D12*
X-160776Y287141D02*
X-168242Y280141D01*
G54D12*
X-160776Y280141D02*
X-168242Y287141D01*
G54D12*
X-179131Y280141D02*
X-171665Y280141D01*
X-171665Y280918D01*
X-172598Y282474D01*
X-178198Y287141D01*
X-179131Y288696D01*
X-179131Y290252D01*
X-178198Y291807D01*
X-176331Y292585D01*
X-174465Y292585D01*
X-172598Y291807D01*
X-171665Y290252D01*
G54D12*
X-190020Y290252D02*
X-190020Y282474D01*
X-189087Y280918D01*
X-187220Y280141D01*
X-185354Y280141D01*
X-183487Y280918D01*
X-182554Y282474D01*
X-182554Y290252D01*
X-183487Y291807D01*
X-185354Y292585D01*
X-187220Y292585D01*
X-189087Y291807D01*
X-190020Y290252D01*
G54D12*
X-91149Y457147D02*
X-98616Y457147D01*
G54D12*
X-94883Y457147D02*
X-94883Y469591D01*
G54D12*
X-91149Y469591D02*
X-98616Y469591D01*
G54D12*
X-105772Y463369D02*
X-108572Y461814D01*
X-109505Y460258D01*
X-109505Y457147D01*
G54D12*
X-102038Y457147D02*
X-102038Y469591D01*
X-106705Y469591D01*
X-108572Y468814D01*
X-109505Y467258D01*
X-109505Y465702D01*
X-108572Y464147D01*
X-106705Y463369D01*
X-102038Y463369D01*
G54D12*
X-112927Y469591D02*
X-112927Y457147D01*
X-119461Y457147D01*
G54D12*
X-122882Y457147D02*
X-122882Y469591D01*
X-127549Y461814D01*
X-132216Y469591D01*
X-132216Y457147D01*
G54D12*
X-135637Y469591D02*
X-135637Y457147D01*
X-142170Y457147D01*
G54D12*
X-153059Y467258D02*
X-152126Y468814D01*
X-150259Y469591D01*
X-148392Y469591D01*
X-146526Y468814D01*
X-145592Y467258D01*
X-145592Y463369D01*
X-145592Y462591D01*
X-148392Y464147D01*
X-150259Y464147D01*
X-152126Y463369D01*
X-153059Y461814D01*
X-153059Y459480D01*
X-152126Y457925D01*
X-150259Y457147D01*
X-148392Y457147D01*
X-146526Y457925D01*
X-145592Y459480D01*
X-145592Y463369D01*
G54D12*
X-156481Y467258D02*
X-157414Y468814D01*
X-159281Y469591D01*
X-161148Y469591D01*
X-163014Y468814D01*
X-163948Y467258D01*
X-163948Y465702D01*
X-163014Y464147D01*
X-161148Y463369D01*
X-163014Y462591D01*
X-163948Y461036D01*
X-163948Y459480D01*
X-163014Y457925D01*
X-161148Y457147D01*
X-159281Y457147D01*
X-157414Y457925D01*
X-156481Y459480D01*
G54D12*
X-172970Y457147D02*
X-172970Y469591D01*
X-167370Y461814D01*
X-167370Y460258D01*
X-174837Y460258D01*
G54D12*
X-185726Y467258D02*
X-184792Y468814D01*
X-182926Y469591D01*
X-181059Y469591D01*
X-179192Y468814D01*
X-178259Y467258D01*
X-178259Y463369D01*
X-178259Y462591D01*
X-181059Y464147D01*
X-182926Y464147D01*
X-184792Y463369D01*
X-185726Y461814D01*
X-185726Y459480D01*
X-184792Y457925D01*
X-182926Y457147D01*
X-181059Y457147D01*
X-179192Y457925D01*
X-178259Y459480D01*
X-178259Y463369D01*
G54D12*
X-141478Y364278D02*
X-134012Y364278D01*
X-134012Y365056D01*
X-134945Y366612D01*
X-140545Y371278D01*
X-141478Y372834D01*
X-141478Y374389D01*
X-140545Y375945D01*
X-138678Y376723D01*
X-136812Y376723D01*
X-134945Y375945D01*
X-134012Y374389D01*
G54D12*
X-144901Y371278D02*
X-152367Y364278D01*
G54D12*
X-144901Y364278D02*
X-152367Y371278D01*
G54D12*
X-155790Y372056D02*
X-160456Y376723D01*
X-160456Y364278D01*
G54D12*
X-171345Y374389D02*
X-171345Y366612D01*
X-170412Y365056D01*
X-168545Y364278D01*
X-166679Y364278D01*
X-164812Y365056D01*
X-163879Y366612D01*
X-163879Y374389D01*
X-164812Y375945D01*
X-166679Y376723D01*
X-168545Y376723D01*
X-170412Y375945D01*
X-171345Y374389D01*
G54D12*
X-180368Y371278D02*
X-180368Y364278D01*
G54D12*
X-180368Y365834D02*
X-179434Y364589D01*
X-177568Y364278D01*
X-175701Y364589D01*
X-174768Y365834D01*
X-174768Y371278D01*
G54D12*
X-183790Y364278D02*
X-183790Y376723D01*
X-190323Y376723D01*
G54D12*
X-183790Y370500D02*
X-190323Y370500D01*
G54D10*
X-265697Y35264D02*
X-243697Y35264D01*
X-243697Y85264D01*
X-265697Y85264D01*
X-265697Y35264D01*
G54D12*
X-256069Y119066D02*
X-260736Y114399D01*
X-248291Y114399D01*
G54D12*
X-258402Y103510D02*
X-250624Y103510D01*
X-249069Y104443D01*
X-248291Y106310D01*
X-248291Y108176D01*
X-249069Y110043D01*
X-250624Y110977D01*
X-258402Y110977D01*
X-259958Y110043D01*
X-260736Y108176D01*
X-260736Y106310D01*
X-259958Y104443D01*
X-258402Y103510D01*
G54D12*
X-248291Y100088D02*
X-260736Y100088D01*
G54D12*
X-252180Y100088D02*
X-260736Y92621D01*
G54D12*
X-254513Y97288D02*
X-248291Y92621D01*
G54D10*
X-28297Y-4436D02*
X-28298Y17564D01*
X-78298Y17564D01*
X-78298Y-4436D01*
X-28297Y-4436D01*
G54D10*
X-110041Y304188D02*
X-110041Y282188D01*
X-60041Y282188D01*
X-60041Y304188D01*
X-110041Y304188D01*
G54D10*
X-110041Y335938D02*
X-110041Y313938D01*
X-60041Y313938D01*
X-60041Y335938D01*
X-110041Y335938D01*
G54D12*
X-41178Y325027D02*
X-41178Y332494D01*
X-41956Y332494D01*
X-43512Y331560D01*
X-48178Y325960D01*
X-49734Y325027D01*
X-51289Y325027D01*
X-52845Y325960D01*
X-53623Y327827D01*
X-53623Y329694D01*
X-52845Y331560D01*
X-51289Y332494D01*
G54D12*
X-48178Y321605D02*
X-41178Y314138D01*
G54D12*
X-41178Y321605D02*
X-48178Y314138D01*
G54D12*
X-48956Y310716D02*
X-53623Y306049D01*
X-41178Y306049D01*
G54D12*
X-51289Y295160D02*
X-43512Y295160D01*
X-41956Y296094D01*
X-41178Y297960D01*
X-41178Y299827D01*
X-41956Y301694D01*
X-43512Y302627D01*
X-51289Y302627D01*
X-52845Y301694D01*
X-53623Y299827D01*
X-53623Y297960D01*
X-52845Y296094D01*
X-51289Y295160D01*
G54D12*
X-41178Y291738D02*
X-53623Y291738D01*
G54D12*
X-45067Y291738D02*
X-53623Y284271D01*
G54D12*
X-47400Y288938D02*
X-41178Y284271D01*
G54D12*
X-28533Y30531D02*
X-33200Y35198D01*
X-33200Y22754D01*
G54D12*
X-44089Y32865D02*
X-44089Y25087D01*
X-43155Y23531D01*
X-41289Y22754D01*
X-39422Y22754D01*
X-37555Y23532D01*
X-36622Y25087D01*
X-36622Y32865D01*
X-37555Y34420D01*
X-39422Y35198D01*
X-41289Y35198D01*
X-43155Y34420D01*
X-44089Y32865D01*
G54D12*
X-47511Y22754D02*
X-47511Y35198D01*
G54D12*
X-47511Y26642D02*
X-54978Y35198D01*
G54D12*
X-50311Y28976D02*
X-54978Y22754D01*
G54D10*
X-196796Y-50389D02*
X-196796Y-85389D01*
X-261797Y-85388D01*
X-261797Y-50388D01*
X-196796Y-50389D01*
G54D10*
X-165506Y9640D02*
X-165506Y-12360D01*
X-115506Y-12360D01*
X-115506Y9640D01*
X-165506Y9640D01*
G54D10*
X-211546Y-163688D02*
X-211547Y-133688D01*
X-274246Y-133688D01*
X-274247Y-163688D01*
X-211546Y-163688D01*
G54D12*
X-204067Y-154078D02*
X-204067Y-146611D01*
G54D12*
X-200956Y-150344D02*
X-207178Y-150344D01*
G54D10*
X-50298Y-130861D02*
X-28298Y-130860D01*
X-28298Y-80860D01*
X-50297Y-80860D01*
X-50298Y-130861D01*
G54D10*
X-78873Y-130860D02*
X-56872Y-130860D01*
X-56872Y-80860D01*
X-78873Y-80860D01*
X-78873Y-130860D01*
G54D10*
X-78476Y-137832D02*
X-78476Y-159832D01*
X-28476Y-159832D01*
X-28476Y-137832D01*
X-78476Y-137832D01*
G54D12*
X-224285Y-119414D02*
X-228951Y-114748D01*
X-228951Y-127192D01*
G54D12*
X-239840Y-117081D02*
X-239840Y-124859D01*
X-238907Y-126414D01*
X-237040Y-127192D01*
X-235174Y-127192D01*
X-233307Y-126414D01*
X-232374Y-124858D01*
X-232374Y-117081D01*
X-233307Y-115525D01*
X-235174Y-114748D01*
X-237040Y-114748D01*
X-238907Y-115525D01*
X-239840Y-117081D01*
G54D12*
X-250729Y-117081D02*
X-250729Y-124859D01*
X-249796Y-126414D01*
X-247929Y-127192D01*
X-246063Y-127192D01*
X-244196Y-126414D01*
X-243263Y-124859D01*
X-243263Y-117081D01*
X-244196Y-115525D01*
X-246063Y-114748D01*
X-247929Y-114747D01*
X-249796Y-115526D01*
X-250729Y-117081D01*
G54D12*
X-259752Y-120192D02*
X-259752Y-127192D01*
G54D12*
X-259752Y-125636D02*
X-258818Y-126881D01*
X-256952Y-127192D01*
X-255085Y-126881D01*
X-254152Y-125636D01*
X-254152Y-120192D01*
G54D12*
X-263174Y-127192D02*
X-263174Y-114748D01*
X-269707Y-114748D01*
G54D12*
X-263174Y-120970D02*
X-269707Y-120970D01*
G54D12*
X-222698Y-211489D02*
X-227364Y-206822D01*
X-227364Y-219267D01*
G54D12*
X-238253Y-209156D02*
X-238253Y-216934D01*
X-237320Y-218489D01*
X-235453Y-219267D01*
X-233587Y-219267D01*
X-231720Y-218489D01*
X-230787Y-216934D01*
X-230787Y-209156D01*
X-231720Y-207600D01*
X-233587Y-206822D01*
X-235453Y-206822D01*
X-237320Y-207600D01*
X-238253Y-209156D01*
G54D12*
X-247276Y-212267D02*
X-247276Y-219267D01*
G54D12*
X-247276Y-217712D02*
X-246342Y-218956D01*
X-244476Y-219267D01*
X-242609Y-218956D01*
X-241676Y-217712D01*
X-241676Y-212267D01*
G54D12*
X-250698Y-219267D02*
X-250698Y-206822D01*
X-257231Y-206822D01*
G54D12*
X-250698Y-213045D02*
X-257231Y-213045D01*
G54D12*
X-202123Y-54135D02*
X-202123Y-66579D01*
X-208656Y-66579D01*
G54D12*
X-212078Y-66579D02*
X-212078Y-54135D01*
X-216745Y-61912D01*
X-221411Y-54135D01*
X-221411Y-66579D01*
G54D12*
X-224833Y-58802D02*
X-229500Y-54135D01*
X-229500Y-66579D01*
G54D12*
X-232922Y-58802D02*
X-237589Y-54135D01*
X-237589Y-66579D01*
G54D12*
X-241011Y-58802D02*
X-245678Y-54135D01*
X-245678Y-66579D01*
G54D12*
X-249100Y-54135D02*
X-256567Y-54135D01*
X-255633Y-55690D01*
X-253767Y-58024D01*
X-251900Y-61135D01*
X-250967Y-63468D01*
X-250967Y-66579D01*
G54D12*
X-212006Y-72631D02*
X-212939Y-71075D01*
X-214806Y-70298D01*
X-216673Y-70298D01*
X-218539Y-71075D01*
X-219473Y-72631D01*
X-219473Y-74186D01*
X-218539Y-75742D01*
X-216673Y-76520D01*
X-218539Y-77298D01*
X-219473Y-78853D01*
X-219473Y-80409D01*
X-218539Y-81964D01*
X-216673Y-82742D01*
X-214806Y-82742D01*
X-212939Y-81964D01*
X-212006Y-80409D01*
G54D12*
X-222895Y-82742D02*
X-222895Y-82742D01*
G54D12*
X-226317Y-72631D02*
X-227250Y-71075D01*
X-229117Y-70298D01*
X-230984Y-70298D01*
X-232850Y-71075D01*
X-233784Y-72631D01*
X-233784Y-74186D01*
X-232850Y-75742D01*
X-230984Y-76520D01*
X-232850Y-77298D01*
X-233784Y-78853D01*
X-233784Y-80409D01*
X-232850Y-81964D01*
X-230984Y-82742D01*
X-229117Y-82742D01*
X-227250Y-81964D01*
X-226317Y-80409D01*
G54D12*
X-237206Y-70298D02*
X-241873Y-82742D01*
X-246539Y-70298D01*
G54D10*
X-50784Y-219890D02*
X-50784Y-262890D01*
X-152684Y-262890D01*
X-152684Y-219890D01*
X-50784Y-219890D01*
G54D10*
X-50784Y-224890D02*
X-50784Y-257890D01*
X-55784Y-257890D01*
X-55784Y-224890D01*
X-50784Y-224890D01*
G54D12*
X-126958Y-23444D02*
X-131625Y-18777D01*
X-131625Y-31222D01*
G54D12*
X-142514Y-21111D02*
X-142514Y-28888D01*
X-141580Y-30444D01*
X-139714Y-31222D01*
X-137847Y-31222D01*
X-135980Y-30444D01*
X-135047Y-28888D01*
X-135047Y-21111D01*
X-135980Y-19555D01*
X-137847Y-18777D01*
X-139714Y-18777D01*
X-141580Y-19555D01*
X-142514Y-21111D01*
G54D12*
X-145936Y-31222D02*
X-145936Y-18777D01*
G54D12*
X-145936Y-27333D02*
X-153403Y-18777D01*
G54D12*
X-148736Y-25000D02*
X-153403Y-31222D01*
G54D10*
X-162732Y-259791D02*
X-193720Y-259791D01*
X-193736Y-221991D01*
X-162732Y-221991D01*
X-162732Y-259756D01*
G54D12*
X-159198Y-203552D02*
X-163864Y-198885D01*
X-163864Y-211330D01*
G54D12*
X-174753Y-211330D02*
X-167287Y-211330D01*
X-167287Y-210552D01*
X-168220Y-208996D01*
X-173820Y-204330D01*
X-174753Y-202774D01*
X-174753Y-201218D01*
X-173820Y-199663D01*
X-171953Y-198885D01*
X-170087Y-198885D01*
X-168220Y-199663D01*
X-167287Y-201218D01*
G54D12*
X-178176Y-211330D02*
X-178176Y-198885D01*
X-182842Y-206663D01*
X-187509Y-198885D01*
X-187509Y-211330D01*
G54D12*
X-190931Y-211330D02*
X-190931Y-198885D01*
G54D12*
X-198397Y-211330D02*
X-198397Y-198885D01*
G54D12*
X-190931Y-205107D02*
X-198397Y-205107D01*
G54D12*
X-201820Y-204330D02*
X-207420Y-204330D01*
X-201820Y-211330D01*
X-207420Y-211330D01*
G54D10*
X-254797Y-226588D02*
X-254797Y-248588D01*
X-204797Y-248588D01*
X-204797Y-226588D01*
X-254797Y-226588D01*
G54D12*
X-262160Y-231138D02*
X-262160Y-223671D01*
X-262938Y-223671D01*
X-264494Y-224604D01*
X-269160Y-230204D01*
X-270716Y-231138D01*
X-272272Y-231138D01*
X-273827Y-230204D01*
X-274605Y-228338D01*
X-274605Y-226471D01*
X-273827Y-224604D01*
X-272272Y-223671D01*
G54D12*
X-269160Y-234560D02*
X-262160Y-242027D01*
G54D12*
X-262160Y-234560D02*
X-269160Y-242027D01*
G54D12*
X-262160Y-252916D02*
X-262160Y-245449D01*
X-262938Y-245449D01*
X-264494Y-246382D01*
X-269160Y-251982D01*
X-270716Y-252916D01*
X-272272Y-252916D01*
X-273827Y-251982D01*
X-274605Y-250116D01*
X-274605Y-248249D01*
X-273827Y-246382D01*
X-272272Y-245449D01*
G54D12*
X-262160Y-263805D02*
X-262160Y-256338D01*
X-262938Y-256338D01*
X-264494Y-257271D01*
X-269160Y-262871D01*
X-270716Y-263805D01*
X-272272Y-263805D01*
X-273827Y-262871D01*
X-274605Y-261005D01*
X-274605Y-259138D01*
X-273827Y-257272D01*
X-272272Y-256338D01*
G54D12*
X-269160Y-267227D02*
X-259049Y-267227D01*
G54D12*
X-264494Y-267227D02*
X-262472Y-268160D01*
X-262160Y-270027D01*
X-262472Y-271894D01*
X-264027Y-272827D01*
X-267138Y-272827D01*
X-268694Y-271894D01*
X-269160Y-270027D01*
X-268694Y-268160D01*
X-266827Y-267227D01*
G54D12*
X-262160Y-276249D02*
X-274605Y-276249D01*
X-274605Y-282782D01*
G54D12*
X-268383Y-276249D02*
X-268383Y-282782D01*
G54D12*
X-32277Y-219718D02*
X-30722Y-218785D01*
X-29944Y-216918D01*
X-29944Y-215052D01*
X-30721Y-213185D01*
X-32277Y-212252D01*
X-40055Y-212252D01*
X-41610Y-213185D01*
X-42388Y-215052D01*
X-42388Y-216918D01*
X-41610Y-218785D01*
X-40055Y-219718D01*
G54D12*
X-29944Y-223141D02*
X-42388Y-223141D01*
G54D12*
X-29944Y-230607D02*
X-42388Y-230607D01*
G54D12*
X-36166Y-223141D02*
X-36166Y-230607D01*
G54D12*
X-40055Y-234030D02*
X-41610Y-234963D01*
X-42388Y-236830D01*
X-42388Y-238696D01*
X-41610Y-240563D01*
X-40055Y-241496D01*
X-38499Y-241496D01*
X-36944Y-240563D01*
X-36166Y-238696D01*
X-35388Y-240563D01*
X-33833Y-241496D01*
X-32277Y-241496D01*
X-30722Y-240563D01*
X-29944Y-238696D01*
X-29944Y-236830D01*
X-30721Y-234963D01*
X-32277Y-234030D01*
G54D12*
X-29944Y-250519D02*
X-42388Y-250519D01*
X-34610Y-244919D01*
X-33055Y-244919D01*
X-33055Y-252385D01*
G54D12*
X-40055Y-263274D02*
X-32277Y-263274D01*
X-30722Y-262341D01*
X-29944Y-260474D01*
X-29944Y-258608D01*
X-30721Y-256741D01*
X-32277Y-255808D01*
X-40055Y-255808D01*
X-41610Y-256741D01*
X-42388Y-258608D01*
X-42388Y-260474D01*
X-41610Y-262341D01*
X-40055Y-263274D01*
G54D12*
X-36166Y-270430D02*
X-36166Y-274163D01*
X-32277Y-274163D01*
X-30721Y-273230D01*
X-29944Y-271363D01*
X-29944Y-269497D01*
X-30722Y-267630D01*
X-32277Y-266697D01*
X-40055Y-266697D01*
X-41610Y-267630D01*
X-42388Y-269497D01*
X-42388Y-271363D01*
X-41610Y-273230D01*
X-40055Y-274163D01*
G54D12*
X-90858Y-24343D02*
X-103302Y-24343D01*
X-103302Y-29010D01*
X-102525Y-30876D01*
X-100969Y-31809D01*
X-99413Y-31809D01*
X-97858Y-30876D01*
X-97080Y-29010D01*
X-96302Y-30876D01*
X-94747Y-31810D01*
X-93191Y-31810D01*
X-91636Y-30876D01*
X-90858Y-29010D01*
X-90858Y-24343D01*
G54D12*
X-97080Y-24343D02*
X-97080Y-29010D01*
G54D12*
X-93191Y-42698D02*
X-91636Y-41765D01*
X-90858Y-39898D01*
X-90858Y-38032D01*
X-91636Y-36165D01*
X-93191Y-35232D01*
X-100969Y-35232D01*
X-102524Y-36165D01*
X-103302Y-38032D01*
X-103302Y-39898D01*
X-102524Y-41765D01*
X-100969Y-42698D01*
G54D12*
X-97080Y-50788D02*
X-97080Y-48921D01*
X-97858Y-47054D01*
X-99413Y-46121D01*
X-100969Y-46121D01*
X-102524Y-47054D01*
X-103302Y-48921D01*
X-103302Y-50788D01*
X-102525Y-52654D01*
X-100969Y-53587D01*
X-99413Y-53587D01*
X-97858Y-52654D01*
X-97080Y-50788D01*
X-96302Y-52654D01*
X-94747Y-53588D01*
X-93191Y-53588D01*
X-91636Y-52654D01*
X-90858Y-50788D01*
X-90858Y-48921D01*
X-91636Y-47054D01*
X-93191Y-46121D01*
X-94747Y-46121D01*
X-96302Y-47054D01*
X-97080Y-48921D01*
G54D12*
X-90858Y-62610D02*
X-103302Y-62610D01*
X-95524Y-57010D01*
X-93969Y-57010D01*
X-93969Y-64476D01*
G54D12*
X-103302Y-67899D02*
X-103302Y-75366D01*
X-101747Y-74432D01*
X-99413Y-72566D01*
X-96302Y-70699D01*
X-93969Y-69766D01*
X-90858Y-69766D01*
G54D12*
X-63107Y-185101D02*
X-63107Y-172657D01*
X-57507Y-180434D01*
X-57507Y-181990D01*
X-64973Y-181990D01*
G54D12*
X-68396Y-185101D02*
X-68396Y-185101D01*
G54D12*
X-71818Y-172657D02*
X-79284Y-172657D01*
X-78351Y-174212D01*
X-76484Y-176546D01*
X-74618Y-179657D01*
X-73684Y-181990D01*
X-73684Y-185101D01*
G54D12*
X-82707Y-185101D02*
X-82707Y-178101D01*
G54D12*
X-82707Y-179657D02*
X-83640Y-178568D01*
X-85507Y-178101D01*
X-87373Y-178568D01*
X-88307Y-179657D01*
X-88307Y-185101D01*
G54D12*
X-91729Y-185101D02*
X-91729Y-172657D01*
X-98262Y-172657D01*
G54D12*
X-91729Y-178879D02*
X-98262Y-178879D01*
G54D12*
X-33356Y-16603D02*
X-45801Y-16603D01*
X-38023Y-11003D01*
X-36467Y-11003D01*
X-36467Y-18470D01*
G54D12*
X-45801Y-21892D02*
X-45801Y-29359D01*
X-44245Y-28426D01*
X-41912Y-26559D01*
X-38801Y-24692D01*
X-36467Y-23759D01*
X-33356Y-23759D01*
G54D12*
X-43467Y-40248D02*
X-35690Y-40248D01*
X-34134Y-39315D01*
X-33356Y-37448D01*
X-33356Y-35581D01*
X-34134Y-33715D01*
X-35690Y-32781D01*
X-43467Y-32781D01*
X-45023Y-33715D01*
X-45801Y-35581D01*
X-45801Y-37448D01*
X-45023Y-39315D01*
X-43467Y-40248D01*
G54D12*
X-33356Y-43670D02*
X-45801Y-43670D01*
G54D12*
X-37245Y-43670D02*
X-45801Y-51137D01*
G54D12*
X-39578Y-46470D02*
X-33356Y-51137D01*
G54D12*
X-98511Y-90376D02*
X-103178Y-95043D01*
X-90734Y-95043D01*
G54D12*
X-100845Y-105932D02*
X-93067Y-105932D01*
X-91511Y-104998D01*
X-90734Y-103132D01*
X-90734Y-101265D01*
X-91511Y-99398D01*
X-93067Y-98465D01*
X-100845Y-98465D01*
X-102400Y-99398D01*
X-103178Y-101265D01*
X-103178Y-103132D01*
X-102400Y-104999D01*
X-100845Y-105932D01*
G54D12*
X-90734Y-109354D02*
X-103178Y-109354D01*
G54D12*
X-94622Y-109354D02*
X-103178Y-116821D01*
G54D12*
X-96956Y-112154D02*
X-90734Y-116821D01*
G54D12*
X-211049Y705591D02*
X-211049Y718035D01*
X-205449Y710257D01*
X-205449Y708702D01*
X-212916Y708702D01*
G54D12*
X-216338Y712591D02*
X-223805Y705591D01*
G54D12*
X-216338Y705591D02*
X-223805Y712591D01*
G54D12*
X-227227Y713368D02*
X-231894Y718035D01*
X-231894Y705591D01*
G54D12*
X-242783Y715702D02*
X-242783Y707924D01*
X-241850Y706368D01*
X-239983Y705591D01*
X-238116Y705591D01*
X-236250Y706368D01*
X-235316Y707924D01*
X-235316Y715702D01*
X-236250Y717257D01*
X-238116Y718035D01*
X-239983Y718035D01*
X-241850Y717257D01*
X-242783Y715702D01*
G54D12*
X-246205Y705591D02*
X-246205Y718035D01*
X-250872Y710257D01*
X-255539Y718035D01*
X-255539Y705591D01*
G54D10*
X-204785Y724713D02*
X-260347Y724725D01*
X-260347Y577112D01*
X-204785Y577076D01*
G54D13*
X-29374Y721857D02*
X-42707Y721857D01*
G54D13*
X-29374Y716523D02*
X-42707Y716523D01*
G54D13*
X-36041Y721857D02*
X-36041Y716523D01*
G54D13*
X-42707Y711857D02*
X-29374Y711857D01*
X-37707Y708523D01*
X-29374Y705190D01*
X-42707Y705190D01*
G54D13*
X-29374Y695723D02*
X-36874Y695723D01*
G54D13*
X-35207Y695723D02*
X-36874Y694389D01*
X-36874Y693056D01*
G54D13*
X-30207Y684389D02*
X-29374Y685455D01*
X-29374Y686789D01*
X-30207Y688122D01*
X-31874Y688389D01*
X-34707Y688389D01*
X-36374Y687722D01*
X-36874Y686389D01*
X-36374Y685055D01*
X-35207Y684389D01*
X-33541Y684389D01*
X-33541Y688389D01*
G54D13*
X-36874Y679722D02*
X-29374Y677055D01*
X-36874Y674388D01*
G54D13*
X-37707Y664922D02*
X-42707Y661588D01*
X-29374Y661588D01*
G54D13*
X-29374Y656922D02*
X-29374Y656922D01*
G54D13*
X-40207Y652255D02*
X-41874Y651588D01*
X-42707Y650255D01*
X-42707Y648921D01*
X-41874Y647588D01*
X-40207Y646921D01*
X-38541Y646921D01*
X-36874Y647588D01*
X-36041Y648921D01*
X-35207Y647588D01*
X-33541Y646921D01*
X-31874Y646921D01*
X-30207Y647588D01*
X-29374Y648921D01*
X-29374Y650255D01*
X-30207Y651588D01*
X-31874Y652255D01*
G54D13*
X-29374Y637455D02*
X-29374Y637455D01*
G54D13*
X-36874Y637455D02*
X-36874Y637455D01*
G54D13*
X-29374Y632788D02*
X-29374Y632788D01*
G54D13*
X-36874Y632788D02*
X-36874Y632788D01*
G54D13*
X-29374Y623321D02*
X-42707Y623321D01*
G54D13*
X-34707Y623321D02*
X-36374Y622654D01*
X-36874Y621321D01*
X-36374Y619987D01*
X-34707Y619321D01*
X-29374Y619321D01*
G54D13*
X-42707Y613320D02*
X-30207Y613320D01*
X-29374Y612654D01*
X-29707Y611987D01*
G54D13*
X-36874Y614654D02*
X-36874Y611987D01*
G54D13*
X-42707Y605986D02*
X-30207Y605986D01*
X-29374Y605320D01*
X-29707Y604653D01*
G54D13*
X-36874Y607320D02*
X-36874Y604653D01*
G54D13*
X-36874Y599986D02*
X-26041Y599986D01*
G54D13*
X-31874Y599986D02*
X-29707Y599319D01*
X-29374Y597986D01*
X-29707Y596652D01*
X-31374Y595986D01*
X-34707Y595986D01*
X-36374Y596652D01*
X-36874Y597986D01*
X-36374Y599319D01*
X-34374Y599986D01*
G54D13*
X-30207Y591319D02*
X-29374Y589985D01*
X-29374Y588652D01*
X-30207Y587319D01*
X-31874Y587319D01*
X-32707Y587985D01*
X-33541Y590652D01*
X-34374Y591319D01*
X-36041Y591319D01*
X-36874Y589985D01*
X-36874Y588652D01*
X-36041Y587319D01*
G54D13*
X-29374Y582652D02*
X-29374Y582652D01*
G54D13*
X-36874Y582652D02*
X-36874Y582652D01*
G54D13*
X-29374Y577985D02*
X-42707Y572651D01*
G54D13*
X-29374Y567985D02*
X-42707Y562651D01*
G54D13*
X-29374Y557985D02*
X-36874Y557985D01*
G54D13*
X-39374Y557985D02*
X-39374Y557985D01*
G54D13*
X-31374Y549318D02*
X-34707Y549318D01*
X-36374Y549984D01*
X-36874Y551318D01*
X-36374Y552651D01*
X-34707Y553318D01*
X-31374Y553318D01*
X-29707Y552651D01*
X-29374Y551318D01*
X-29707Y549984D01*
X-31374Y549318D01*
G54D13*
X-35207Y544651D02*
X-35207Y539317D01*
G54D13*
X-29374Y534651D02*
X-36874Y534651D01*
G54D13*
X-35207Y534651D02*
X-36374Y533984D01*
X-36874Y532651D01*
X-36374Y531317D01*
X-35207Y530651D01*
X-29374Y530651D01*
G54D13*
X-30207Y521984D02*
X-29374Y523050D01*
X-29374Y524384D01*
X-30207Y525717D01*
X-31874Y525984D01*
X-34707Y525984D01*
X-36374Y525317D01*
X-36874Y523984D01*
X-36374Y522650D01*
X-35207Y521984D01*
X-33541Y521984D01*
X-33541Y525984D01*
G54D13*
X-42707Y515983D02*
X-30207Y515983D01*
X-29374Y515317D01*
X-29707Y514650D01*
G54D13*
X-36874Y517317D02*
X-36874Y514650D01*
G54D13*
X-29374Y509983D02*
X-29374Y509983D01*
G54D13*
X-29374Y505316D02*
X-36874Y505316D01*
G54D13*
X-35207Y505316D02*
X-36874Y503982D01*
X-36874Y502649D01*
G54D13*
X-36874Y493982D02*
X-29374Y493982D01*
G54D13*
X-31041Y493982D02*
X-29707Y494648D01*
X-29374Y495982D01*
X-29707Y497315D01*
X-31041Y497982D01*
X-36874Y497982D01*
G54D14*
X-54435Y711539D02*
X-54435Y721339D01*
X-73102Y721339D01*
X-73102Y711539D01*
G54D14*
X-63768Y721339D02*
X-63768Y711539D01*
G54D14*
X-57935Y705006D02*
X-55602Y703606D01*
X-54435Y700806D01*
X-54435Y698006D01*
X-55602Y695206D01*
X-57935Y693806D01*
X-60268Y693806D01*
X-62602Y695206D01*
X-63768Y698006D01*
X-63768Y700806D01*
X-64935Y703606D01*
X-67268Y705006D01*
X-69602Y705006D01*
X-71935Y703606D01*
X-73102Y700806D01*
X-73102Y698006D01*
X-71935Y695206D01*
X-69602Y693806D01*
G54D14*
X-54435Y687273D02*
X-73102Y687273D01*
X-73102Y680273D01*
X-71935Y677473D01*
X-69602Y676073D01*
X-67268Y676073D01*
X-64935Y677473D01*
X-63768Y680273D01*
X-63768Y687273D01*
G54D14*
X-63768Y657127D02*
X-61435Y652927D01*
X-59102Y651527D01*
X-54435Y651527D01*
G54D14*
X-54435Y662727D02*
X-73102Y662727D01*
X-73102Y655727D01*
X-71935Y652927D01*
X-69602Y651527D01*
X-67268Y651527D01*
X-64935Y652927D01*
X-63768Y655727D01*
X-63768Y662727D01*
G54D14*
X-63768Y644994D02*
X-64935Y642194D01*
X-64935Y638834D01*
X-62602Y636594D01*
X-54435Y636594D01*
G54D14*
X-57935Y636594D02*
X-60268Y637994D01*
X-60735Y640794D01*
X-60268Y643594D01*
X-57935Y644994D01*
X-55602Y644434D01*
X-54435Y642194D01*
X-54435Y640794D01*
X-54435Y640234D01*
X-55602Y637994D01*
X-57935Y636594D01*
G54D14*
X-54435Y621661D02*
X-73102Y621661D01*
G54D14*
X-61902Y621661D02*
X-64235Y623061D01*
X-64935Y625861D01*
X-64235Y628661D01*
X-61902Y630061D01*
X-57235Y630061D01*
X-54902Y628661D01*
X-54435Y625861D01*
X-54902Y623061D01*
X-57235Y621661D01*
G54D14*
X-54435Y615128D02*
X-64935Y615128D01*
G54D14*
X-68435Y615128D02*
X-68435Y615128D01*
G54D14*
X-63768Y608595D02*
X-64935Y605795D01*
X-64935Y602435D01*
X-62602Y600195D01*
X-54435Y600195D01*
G54D14*
X-57935Y600195D02*
X-60268Y601595D01*
X-60735Y604395D01*
X-60268Y607195D01*
X-57935Y608595D01*
X-55602Y608035D01*
X-54435Y605795D01*
X-54435Y604395D01*
X-54435Y603835D01*
X-55602Y601595D01*
X-57935Y600195D01*
G54D14*
X-73102Y590862D02*
X-55602Y590862D01*
X-54435Y589462D01*
X-54902Y588062D01*
G54D14*
X-64935Y593662D02*
X-64935Y588062D01*
G54D14*
X-54435Y581529D02*
X-64935Y581529D01*
G54D14*
X-68435Y581529D02*
X-68435Y581529D01*
G54D14*
X-57235Y566596D02*
X-61902Y566596D01*
X-64235Y567996D01*
X-64935Y570796D01*
X-64235Y573596D01*
X-61902Y574996D01*
X-57235Y574996D01*
X-54902Y573596D01*
X-54435Y570796D01*
X-54902Y567996D01*
X-57235Y566596D01*
G54D14*
X-54435Y560063D02*
X-64935Y560063D01*
G54D14*
X-62602Y560063D02*
X-64235Y558663D01*
X-64935Y555863D01*
X-64235Y553063D01*
X-62602Y551663D01*
X-54435Y551663D01*
G54D14*
X-54435Y538317D02*
X-73102Y538317D01*
X-61435Y531317D01*
X-73102Y524317D01*
X-54435Y524317D01*
G54D14*
X-55602Y509384D02*
X-54435Y511624D01*
X-54435Y514424D01*
X-55602Y517224D01*
X-57935Y517784D01*
X-61902Y517784D01*
X-64235Y516384D01*
X-64935Y513584D01*
X-64235Y510784D01*
X-62602Y509384D01*
X-60268Y509384D01*
X-60268Y517784D01*
G54D14*
X-73102Y500051D02*
X-55602Y500051D01*
X-54435Y498651D01*
X-54902Y497251D01*
G54D14*
X-64935Y502851D02*
X-64935Y497251D01*
G54D14*
X-55602Y482318D02*
X-54435Y484558D01*
X-54435Y487358D01*
X-55602Y490158D01*
X-57935Y490718D01*
X-61902Y490718D01*
X-64235Y489318D01*
X-64935Y486518D01*
X-64235Y483718D01*
X-62602Y482318D01*
X-60268Y482318D01*
X-60268Y490718D01*
G54D14*
X-54435Y475785D02*
X-64935Y475785D01*
G54D14*
X-62602Y475785D02*
X-64935Y472985D01*
X-64935Y470185D01*
G54D10*
X-171043Y-326469D02*
X-187893Y-326469D01*
X-187893Y-341494D01*
G54D10*
X-113893Y-369331D02*
X-113893Y-376419D01*
G54D10*
X-113893Y-341494D02*
X-113893Y-326469D01*
X-130743Y-326469D01*
G54D10*
X-211546Y-201788D02*
X-211547Y-171788D01*
X-274246Y-171788D01*
X-274247Y-201788D01*
X-211546Y-201788D01*
G54D12*
X-204067Y-192178D02*
X-204067Y-184711D01*
G54D12*
X-200956Y-188444D02*
X-207178Y-188444D01*
G54D10*
X-254797Y-258338D02*
X-254797Y-280338D01*
X-204797Y-280338D01*
X-204797Y-258338D01*
X-254797Y-258338D01*
G54D10*
X-195086Y-171019D02*
X-85091Y-171042D01*
X-85091Y971654D01*
X-195086Y971676D01*
X-195086Y-171019D01*
G54D10*
X-87358Y485693D02*
X-80074Y485692D01*
X-80104Y635694D01*
X-87388Y635695D01*
G54D10*
X-130095Y635695D02*
X-150079Y635696D01*
G54D10*
X-192787Y485692D02*
X-200071Y485693D01*
X-200101Y635695D01*
X-192816Y635694D01*
G54D10*
X-130096Y485693D02*
X-150080Y485695D01*
G54D10*
X-250375Y433738D02*
X-250375Y381738D01*
G54D10*
G75*
G01X-222788Y397738D02*
G03X-222788Y397738I0J10000D01*
G01*
G54D10*
X-231325Y433738D02*
X-214250Y433738D01*
G54D10*
X-195200Y433738D02*
X-195200Y381738D01*
G54D10*
X-214250Y381738D02*
X-231325Y381738D01*
G54D10*
X-84872Y433733D02*
X-84872Y381733D01*
G54D10*
G75*
G01X-57284Y397733D02*
G03X-57284Y397733I0J10000D01*
G01*
G54D10*
X-65822Y433733D02*
X-48747Y433733D01*
G54D10*
X-29697Y433733D02*
X-29697Y381733D01*
G54D10*
X-48747Y381733D02*
X-65822Y381733D01*
G54D10*
X-59731Y271754D02*
X-219731Y271754D01*
G54D12*
X-104887Y140095D02*
X-98354Y140095D01*
X-98354Y152539D01*
X-104887Y152539D01*
G54D12*
X-98354Y146317D02*
X-104887Y146317D01*
G54D12*
X-108308Y142428D02*
X-109242Y140872D01*
X-111108Y140095D01*
X-112975Y140095D01*
X-114842Y140872D01*
X-115775Y142428D01*
X-115775Y143984D01*
X-114842Y145539D01*
X-112975Y146317D01*
X-111108Y146317D01*
X-109242Y147095D01*
X-108308Y148650D01*
X-108308Y150206D01*
X-109242Y151761D01*
X-111108Y152539D01*
X-112975Y152539D01*
X-114842Y151761D01*
X-115775Y150206D01*
G54D12*
X-119198Y140095D02*
X-119198Y152539D01*
X-123864Y152539D01*
X-125731Y151761D01*
X-126664Y150206D01*
X-126664Y148650D01*
X-125731Y147095D01*
X-123864Y146317D01*
X-119198Y146317D01*
G54D12*
X-130086Y145539D02*
X-137553Y145539D01*
G54D12*
X-145642Y146317D02*
X-143776Y146317D01*
X-141909Y147095D01*
X-140976Y148650D01*
X-140976Y150206D01*
X-141909Y151761D01*
X-143776Y152539D01*
X-145642Y152539D01*
X-147509Y151761D01*
X-148442Y150206D01*
X-148442Y148650D01*
X-147509Y147095D01*
X-145642Y146317D01*
X-147509Y145539D01*
X-148442Y143984D01*
X-148442Y142428D01*
X-147509Y140872D01*
X-145642Y140095D01*
X-143776Y140095D01*
X-141909Y140872D01*
X-140976Y142428D01*
X-140976Y143984D01*
X-141909Y145539D01*
X-143776Y146317D01*
G54D12*
X-159331Y140095D02*
X-151864Y140095D01*
X-151864Y140872D01*
X-152798Y142428D01*
X-158398Y147095D01*
X-159331Y148650D01*
X-159331Y150206D01*
X-158398Y151761D01*
X-156531Y152539D01*
X-154664Y152539D01*
X-152798Y151761D01*
X-151864Y150206D01*
G54D12*
X-170220Y150206D02*
X-169287Y151761D01*
X-167420Y152539D01*
X-165554Y152539D01*
X-163687Y151761D01*
X-162754Y150206D01*
X-162754Y146317D01*
X-162754Y145539D01*
X-165554Y147095D01*
X-167420Y147095D01*
X-169287Y146317D01*
X-170220Y144761D01*
X-170220Y142428D01*
X-169287Y140872D01*
X-167420Y140095D01*
X-165554Y140095D01*
X-163687Y140872D01*
X-162754Y142428D01*
X-162754Y146317D01*
G54D12*
X-181109Y150206D02*
X-180176Y151761D01*
X-178309Y152539D01*
X-176442Y152539D01*
X-174576Y151761D01*
X-173642Y150206D01*
X-173642Y146317D01*
X-173642Y145539D01*
X-176442Y147095D01*
X-178309Y147095D01*
X-180176Y146317D01*
X-181109Y144761D01*
X-181109Y142428D01*
X-180176Y140872D01*
X-178309Y140095D01*
X-176442Y140095D01*
X-174576Y140872D01*
X-173642Y142428D01*
X-173642Y146317D01*
G54D10*
X-59731Y271754D02*
X-59456Y198438D01*
G54D10*
X-79018Y31750D02*
X-60243Y31754D01*
X-60245Y34908D01*
G54D10*
X-201255Y31750D02*
X-220030Y31754D01*
X-220028Y34908D01*
G54D10*
X-219731Y271754D02*
X-219456Y198438D01*
G54D10*
X-111538Y430481D02*
X-105138Y430481D01*
G54D10*
X-92438Y430481D02*
X-92438Y443181D01*
X-102013Y443181D01*
G54D10*
X-124238Y430481D02*
X-124238Y443181D01*
X-114663Y443181D01*
G54D10*
X-69381Y-56960D02*
X-62981Y-56960D01*
G54D10*
X-50281Y-56960D02*
X-50281Y-44260D01*
X-59856Y-44260D01*
G54D10*
X-82081Y-56960D02*
X-82081Y-44260D01*
X-72506Y-44260D01*
G54D10*
X-187893Y-369331D02*
X-187893Y-376419D01*
G54D10*
X-267388Y28855D02*
X-267388Y6855D01*
X-217388Y6855D01*
X-217388Y28855D01*
X-267388Y28855D01*
G54D12*
X-219432Y-2698D02*
X-224098Y1968D01*
X-224098Y-10476D01*
G54D12*
X-234987Y-365D02*
X-234987Y-8143D01*
X-234054Y-9698D01*
X-232187Y-10476D01*
X-230321Y-10476D01*
X-228454Y-9698D01*
X-227521Y-8143D01*
X-227521Y-365D01*
X-228454Y1190D01*
X-230321Y1968D01*
X-232187Y1968D01*
X-234054Y1190D01*
X-234987Y-365D01*
G54D12*
X-245876Y-365D02*
X-245876Y-8143D01*
X-244943Y-9698D01*
X-243076Y-10476D01*
X-241210Y-10476D01*
X-239343Y-9698D01*
X-238410Y-8143D01*
X-238410Y-365D01*
X-239343Y1190D01*
X-241210Y1968D01*
X-243076Y1968D01*
X-244943Y1190D01*
X-245876Y-365D01*
G54D12*
X-249299Y-10476D02*
X-249299Y-3476D01*
G54D12*
X-249299Y-5032D02*
X-250232Y-3943D01*
X-252099Y-3476D01*
X-253965Y-3943D01*
X-254899Y-5032D01*
X-254899Y-10476D01*
G54D12*
X-258321Y-10476D02*
X-258321Y1968D01*
X-264854Y1968D01*
G54D12*
X-258321Y-4254D02*
X-264854Y-4254D01*
G54D10*
X-28298Y-80860D02*
X-28298Y-11390D01*
X-30162Y-9525D01*
G54D12*
X-136187Y-360250D02*
X-136187Y-370361D01*
X-137120Y-371917D01*
X-138987Y-372694D01*
X-140854Y-372694D01*
X-142720Y-371917D01*
X-143654Y-370361D01*
X-143654Y-360250D01*
G54D12*
X-147076Y-370361D02*
X-148009Y-371917D01*
X-149876Y-372694D01*
X-151743Y-372694D01*
X-153609Y-371917D01*
X-154543Y-370361D01*
X-154543Y-368806D01*
X-153609Y-367250D01*
X-151743Y-366472D01*
X-149876Y-366472D01*
X-148009Y-365694D01*
X-147076Y-364139D01*
X-147076Y-362583D01*
X-148009Y-361028D01*
X-149876Y-360250D01*
X-151743Y-360250D01*
X-153609Y-361028D01*
X-154543Y-362583D01*
G54D12*
X-157965Y-372694D02*
X-157965Y-360250D01*
X-162632Y-360250D01*
X-164498Y-361028D01*
X-165432Y-362583D01*
X-165432Y-364139D01*
X-164498Y-365694D01*
X-162632Y-366472D01*
X-164498Y-367250D01*
X-165432Y-368806D01*
X-165432Y-370361D01*
X-164498Y-371917D01*
X-162632Y-372694D01*
X-157965Y-372694D01*
G54D12*
X-157965Y-366472D02*
X-162632Y-366472D01*
G54D12*
X-132300Y-353650D02*
X-132300Y-341206D01*
X-136966Y-348984D01*
X-141633Y-341206D01*
X-141633Y-353650D01*
G54D12*
X-145055Y-353650D02*
X-145055Y-346650D01*
G54D12*
X-145055Y-344317D02*
X-145055Y-344317D01*
G54D12*
X-153143Y-347117D02*
X-151277Y-346650D01*
X-149410Y-347117D01*
X-148477Y-348672D01*
X-148477Y-351784D01*
X-149410Y-353339D01*
X-151277Y-353650D01*
X-153143Y-353339D01*
G54D12*
X-156566Y-353650D02*
X-156566Y-346650D01*
G54D12*
X-156566Y-348206D02*
X-158432Y-346650D01*
X-160299Y-346650D01*
G54D12*
X-169321Y-351784D02*
X-169321Y-348672D01*
X-168387Y-347117D01*
X-166521Y-346650D01*
X-164654Y-347117D01*
X-163721Y-348672D01*
X-163721Y-351784D01*
X-164654Y-353339D01*
X-166521Y-353650D01*
X-168387Y-353339D01*
X-169321Y-351784D01*
G54D10*
X-200752Y897731D02*
X-235812Y897732D01*
X-235813Y797734D01*
X-200752Y797733D01*
G36*
X-200751Y898481D02*
X-200752Y896981D01*
X-200002Y896981D01*
X-200001Y898481D01*
X-200751Y898481D01*
G37*
G36*
X-200752Y798483D02*
X-200752Y796983D01*
X-200002Y796983D01*
X-200002Y798483D01*
X-200752Y798483D01*
G37*
G54D10*
X-89762Y897732D02*
X-189911Y897733D01*
G36*
X-89762Y898482D02*
X-89762Y896982D01*
X-89012Y896982D01*
X-89012Y898482D01*
X-89762Y898482D01*
G37*
G36*
X-189911Y896983D02*
X-189911Y898483D01*
X-190661Y898483D01*
X-190661Y896983D01*
X-189911Y896983D01*
G37*
G54D12*
X-217849Y894154D02*
X-222515Y889488D01*
X-210071Y889488D01*
G54D12*
X-220182Y878599D02*
X-212404Y878599D01*
X-210849Y879532D01*
X-210071Y881399D01*
X-210071Y883265D01*
X-210849Y885132D01*
X-212404Y886065D01*
X-220182Y886065D01*
X-221738Y885132D01*
X-222515Y883265D01*
X-222515Y881399D01*
X-221738Y879532D01*
X-220182Y878599D01*
G54D12*
X-220182Y867710D02*
X-212404Y867710D01*
X-210849Y868643D01*
X-210071Y870510D01*
X-210071Y872376D01*
X-210849Y874243D01*
X-212404Y875176D01*
X-220182Y875176D01*
X-221738Y874243D01*
X-222515Y872376D01*
X-222515Y870510D01*
X-221738Y868643D01*
X-220182Y867710D01*
G54D12*
X-210071Y864287D02*
X-217071Y864287D01*
G54D12*
X-215515Y864287D02*
X-216604Y863354D01*
X-217071Y861487D01*
X-216604Y859621D01*
X-215515Y858687D01*
X-210071Y858687D01*
G54D12*
X-210071Y855265D02*
X-222515Y855265D01*
X-222515Y848732D01*
G54D12*
X-216293Y855265D02*
X-216293Y848732D01*
G54D12*
X-220182Y834235D02*
X-221738Y835168D01*
X-222515Y837035D01*
X-222515Y838901D01*
X-221738Y840768D01*
X-220182Y841701D01*
X-216293Y841701D01*
X-215515Y841701D01*
X-217071Y838901D01*
X-217071Y837035D01*
X-216293Y835168D01*
X-214738Y834235D01*
X-212404Y834235D01*
X-210849Y835168D01*
X-210071Y837035D01*
X-210071Y838901D01*
X-210849Y840768D01*
X-212404Y841701D01*
X-216293Y841701D01*
G54D12*
X-220182Y830812D02*
X-221738Y829879D01*
X-222515Y828012D01*
X-222515Y826146D01*
X-221738Y824279D01*
X-220182Y823346D01*
X-218627Y823346D01*
X-217071Y824279D01*
X-216293Y826146D01*
X-215515Y824279D01*
X-213960Y823346D01*
X-212404Y823346D01*
X-210849Y824279D01*
X-210071Y826146D01*
X-210071Y828012D01*
X-210849Y829879D01*
X-212404Y830812D01*
G54D12*
X-220182Y812457D02*
X-212404Y812457D01*
X-210849Y813390D01*
X-210071Y815257D01*
X-210071Y817123D01*
X-210849Y818990D01*
X-212404Y819923D01*
X-220182Y819923D01*
X-221738Y818990D01*
X-222515Y817123D01*
X-222515Y815257D01*
X-221738Y813390D01*
X-220182Y812457D01*
G54D12*
X-217071Y809034D02*
X-210071Y805301D01*
X-217071Y801568D01*
G54D10*
X-63160Y767460D02*
X-73026Y777326D01*
X-73026Y797719D01*
G54D10*
X-80237Y897732D02*
X-65814Y897731D01*
X-65814Y797733D01*
X-80238Y797734D01*
G54D10*
X-238467Y767461D02*
X-228601Y777327D01*
X-228601Y797720D01*
G54D12*
X-146310Y616614D02*
X-146310Y624080D01*
X-140866Y624080D01*
X-140866Y623147D01*
X-141644Y621280D01*
X-141644Y619414D01*
X-140866Y617547D01*
X-139310Y616614D01*
X-136199Y616614D01*
X-134644Y617547D01*
X-133866Y619414D01*
X-133866Y621280D01*
X-134644Y623147D01*
X-136199Y624080D01*
G54D12*
X-146310Y607716D02*
X-134644Y607716D01*
X-133866Y606782D01*
X-134177Y605849D01*
G54D12*
X-140866Y609582D02*
X-140866Y605849D01*
G54D12*
X-140866Y596827D02*
X-133866Y596827D01*
G54D12*
X-135421Y596827D02*
X-134177Y597761D01*
X-133866Y599627D01*
X-134177Y601494D01*
X-135421Y602427D01*
X-140866Y602427D01*
G54D12*
X-133866Y593405D02*
X-140866Y593405D01*
G54D12*
X-139310Y593405D02*
X-140866Y591539D01*
X-140866Y589672D01*
G54D12*
X-133866Y586250D02*
X-140866Y586250D01*
G54D12*
X-139310Y586250D02*
X-140399Y585317D01*
X-140866Y583450D01*
X-140399Y581584D01*
X-139310Y580650D01*
X-133866Y580650D01*
G54D12*
X-134644Y577228D02*
X-133866Y575362D01*
X-133866Y573495D01*
X-134644Y571628D01*
X-136199Y571628D01*
X-136977Y572562D01*
X-137755Y576295D01*
X-138532Y577228D01*
X-140088Y577228D01*
X-140866Y575362D01*
X-140866Y573495D01*
X-140088Y571628D01*
G54D12*
X-139310Y564597D02*
X-139310Y557131D01*
G54D12*
X-142421Y560864D02*
X-136199Y560864D01*
G54D12*
X-141644Y563664D02*
X-136977Y558064D01*
G54D12*
X-136977Y563664D02*
X-141644Y558064D01*
G54D12*
X-143977Y542633D02*
X-136199Y542633D01*
X-134644Y543566D01*
X-133866Y545433D01*
X-133866Y547299D01*
X-134644Y549166D01*
X-136199Y550099D01*
X-143977Y550099D01*
X-145532Y549166D01*
X-146310Y547299D01*
X-146310Y545433D01*
X-145532Y543566D01*
X-143977Y542633D01*
G54D12*
X-133866Y539210D02*
X-133866Y539210D01*
G54D12*
X-146310Y528322D02*
X-146310Y535788D01*
X-140866Y535788D01*
X-140866Y534855D01*
X-141644Y532988D01*
X-141644Y531122D01*
X-140866Y529255D01*
X-139310Y528322D01*
X-136199Y528322D01*
X-134644Y529255D01*
X-133866Y531122D01*
X-133866Y532988D01*
X-134644Y534855D01*
X-136199Y535788D01*
G54D12*
X-133866Y524899D02*
X-140866Y524899D01*
G54D12*
X-139621Y524899D02*
X-140866Y523033D01*
X-140399Y521166D01*
X-139310Y520233D01*
X-133866Y520233D01*
G54D12*
X-139621Y520233D02*
X-140866Y518366D01*
X-140399Y516499D01*
X-139310Y515566D01*
X-133866Y515566D01*
G54D12*
X-133866Y512144D02*
X-140866Y512144D01*
G54D12*
X-139621Y512144D02*
X-140866Y510278D01*
X-140399Y508411D01*
X-139310Y507478D01*
X-133866Y507478D01*
G54D12*
X-139621Y507478D02*
X-140866Y505611D01*
X-140399Y503744D01*
X-139310Y502811D01*
X-133866Y502811D01*
G54D12*
X-168663Y609933D02*
X-167107Y607133D01*
X-165552Y606200D01*
X-162441Y606200D01*
G54D12*
X-162441Y613666D02*
X-174885Y613666D01*
X-174885Y609000D01*
X-174107Y607133D01*
X-172552Y606200D01*
X-170996Y606200D01*
X-169441Y607133D01*
X-168663Y609000D01*
X-168663Y613666D01*
G54D12*
X-168663Y602777D02*
X-169441Y600911D01*
X-169441Y598671D01*
X-167885Y597177D01*
X-162441Y597177D01*
G54D12*
X-164774Y597177D02*
X-166330Y598111D01*
X-166641Y599977D01*
X-166330Y601844D01*
X-164774Y602777D01*
X-163219Y602404D01*
X-162441Y600911D01*
X-162441Y599977D01*
X-162441Y599604D01*
X-163219Y598111D01*
X-164774Y597177D01*
G54D12*
X-162441Y588155D02*
X-174885Y588155D01*
G54D12*
X-167419Y588155D02*
X-168974Y589089D01*
X-169441Y590955D01*
X-168974Y592822D01*
X-167419Y593755D01*
X-164307Y593755D01*
X-162752Y592822D01*
X-162441Y590955D01*
X-162752Y589089D01*
X-164307Y588155D01*
G54D12*
X-162441Y584733D02*
X-169441Y584733D01*
G54D12*
X-171774Y584733D02*
X-171774Y584733D01*
G54D12*
X-168663Y581311D02*
X-169441Y579445D01*
X-169441Y577205D01*
X-167885Y575711D01*
X-162441Y575711D01*
G54D12*
X-164774Y575711D02*
X-166330Y576645D01*
X-166641Y578511D01*
X-166330Y580378D01*
X-164774Y581311D01*
X-163219Y580938D01*
X-162441Y579445D01*
X-162441Y578511D01*
X-162441Y578138D01*
X-163219Y576645D01*
X-164774Y575711D01*
G54D12*
X-162441Y572289D02*
X-174885Y572289D01*
G54D12*
X-162441Y565258D02*
X-169441Y565258D01*
G54D12*
X-171774Y565258D02*
X-171774Y565258D01*
G54D12*
X-162441Y561836D02*
X-169441Y561836D01*
G54D12*
X-167885Y561836D02*
X-168974Y560903D01*
X-169441Y559036D01*
X-168974Y557170D01*
X-167885Y556236D01*
X-162441Y556236D01*
G54D12*
X-162441Y547214D02*
X-174885Y547214D01*
G54D12*
X-167419Y547214D02*
X-168974Y548148D01*
X-169441Y550014D01*
X-168974Y551881D01*
X-167419Y552814D01*
X-164307Y552814D01*
X-162752Y551881D01*
X-162441Y550014D01*
X-162752Y548148D01*
X-164307Y547214D01*
G54D12*
X-169441Y538192D02*
X-162441Y538192D01*
G54D12*
X-163996Y538192D02*
X-162752Y539126D01*
X-162441Y540992D01*
X-162752Y542859D01*
X-163996Y543792D01*
X-169441Y543792D01*
G54D12*
X-168974Y530104D02*
X-169441Y531970D01*
X-168974Y533837D01*
X-167419Y534770D01*
X-164307Y534770D01*
X-162752Y533837D01*
X-162441Y531970D01*
X-162752Y530104D01*
G54D12*
X-174885Y524815D02*
X-163219Y524815D01*
X-162441Y523881D01*
X-162752Y522948D01*
G54D12*
X-169441Y526681D02*
X-169441Y522948D01*
G54D12*
X-164307Y513926D02*
X-167419Y513926D01*
X-168974Y514860D01*
X-169441Y516726D01*
X-168974Y518593D01*
X-167419Y519526D01*
X-164307Y519526D01*
X-162752Y518593D01*
X-162441Y516726D01*
X-162752Y514860D01*
X-164307Y513926D01*
G54D12*
X-162441Y510504D02*
X-169441Y510504D01*
G54D12*
X-167885Y510504D02*
X-169441Y508638D01*
X-169441Y506771D01*
G54D12*
X-113069Y584863D02*
X-117735Y580197D01*
X-105291Y580197D01*
G54D12*
X-115402Y569308D02*
X-107624Y569308D01*
X-106069Y570241D01*
X-105291Y572108D01*
X-105291Y573974D01*
X-106069Y575841D01*
X-107624Y576774D01*
X-115402Y576774D01*
X-116957Y575841D01*
X-117735Y573974D01*
X-117735Y572108D01*
X-116957Y570241D01*
X-115402Y569308D01*
G54D12*
X-105291Y562276D02*
X-112291Y562276D01*
G54D12*
X-111046Y562276D02*
X-112291Y560410D01*
X-111824Y558543D01*
X-110735Y557610D01*
X-105291Y557610D01*
G54D12*
X-111046Y557610D02*
X-112291Y555743D01*
X-111824Y553876D01*
X-110735Y552943D01*
X-105291Y552943D01*
G54D12*
X-105291Y549521D02*
X-117735Y549521D01*
G54D12*
X-105291Y542055D02*
X-117735Y542055D01*
G54D12*
X-111513Y549521D02*
X-111513Y542055D01*
X-92774Y511092D02*
G54D11*
D03*
X-187401Y610295D02*
G54D11*
D03*
M02*
