%FSLAX34Y34*%
%MOMM*%
%LNSILK_TOP*%
G71*
G01*
%ADD10C, 0.794*%
%ADD11C, 0.150*%
%LPD*%
G54D10*
X-126199Y278093D02*
X-120643Y281426D01*
X-117866Y288093D01*
X-117866Y294760D01*
X-120643Y301426D01*
X-126199Y304760D01*
X-131755Y304760D01*
X-137310Y301426D01*
X-140088Y294760D01*
X-140088Y288093D01*
X-142866Y281426D01*
X-148421Y278093D01*
X-153977Y278093D01*
X-159532Y281426D01*
X-162310Y288093D01*
X-162310Y294760D01*
X-159532Y301426D01*
X-153977Y304760D01*
G54D10*
X-117866Y320316D02*
X-162310Y320316D01*
X-162310Y336983D01*
X-159532Y343649D01*
X-153977Y346983D01*
X-148421Y346983D01*
X-142866Y343649D01*
X-140088Y336983D01*
X-137310Y343649D01*
X-131755Y346983D01*
X-126199Y346983D01*
X-120643Y343649D01*
X-117866Y336983D01*
X-117866Y320316D01*
G54D10*
X-140088Y320316D02*
X-140088Y336983D01*
G54D10*
X-117866Y362539D02*
X-162310Y362539D01*
X-134532Y379206D01*
X-162310Y395872D01*
X-117866Y395872D01*
G54D10*
X-137310Y411428D02*
X-137310Y438095D01*
G54D10*
X-117866Y480318D02*
X-117866Y453651D01*
X-120643Y453651D01*
X-126199Y456984D01*
X-142866Y476984D01*
X-148421Y480318D01*
X-153977Y480318D01*
X-159532Y476984D01*
X-162310Y470318D01*
X-162310Y463651D01*
X-159532Y456984D01*
X-153977Y453651D01*
G54D10*
X-153977Y522541D02*
X-126199Y522541D01*
X-120643Y519207D01*
X-117866Y512541D01*
X-117866Y505874D01*
X-120643Y499207D01*
X-126199Y495874D01*
X-153977Y495874D01*
X-159532Y499207D01*
X-162310Y505874D01*
X-162310Y512541D01*
X-159532Y519207D01*
X-153977Y522541D01*
G54D10*
X-153433Y774614D02*
X-126766Y774614D01*
G54D10*
X-140099Y763503D02*
X-140099Y785725D01*
G54D11*
X-195086Y971676D02*
X-195086Y-171019D01*
X-85091Y-171042D01*
X-85091Y971654D01*
X-195086Y971676D01*
M02*
