%FSLAX34Y34*%
%MOMM*%
%LNSILK_TOP*%
G71*
G01*
%ADD10C, 0.794*%
%ADD11C, 0.150*%
%ADD12C, 1.000*%
%ADD13C, 0.500*%
%LPD*%
G54D10*
X-126199Y335486D02*
X-120643Y338819D01*
X-117866Y345486D01*
X-117866Y352153D01*
X-120643Y358819D01*
X-126199Y362153D01*
X-131755Y362153D01*
X-137310Y358819D01*
X-140088Y352153D01*
X-140088Y345486D01*
X-142866Y338819D01*
X-148421Y335486D01*
X-153977Y335486D01*
X-159532Y338819D01*
X-162310Y345486D01*
X-162310Y352153D01*
X-159532Y358819D01*
X-153977Y362153D01*
G54D10*
X-117866Y377709D02*
X-162310Y377709D01*
X-162310Y394376D01*
X-159532Y401042D01*
X-153977Y404376D01*
X-148421Y404376D01*
X-142866Y401042D01*
X-140088Y394376D01*
X-137310Y401042D01*
X-131755Y404376D01*
X-126199Y404376D01*
X-120643Y401042D01*
X-117866Y394376D01*
X-117866Y377709D01*
G54D10*
X-140088Y377709D02*
X-140088Y394376D01*
G54D10*
X-117866Y419932D02*
X-162310Y419932D01*
X-134532Y436599D01*
X-162310Y453265D01*
X-117866Y453265D01*
G54D10*
X-137310Y468821D02*
X-137310Y495488D01*
G54D10*
X-117866Y537711D02*
X-117866Y511044D01*
X-120643Y511044D01*
X-126199Y514377D01*
X-142866Y534377D01*
X-148421Y537711D01*
X-153977Y537711D01*
X-159532Y534377D01*
X-162310Y527711D01*
X-162310Y521044D01*
X-159532Y514377D01*
X-153977Y511044D01*
G54D10*
X-153977Y579934D02*
X-126199Y579934D01*
X-120643Y576600D01*
X-117866Y569934D01*
X-117866Y563267D01*
X-120643Y556600D01*
X-126199Y553267D01*
X-153977Y553267D01*
X-159532Y556600D01*
X-162310Y563267D01*
X-162310Y569934D01*
X-159532Y576600D01*
X-153977Y579934D01*
G54D10*
X-153433Y774614D02*
X-126766Y774614D01*
G54D10*
X-140099Y763503D02*
X-140099Y785725D01*
G54D11*
X-195086Y971676D02*
X-195086Y-171019D01*
X-85091Y-171042D01*
X-85091Y971654D01*
X-195086Y971676D01*
G54D12*
G75*
G01X-127796Y109565D02*
G03X-127796Y109565I10000J0D01*
G01*
G54D12*
G75*
G01X-172444Y109525D02*
G03X-172444Y109525I10000J0D01*
G01*
G54D12*
G75*
G01X-127637Y64797D02*
G03X-127637Y64797I10000J0D01*
G01*
G54D12*
X-125574Y72735D02*
X-154507Y101588D01*
G54D12*
X-96880Y130560D02*
X-109858Y117502D01*
G54D13*
X-96880Y133060D02*
X-181384Y133060D01*
X-184055Y131541D01*
X-185661Y128624D01*
X-185661Y44120D01*
G54D13*
X-94380Y130560D02*
X-94380Y46056D01*
X-95976Y43149D01*
X-98657Y41620D01*
X-183161Y41620D01*
G54D12*
G75*
G01X-172246Y65115D02*
G03X-172246Y65115I10000J0D01*
G01*
G54D12*
X-183161Y44120D02*
X-170183Y57177D01*
M02*
