%FSLAX34Y34*%
%MOMM*%
%LNSILK_BOTTOM_*%
G71*
G01*
%ADD10C, 0.15*%
%ADD11C, 0.50*%
%ADD12C, 0.16*%
%ADD13C, 0.24*%
%ADD14C, 0.29*%
%ADD15C, 0.20*%
%LPD*%
G54D10*
X-90935Y825513D02*
X-112935Y825513D01*
X-112935Y775513D01*
X-90935Y775513D01*
X-90935Y825513D01*
G54D10*
X-125723Y743578D02*
X-125723Y765975D01*
X-191995Y765975D01*
X-191995Y743578D01*
X-125723Y743578D01*
X-165173Y754776D02*
G54D11*
D03*
G54D10*
X-191996Y797699D02*
X-191996Y775302D01*
X-125724Y775302D01*
X-125724Y797699D01*
X-191996Y797699D01*
X-152546Y786500D02*
G54D11*
D03*
G54D10*
X-83592Y766040D02*
X-120277Y766040D01*
X-120277Y697387D01*
X-83592Y697387D01*
X-83592Y766040D01*
G54D10*
X-152992Y731115D02*
X-189677Y731115D01*
X-189677Y662462D01*
X-152992Y662462D01*
X-152992Y731115D01*
G54D12*
X-98787Y861214D02*
X-103453Y856547D01*
X-91009Y856547D01*
G54D12*
X-101120Y845658D02*
X-93342Y845658D01*
X-91787Y846591D01*
X-91009Y848458D01*
X-91009Y850325D01*
X-91787Y852192D01*
X-93342Y853125D01*
X-101120Y853125D01*
X-102676Y852191D01*
X-103453Y850325D01*
X-103453Y848458D01*
X-102676Y846591D01*
X-101120Y845658D01*
G54D12*
X-91009Y842236D02*
X-103453Y842236D01*
X-95676Y837569D01*
X-103453Y832902D01*
X-91009Y832902D01*
G54D12*
X-88733Y684766D02*
X-93400Y689433D01*
X-93400Y676988D01*
G54D12*
X-104289Y687099D02*
X-104289Y679322D01*
X-103355Y677766D01*
X-101489Y676988D01*
X-99622Y676988D01*
X-97755Y677766D01*
X-96822Y679322D01*
X-96822Y687099D01*
X-97755Y688655D01*
X-99622Y689433D01*
X-101489Y689433D01*
X-103355Y688655D01*
X-104289Y687099D01*
G54D12*
X-115178Y687099D02*
X-115178Y679322D01*
X-114244Y677766D01*
X-112378Y676988D01*
X-110511Y676988D01*
X-108644Y677766D01*
X-107711Y679322D01*
X-107711Y687099D01*
X-108644Y688655D01*
X-110511Y689433D01*
X-112378Y689433D01*
X-114244Y688655D01*
X-115178Y687099D01*
G54D12*
X-118600Y676988D02*
X-118600Y683988D01*
G54D12*
X-118600Y682433D02*
X-119533Y683522D01*
X-121400Y683988D01*
X-123267Y683522D01*
X-124200Y682433D01*
X-124200Y676988D01*
G54D12*
X-127622Y676988D02*
X-127622Y689433D01*
X-134155Y689433D01*
G54D12*
X-127622Y683210D02*
X-134155Y683210D01*
G54D12*
X-140061Y738976D02*
X-144728Y734310D01*
X-132284Y734310D01*
G54D12*
X-142395Y723420D02*
X-134617Y723420D01*
X-133061Y724354D01*
X-132284Y726220D01*
X-132284Y728087D01*
X-133061Y729954D01*
X-134617Y730887D01*
X-142395Y730887D01*
X-143950Y729954D01*
X-144728Y728087D01*
X-144728Y726220D01*
X-143950Y724354D01*
X-142395Y723420D01*
G54D12*
X-142395Y712532D02*
X-134617Y712532D01*
X-133061Y713465D01*
X-132284Y715332D01*
X-132284Y717198D01*
X-133061Y719065D01*
X-134617Y719998D01*
X-142395Y719998D01*
X-143950Y719065D01*
X-144728Y717198D01*
X-144728Y715332D01*
X-143950Y713465D01*
X-142395Y712532D01*
G54D12*
X-132284Y709109D02*
X-139284Y709109D01*
G54D12*
X-137728Y709109D02*
X-138817Y708176D01*
X-139284Y706309D01*
X-138817Y704442D01*
X-137728Y703509D01*
X-132284Y703509D01*
G54D12*
X-132284Y700087D02*
X-144728Y700087D01*
X-144728Y693554D01*
G54D12*
X-138506Y700087D02*
X-138506Y693554D01*
G54D12*
X-135128Y804016D02*
X-127662Y804016D01*
X-127662Y804793D01*
X-128595Y806349D01*
X-134195Y811016D01*
X-135128Y812571D01*
X-135128Y814127D01*
X-134195Y815682D01*
X-132328Y816460D01*
X-130462Y816460D01*
X-128595Y815682D01*
X-127662Y814127D01*
G54D12*
X-138551Y811016D02*
X-146017Y804016D01*
G54D12*
X-138551Y804016D02*
X-146017Y811016D01*
G54D12*
X-155040Y804016D02*
X-155040Y816460D01*
X-149440Y808682D01*
X-149440Y807127D01*
X-156906Y807127D01*
G54D12*
X-167795Y814127D02*
X-167795Y806349D01*
X-166862Y804793D01*
X-164995Y804016D01*
X-163129Y804016D01*
X-161262Y804793D01*
X-160329Y806349D01*
X-160329Y814127D01*
X-161262Y815682D01*
X-163129Y816460D01*
X-164995Y816460D01*
X-166862Y815682D01*
X-167795Y814127D01*
G54D12*
X-178684Y814127D02*
X-178684Y806349D01*
X-177751Y804793D01*
X-175884Y804016D01*
X-174018Y804016D01*
X-172151Y804793D01*
X-171218Y806349D01*
X-171218Y814127D01*
X-172151Y815682D01*
X-174018Y816460D01*
X-175884Y816460D01*
X-177751Y815682D01*
X-178684Y814127D01*
G54D12*
X-182107Y816460D02*
X-189573Y816460D01*
X-188640Y814905D01*
X-186773Y812571D01*
X-184907Y809460D01*
X-183973Y807127D01*
X-183973Y804016D01*
G54D10*
X-251610Y797513D02*
X-251610Y775513D01*
X-201610Y775513D01*
X-201610Y797513D01*
X-251610Y797513D01*
G54D10*
X-251610Y765763D02*
X-251610Y743763D01*
X-201610Y743763D01*
X-201610Y765763D01*
X-251610Y765763D01*
G54D10*
X-251610Y734013D02*
X-251610Y712013D01*
X-201610Y712013D01*
X-201610Y734013D01*
X-251610Y734013D01*
G54D10*
X-251610Y702263D02*
X-251610Y680263D01*
X-201610Y680263D01*
X-201610Y702263D01*
X-251610Y702263D01*
G54D10*
X-251610Y670513D02*
X-251610Y648513D01*
X-201610Y648513D01*
X-201610Y670513D01*
X-251610Y670513D01*
G54D10*
X-251610Y638763D02*
X-251610Y616763D01*
X-201610Y616763D01*
X-201610Y638763D01*
X-251610Y638763D01*
G54D10*
X-251610Y607013D02*
X-251610Y585013D01*
X-201610Y585013D01*
X-201610Y607013D01*
X-251610Y607013D01*
G54D12*
X-216562Y573668D02*
X-221228Y578335D01*
X-221228Y565891D01*
G54D12*
X-224651Y565891D02*
X-224651Y572891D01*
G54D12*
X-224651Y571335D02*
X-225584Y572424D01*
X-227451Y572891D01*
X-229317Y572424D01*
X-230251Y571335D01*
X-230251Y565891D01*
G54D12*
X-233673Y565891D02*
X-233673Y578335D01*
X-240206Y578335D01*
G54D12*
X-233673Y572113D02*
X-240206Y572113D01*
G54D12*
X-265392Y639072D02*
X-270058Y634406D01*
X-257614Y634406D01*
G54D12*
X-267725Y623517D02*
X-259947Y623517D01*
X-258392Y624450D01*
X-257614Y626317D01*
X-257614Y628184D01*
X-258392Y630050D01*
X-259947Y630984D01*
X-267725Y630984D01*
X-269281Y630050D01*
X-270059Y628184D01*
X-270059Y626317D01*
X-269281Y624450D01*
X-267725Y623517D01*
G54D12*
X-267725Y612628D02*
X-259947Y612628D01*
X-258392Y613561D01*
X-257614Y615428D01*
X-257614Y617294D01*
X-258392Y619161D01*
X-259947Y620094D01*
X-267725Y620094D01*
X-269281Y619161D01*
X-270059Y617294D01*
X-270059Y615428D01*
X-269281Y613561D01*
X-267725Y612628D01*
G54D12*
X-257614Y609206D02*
X-270058Y609206D01*
G54D12*
X-261503Y609206D02*
X-270058Y601739D01*
G54D12*
X-263836Y606406D02*
X-257614Y601739D01*
G54D12*
X-269584Y662496D02*
X-269584Y669963D01*
X-264140Y669963D01*
X-264140Y669030D01*
X-264918Y667163D01*
X-264918Y665296D01*
X-264140Y663430D01*
X-262584Y662496D01*
X-259473Y662496D01*
X-257918Y663430D01*
X-257140Y665296D01*
X-257140Y667163D01*
X-257918Y669030D01*
X-259473Y669963D01*
G54D12*
X-257140Y659074D02*
X-269584Y659074D01*
X-261806Y654408D01*
X-269584Y649741D01*
X-257140Y649741D01*
G54D12*
X-118669Y562249D02*
X-123336Y566916D01*
X-123336Y554471D01*
G54D12*
X-134225Y564582D02*
X-134225Y556805D01*
X-133292Y555249D01*
X-131425Y554471D01*
X-129558Y554471D01*
X-127692Y555249D01*
X-126758Y556805D01*
X-126758Y564582D01*
X-127692Y566138D01*
X-129558Y566916D01*
X-131425Y566916D01*
X-133292Y566138D01*
X-134225Y564582D01*
G54D12*
X-141256Y554471D02*
X-141256Y561471D01*
G54D12*
X-141256Y560227D02*
X-143123Y561471D01*
X-144990Y561005D01*
X-145923Y559916D01*
X-145923Y554471D01*
G54D12*
X-145923Y560227D02*
X-147790Y561471D01*
X-149656Y561005D01*
X-150590Y559916D01*
X-150590Y554471D01*
G54D12*
X-154011Y554471D02*
X-154011Y566916D01*
G54D12*
X-161478Y554471D02*
X-161478Y566916D01*
G54D12*
X-154011Y560694D02*
X-161478Y560694D01*
G54D12*
X-261396Y427477D02*
X-259840Y424677D01*
X-258285Y423744D01*
X-255174Y423744D01*
G54D12*
X-255174Y431211D02*
X-267618Y431211D01*
X-267618Y426544D01*
X-266840Y424677D01*
X-265285Y423744D01*
X-263729Y423744D01*
X-262174Y424677D01*
X-261396Y426544D01*
X-261396Y431211D01*
G54D12*
X-255174Y413788D02*
X-255174Y420322D01*
X-267618Y420322D01*
X-267618Y413788D01*
G54D12*
X-261396Y420322D02*
X-261396Y413788D01*
G54D12*
X-257507Y410367D02*
X-255951Y409433D01*
X-255174Y407567D01*
X-255174Y405700D01*
X-255951Y403833D01*
X-257507Y402900D01*
X-259062Y402900D01*
X-260618Y403833D01*
X-261396Y405700D01*
X-261396Y407567D01*
X-262174Y409433D01*
X-263729Y410367D01*
X-265285Y410367D01*
X-266840Y409433D01*
X-267618Y407567D01*
X-267618Y405700D01*
X-266840Y403833D01*
X-265285Y402900D01*
G54D12*
X-255174Y392944D02*
X-255174Y399478D01*
X-267618Y399478D01*
X-267618Y392944D01*
G54D12*
X-261396Y399478D02*
X-261396Y392944D01*
G54D12*
X-255174Y385789D02*
X-267618Y385789D01*
G54D12*
X-267618Y389523D02*
X-267618Y382056D01*
G54D10*
X-137838Y405031D02*
X-137838Y383031D01*
X-87838Y383031D01*
X-87838Y405031D01*
X-137838Y405031D01*
G54D12*
X-91149Y372056D02*
X-95816Y376723D01*
X-95816Y364278D01*
G54D12*
X-106705Y374389D02*
X-106705Y366612D01*
X-105772Y365056D01*
X-103905Y364278D01*
X-102038Y364278D01*
X-100172Y365056D01*
X-99238Y366612D01*
X-99238Y374389D01*
X-100172Y375945D01*
X-102038Y376723D01*
X-103905Y376723D01*
X-105772Y375945D01*
X-106705Y374389D01*
G54D12*
X-110127Y364278D02*
X-110127Y376723D01*
G54D12*
X-110127Y368167D02*
X-117594Y376723D01*
G54D12*
X-112927Y370500D02*
X-117594Y364278D01*
G54D10*
X-192826Y405031D02*
X-192825Y383031D01*
X-142825Y383031D01*
X-142825Y405031D01*
X-192826Y405031D01*
G54D10*
X-192826Y436781D02*
X-192825Y414781D01*
X-142825Y414781D01*
X-142825Y436781D01*
X-192826Y436781D01*
G54D10*
X-192826Y297880D02*
X-170825Y297881D01*
X-170825Y347880D01*
X-192825Y347881D01*
X-192826Y297880D01*
G54D10*
X-164826Y297880D02*
X-142825Y297881D01*
X-142825Y347880D01*
X-164825Y347881D01*
X-164826Y297880D01*
G54D10*
X-252576Y319881D02*
X-252575Y297881D01*
X-202575Y297881D01*
X-202575Y319881D01*
X-252576Y319881D01*
G54D12*
X-213387Y286331D02*
X-218053Y290998D01*
X-218053Y278553D01*
G54D12*
X-228942Y288664D02*
X-228942Y280886D01*
X-228009Y279331D01*
X-226142Y278553D01*
X-224276Y278553D01*
X-222409Y279331D01*
X-221476Y280886D01*
X-221476Y288664D01*
X-222409Y290220D01*
X-224276Y290998D01*
X-226142Y290998D01*
X-228009Y290220D01*
X-228942Y288664D01*
G54D12*
X-232365Y278553D02*
X-232365Y290998D01*
G54D12*
X-232365Y282442D02*
X-239831Y290998D01*
G54D12*
X-235165Y284776D02*
X-239831Y278553D01*
G54D12*
X-157353Y280141D02*
X-149887Y280141D01*
X-149887Y280918D01*
X-150820Y282474D01*
X-156420Y287141D01*
X-157353Y288696D01*
X-157353Y290252D01*
X-156420Y291807D01*
X-154553Y292585D01*
X-152687Y292585D01*
X-150820Y291807D01*
X-149887Y290252D01*
G54D12*
X-160776Y287141D02*
X-168242Y280141D01*
G54D12*
X-160776Y280141D02*
X-168242Y287141D01*
G54D12*
X-179131Y280141D02*
X-171665Y280141D01*
X-171665Y280918D01*
X-172598Y282474D01*
X-178198Y287141D01*
X-179131Y288696D01*
X-179131Y290252D01*
X-178198Y291807D01*
X-176331Y292585D01*
X-174465Y292585D01*
X-172598Y291807D01*
X-171665Y290252D01*
G54D12*
X-190020Y290252D02*
X-190020Y282474D01*
X-189087Y280918D01*
X-187220Y280141D01*
X-185354Y280141D01*
X-183487Y280918D01*
X-182554Y282474D01*
X-182554Y290252D01*
X-183487Y291807D01*
X-185354Y292585D01*
X-187220Y292585D01*
X-189087Y291807D01*
X-190020Y290252D01*
G54D12*
X-91149Y457147D02*
X-98616Y457147D01*
G54D12*
X-94883Y457147D02*
X-94883Y469591D01*
G54D12*
X-91149Y469591D02*
X-98616Y469591D01*
G54D12*
X-105772Y463369D02*
X-108572Y461814D01*
X-109505Y460258D01*
X-109505Y457147D01*
G54D12*
X-102038Y457147D02*
X-102038Y469591D01*
X-106705Y469591D01*
X-108572Y468814D01*
X-109505Y467258D01*
X-109505Y465702D01*
X-108572Y464147D01*
X-106705Y463369D01*
X-102038Y463369D01*
G54D12*
X-112927Y469591D02*
X-112927Y457147D01*
X-119461Y457147D01*
G54D12*
X-122882Y457147D02*
X-122882Y469591D01*
X-127549Y461814D01*
X-132216Y469591D01*
X-132216Y457147D01*
G54D12*
X-135637Y469591D02*
X-135637Y457147D01*
X-142170Y457147D01*
G54D12*
X-153059Y467258D02*
X-152126Y468814D01*
X-150259Y469591D01*
X-148392Y469591D01*
X-146526Y468814D01*
X-145592Y467258D01*
X-145592Y463369D01*
X-145592Y462591D01*
X-148392Y464147D01*
X-150259Y464147D01*
X-152126Y463369D01*
X-153059Y461814D01*
X-153059Y459480D01*
X-152126Y457925D01*
X-150259Y457147D01*
X-148392Y457147D01*
X-146526Y457925D01*
X-145592Y459480D01*
X-145592Y463369D01*
G54D12*
X-156481Y467258D02*
X-157414Y468814D01*
X-159281Y469591D01*
X-161148Y469591D01*
X-163014Y468814D01*
X-163948Y467258D01*
X-163948Y465702D01*
X-163014Y464147D01*
X-161148Y463369D01*
X-163014Y462591D01*
X-163948Y461036D01*
X-163948Y459480D01*
X-163014Y457925D01*
X-161148Y457147D01*
X-159281Y457147D01*
X-157414Y457925D01*
X-156481Y459480D01*
G54D12*
X-172970Y457147D02*
X-172970Y469591D01*
X-167370Y461814D01*
X-167370Y460258D01*
X-174837Y460258D01*
G54D12*
X-185726Y467258D02*
X-184792Y468814D01*
X-182926Y469591D01*
X-181059Y469591D01*
X-179192Y468814D01*
X-178259Y467258D01*
X-178259Y463369D01*
X-178259Y462591D01*
X-181059Y464147D01*
X-182926Y464147D01*
X-184792Y463369D01*
X-185726Y461814D01*
X-185726Y459480D01*
X-184792Y457925D01*
X-182926Y457147D01*
X-181059Y457147D01*
X-179192Y457925D01*
X-178259Y459480D01*
X-178259Y463369D01*
G54D12*
X-141478Y364278D02*
X-134012Y364278D01*
X-134012Y365056D01*
X-134945Y366612D01*
X-140545Y371278D01*
X-141478Y372834D01*
X-141478Y374389D01*
X-140545Y375945D01*
X-138678Y376723D01*
X-136812Y376723D01*
X-134945Y375945D01*
X-134012Y374389D01*
G54D12*
X-144901Y371278D02*
X-152367Y364278D01*
G54D12*
X-144901Y364278D02*
X-152367Y371278D01*
G54D12*
X-155790Y372056D02*
X-160456Y376723D01*
X-160456Y364278D01*
G54D12*
X-171345Y374389D02*
X-171345Y366612D01*
X-170412Y365056D01*
X-168545Y364278D01*
X-166679Y364278D01*
X-164812Y365056D01*
X-163879Y366612D01*
X-163879Y374389D01*
X-164812Y375945D01*
X-166679Y376723D01*
X-168545Y376723D01*
X-170412Y375945D01*
X-171345Y374389D01*
G54D12*
X-180368Y371278D02*
X-180368Y364278D01*
G54D12*
X-180368Y365834D02*
X-179434Y364589D01*
X-177568Y364278D01*
X-175701Y364589D01*
X-174768Y365834D01*
X-174768Y371278D01*
G54D12*
X-183790Y364278D02*
X-183790Y376723D01*
X-190323Y376723D01*
G54D12*
X-183790Y370500D02*
X-190323Y370500D01*
G54D10*
X-265697Y35264D02*
X-243697Y35264D01*
X-243697Y85264D01*
X-265697Y85264D01*
X-265697Y35264D01*
G54D12*
X-256069Y119066D02*
X-260736Y114399D01*
X-248291Y114399D01*
G54D12*
X-258402Y103510D02*
X-250624Y103510D01*
X-249069Y104443D01*
X-248291Y106310D01*
X-248291Y108176D01*
X-249069Y110043D01*
X-250624Y110977D01*
X-258402Y110977D01*
X-259958Y110043D01*
X-260736Y108176D01*
X-260736Y106310D01*
X-259958Y104443D01*
X-258402Y103510D01*
G54D12*
X-248291Y100088D02*
X-260736Y100088D01*
G54D12*
X-252180Y100088D02*
X-260736Y92621D01*
G54D12*
X-254513Y97288D02*
X-248291Y92621D01*
G54D10*
X-28297Y-4436D02*
X-28298Y17564D01*
X-78298Y17564D01*
X-78298Y-4436D01*
X-28297Y-4436D01*
G54D10*
X-110041Y304188D02*
X-110041Y282188D01*
X-60041Y282188D01*
X-60041Y304188D01*
X-110041Y304188D01*
G54D10*
X-110041Y335938D02*
X-110041Y313938D01*
X-60041Y313938D01*
X-60041Y335938D01*
X-110041Y335938D01*
G54D12*
X-41178Y325027D02*
X-41178Y332494D01*
X-41956Y332494D01*
X-43512Y331560D01*
X-48178Y325960D01*
X-49734Y325027D01*
X-51289Y325027D01*
X-52845Y325960D01*
X-53623Y327827D01*
X-53623Y329694D01*
X-52845Y331560D01*
X-51289Y332494D01*
G54D12*
X-48178Y321605D02*
X-41178Y314138D01*
G54D12*
X-41178Y321605D02*
X-48178Y314138D01*
G54D12*
X-48956Y310716D02*
X-53623Y306049D01*
X-41178Y306049D01*
G54D12*
X-51289Y295160D02*
X-43512Y295160D01*
X-41956Y296094D01*
X-41178Y297960D01*
X-41178Y299827D01*
X-41956Y301694D01*
X-43512Y302627D01*
X-51289Y302627D01*
X-52845Y301694D01*
X-53623Y299827D01*
X-53623Y297960D01*
X-52845Y296094D01*
X-51289Y295160D01*
G54D12*
X-41178Y291738D02*
X-53623Y291738D01*
G54D12*
X-45067Y291738D02*
X-53623Y284271D01*
G54D12*
X-47400Y288938D02*
X-41178Y284271D01*
G54D12*
X-28533Y30531D02*
X-33200Y35198D01*
X-33200Y22754D01*
G54D12*
X-44089Y32865D02*
X-44089Y25087D01*
X-43155Y23531D01*
X-41289Y22754D01*
X-39422Y22754D01*
X-37555Y23532D01*
X-36622Y25087D01*
X-36622Y32865D01*
X-37555Y34420D01*
X-39422Y35198D01*
X-41289Y35198D01*
X-43155Y34420D01*
X-44089Y32865D01*
G54D12*
X-47511Y22754D02*
X-47511Y35198D01*
G54D12*
X-47511Y26642D02*
X-54978Y35198D01*
G54D12*
X-50311Y28976D02*
X-54978Y22754D01*
G54D10*
X-196796Y-50389D02*
X-196796Y-85389D01*
X-261797Y-85388D01*
X-261797Y-50388D01*
X-196796Y-50389D01*
G54D10*
X-165506Y9640D02*
X-165506Y-12360D01*
X-115506Y-12360D01*
X-115506Y9640D01*
X-165506Y9640D01*
G54D10*
X-211546Y-163688D02*
X-211547Y-133688D01*
X-274246Y-133688D01*
X-274247Y-163688D01*
X-211546Y-163688D01*
G54D12*
X-204067Y-154078D02*
X-204067Y-146611D01*
G54D12*
X-200956Y-150344D02*
X-207178Y-150344D01*
G54D10*
X-50298Y-130861D02*
X-28298Y-130860D01*
X-28298Y-80860D01*
X-50297Y-80860D01*
X-50298Y-130861D01*
G54D10*
X-78873Y-130860D02*
X-56872Y-130860D01*
X-56872Y-80860D01*
X-78873Y-80860D01*
X-78873Y-130860D01*
G54D10*
X-78476Y-137832D02*
X-78476Y-159832D01*
X-28476Y-159832D01*
X-28476Y-137832D01*
X-78476Y-137832D01*
G54D12*
X-224285Y-119414D02*
X-228951Y-114748D01*
X-228951Y-127192D01*
G54D12*
X-239840Y-117081D02*
X-239840Y-124859D01*
X-238907Y-126414D01*
X-237040Y-127192D01*
X-235174Y-127192D01*
X-233307Y-126414D01*
X-232374Y-124858D01*
X-232374Y-117081D01*
X-233307Y-115525D01*
X-235174Y-114748D01*
X-237040Y-114748D01*
X-238907Y-115525D01*
X-239840Y-117081D01*
G54D12*
X-250729Y-117081D02*
X-250729Y-124859D01*
X-249796Y-126414D01*
X-247929Y-127192D01*
X-246063Y-127192D01*
X-244196Y-126414D01*
X-243263Y-124859D01*
X-243263Y-117081D01*
X-244196Y-115525D01*
X-246063Y-114748D01*
X-247929Y-114747D01*
X-249796Y-115526D01*
X-250729Y-117081D01*
G54D12*
X-259752Y-120192D02*
X-259752Y-127192D01*
G54D12*
X-259752Y-125636D02*
X-258818Y-126881D01*
X-256952Y-127192D01*
X-255085Y-126881D01*
X-254152Y-125636D01*
X-254152Y-120192D01*
G54D12*
X-263174Y-127192D02*
X-263174Y-114748D01*
X-269707Y-114748D01*
G54D12*
X-263174Y-120970D02*
X-269707Y-120970D01*
G54D12*
X-222698Y-211489D02*
X-227364Y-206822D01*
X-227364Y-219267D01*
G54D12*
X-238253Y-209156D02*
X-238253Y-216934D01*
X-237320Y-218489D01*
X-235453Y-219267D01*
X-233587Y-219267D01*
X-231720Y-218489D01*
X-230787Y-216934D01*
X-230787Y-209156D01*
X-231720Y-207600D01*
X-233587Y-206822D01*
X-235453Y-206822D01*
X-237320Y-207600D01*
X-238253Y-209156D01*
G54D12*
X-247276Y-212267D02*
X-247276Y-219267D01*
G54D12*
X-247276Y-217712D02*
X-246342Y-218956D01*
X-244476Y-219267D01*
X-242609Y-218956D01*
X-241676Y-217712D01*
X-241676Y-212267D01*
G54D12*
X-250698Y-219267D02*
X-250698Y-206822D01*
X-257231Y-206822D01*
G54D12*
X-250698Y-213045D02*
X-257231Y-213045D01*
G54D12*
X-202123Y-54135D02*
X-202123Y-66579D01*
X-208656Y-66579D01*
G54D12*
X-212078Y-66579D02*
X-212078Y-54135D01*
X-216745Y-61912D01*
X-221411Y-54135D01*
X-221411Y-66579D01*
G54D12*
X-224833Y-58802D02*
X-229500Y-54135D01*
X-229500Y-66579D01*
G54D12*
X-232922Y-58802D02*
X-237589Y-54135D01*
X-237589Y-66579D01*
G54D12*
X-241011Y-58802D02*
X-245678Y-54135D01*
X-245678Y-66579D01*
G54D12*
X-249100Y-54135D02*
X-256567Y-54135D01*
X-255633Y-55690D01*
X-253767Y-58024D01*
X-251900Y-61135D01*
X-250967Y-63468D01*
X-250967Y-66579D01*
G54D12*
X-212006Y-72631D02*
X-212939Y-71075D01*
X-214806Y-70298D01*
X-216673Y-70298D01*
X-218539Y-71075D01*
X-219473Y-72631D01*
X-219473Y-74186D01*
X-218539Y-75742D01*
X-216673Y-76520D01*
X-218539Y-77298D01*
X-219473Y-78853D01*
X-219473Y-80409D01*
X-218539Y-81964D01*
X-216673Y-82742D01*
X-214806Y-82742D01*
X-212939Y-81964D01*
X-212006Y-80409D01*
G54D12*
X-222895Y-82742D02*
X-222895Y-82742D01*
G54D12*
X-226317Y-72631D02*
X-227250Y-71075D01*
X-229117Y-70298D01*
X-230984Y-70298D01*
X-232850Y-71075D01*
X-233784Y-72631D01*
X-233784Y-74186D01*
X-232850Y-75742D01*
X-230984Y-76520D01*
X-232850Y-77298D01*
X-233784Y-78853D01*
X-233784Y-80409D01*
X-232850Y-81964D01*
X-230984Y-82742D01*
X-229117Y-82742D01*
X-227250Y-81964D01*
X-226317Y-80409D01*
G54D12*
X-237206Y-70298D02*
X-241873Y-82742D01*
X-246539Y-70298D01*
G54D10*
X-50784Y-219890D02*
X-50784Y-262890D01*
X-152684Y-262890D01*
X-152684Y-219890D01*
X-50784Y-219890D01*
G54D10*
X-50784Y-224890D02*
X-50784Y-257890D01*
X-55784Y-257890D01*
X-55784Y-224890D01*
X-50784Y-224890D01*
G54D12*
X-126958Y-23444D02*
X-131625Y-18777D01*
X-131625Y-31222D01*
G54D12*
X-142514Y-21111D02*
X-142514Y-28888D01*
X-141580Y-30444D01*
X-139714Y-31222D01*
X-137847Y-31222D01*
X-135980Y-30444D01*
X-135047Y-28888D01*
X-135047Y-21111D01*
X-135980Y-19555D01*
X-137847Y-18777D01*
X-139714Y-18777D01*
X-141580Y-19555D01*
X-142514Y-21111D01*
G54D12*
X-145936Y-31222D02*
X-145936Y-18777D01*
G54D12*
X-145936Y-27333D02*
X-153403Y-18777D01*
G54D12*
X-148736Y-25000D02*
X-153403Y-31222D01*
G54D10*
X-162732Y-259791D02*
X-193720Y-259791D01*
X-193736Y-221991D01*
X-162732Y-221991D01*
X-162732Y-259756D01*
G54D12*
X-159198Y-203552D02*
X-163864Y-198885D01*
X-163864Y-211330D01*
G54D12*
X-174753Y-211330D02*
X-167287Y-211330D01*
X-167287Y-210552D01*
X-168220Y-208996D01*
X-173820Y-204330D01*
X-174753Y-202774D01*
X-174753Y-201218D01*
X-173820Y-199663D01*
X-171953Y-198885D01*
X-170087Y-198885D01*
X-168220Y-199663D01*
X-167287Y-201218D01*
G54D12*
X-178176Y-211330D02*
X-178176Y-198885D01*
X-182842Y-206663D01*
X-187509Y-198885D01*
X-187509Y-211330D01*
G54D12*
X-190931Y-211330D02*
X-190931Y-198885D01*
G54D12*
X-198397Y-211330D02*
X-198397Y-198885D01*
G54D12*
X-190931Y-205107D02*
X-198397Y-205107D01*
G54D12*
X-201820Y-204330D02*
X-207420Y-204330D01*
X-201820Y-211330D01*
X-207420Y-211330D01*
G54D10*
X-254797Y-226588D02*
X-254797Y-248588D01*
X-204797Y-248588D01*
X-204797Y-226588D01*
X-254797Y-226588D01*
G54D12*
X-262160Y-231138D02*
X-262160Y-223671D01*
X-262938Y-223671D01*
X-264494Y-224604D01*
X-269160Y-230204D01*
X-270716Y-231138D01*
X-272272Y-231138D01*
X-273827Y-230204D01*
X-274605Y-228338D01*
X-274605Y-226471D01*
X-273827Y-224604D01*
X-272272Y-223671D01*
G54D12*
X-269160Y-234560D02*
X-262160Y-242027D01*
G54D12*
X-262160Y-234560D02*
X-269160Y-242027D01*
G54D12*
X-262160Y-252916D02*
X-262160Y-245449D01*
X-262938Y-245449D01*
X-264494Y-246382D01*
X-269160Y-251982D01*
X-270716Y-252916D01*
X-272272Y-252916D01*
X-273827Y-251982D01*
X-274605Y-250116D01*
X-274605Y-248249D01*
X-273827Y-246382D01*
X-272272Y-245449D01*
G54D12*
X-262160Y-263805D02*
X-262160Y-256338D01*
X-262938Y-256338D01*
X-264494Y-257271D01*
X-269160Y-262871D01*
X-270716Y-263805D01*
X-272272Y-263805D01*
X-273827Y-262871D01*
X-274605Y-261005D01*
X-274605Y-259138D01*
X-273827Y-257272D01*
X-272272Y-256338D01*
G54D12*
X-269160Y-267227D02*
X-259049Y-267227D01*
G54D12*
X-264494Y-267227D02*
X-262472Y-268160D01*
X-262160Y-270027D01*
X-262472Y-271894D01*
X-264027Y-272827D01*
X-267138Y-272827D01*
X-268694Y-271894D01*
X-269160Y-270027D01*
X-268694Y-268160D01*
X-266827Y-267227D01*
G54D12*
X-262160Y-276249D02*
X-274605Y-276249D01*
X-274605Y-282782D01*
G54D12*
X-268383Y-276249D02*
X-268383Y-282782D01*
G54D12*
X-33865Y-219718D02*
X-32309Y-218785D01*
X-31531Y-216918D01*
X-31531Y-215052D01*
X-32309Y-213185D01*
X-33865Y-212252D01*
X-41642Y-212252D01*
X-43198Y-213185D01*
X-43976Y-215052D01*
X-43976Y-216918D01*
X-43198Y-218785D01*
X-41642Y-219718D01*
G54D12*
X-31531Y-223141D02*
X-43976Y-223141D01*
G54D12*
X-31531Y-230607D02*
X-43976Y-230607D01*
G54D12*
X-37753Y-223141D02*
X-37753Y-230607D01*
G54D12*
X-41642Y-234030D02*
X-43198Y-234963D01*
X-43976Y-236830D01*
X-43976Y-238696D01*
X-43198Y-240563D01*
X-41642Y-241496D01*
X-40087Y-241496D01*
X-38531Y-240563D01*
X-37754Y-238696D01*
X-36976Y-240563D01*
X-35420Y-241496D01*
X-33865Y-241496D01*
X-32309Y-240563D01*
X-31531Y-238696D01*
X-31531Y-236830D01*
X-32309Y-234963D01*
X-33865Y-234030D01*
G54D12*
X-31531Y-250519D02*
X-43976Y-250519D01*
X-36198Y-244919D01*
X-34642Y-244919D01*
X-34642Y-252385D01*
G54D12*
X-41642Y-263274D02*
X-33865Y-263274D01*
X-32309Y-262341D01*
X-31531Y-260474D01*
X-31531Y-258608D01*
X-32309Y-256741D01*
X-33865Y-255808D01*
X-41642Y-255808D01*
X-43198Y-256741D01*
X-43976Y-258608D01*
X-43976Y-260474D01*
X-43198Y-262341D01*
X-41642Y-263274D01*
G54D12*
X-37753Y-270430D02*
X-37753Y-274163D01*
X-33865Y-274163D01*
X-32309Y-273230D01*
X-31531Y-271363D01*
X-31531Y-269497D01*
X-32309Y-267630D01*
X-33865Y-266697D01*
X-41642Y-266697D01*
X-43198Y-267630D01*
X-43976Y-269497D01*
X-43976Y-271363D01*
X-43198Y-273230D01*
X-41642Y-274163D01*
G54D12*
X-90858Y-24343D02*
X-103302Y-24343D01*
X-103302Y-29010D01*
X-102525Y-30876D01*
X-100969Y-31809D01*
X-99413Y-31809D01*
X-97858Y-30876D01*
X-97080Y-29010D01*
X-96302Y-30876D01*
X-94747Y-31810D01*
X-93191Y-31810D01*
X-91636Y-30876D01*
X-90858Y-29010D01*
X-90858Y-24343D01*
G54D12*
X-97080Y-24343D02*
X-97080Y-29010D01*
G54D12*
X-93191Y-42698D02*
X-91636Y-41765D01*
X-90858Y-39898D01*
X-90858Y-38032D01*
X-91636Y-36165D01*
X-93191Y-35232D01*
X-100969Y-35232D01*
X-102524Y-36165D01*
X-103302Y-38032D01*
X-103302Y-39898D01*
X-102524Y-41765D01*
X-100969Y-42698D01*
G54D12*
X-97080Y-50788D02*
X-97080Y-48921D01*
X-97858Y-47054D01*
X-99413Y-46121D01*
X-100969Y-46121D01*
X-102524Y-47054D01*
X-103302Y-48921D01*
X-103302Y-50788D01*
X-102525Y-52654D01*
X-100969Y-53587D01*
X-99413Y-53587D01*
X-97858Y-52654D01*
X-97080Y-50788D01*
X-96302Y-52654D01*
X-94747Y-53588D01*
X-93191Y-53588D01*
X-91636Y-52654D01*
X-90858Y-50788D01*
X-90858Y-48921D01*
X-91636Y-47054D01*
X-93191Y-46121D01*
X-94747Y-46121D01*
X-96302Y-47054D01*
X-97080Y-48921D01*
G54D12*
X-90858Y-62610D02*
X-103302Y-62610D01*
X-95524Y-57010D01*
X-93969Y-57010D01*
X-93969Y-64476D01*
G54D12*
X-103302Y-67899D02*
X-103302Y-75366D01*
X-101747Y-74432D01*
X-99413Y-72566D01*
X-96302Y-70699D01*
X-93969Y-69766D01*
X-90858Y-69766D01*
G54D12*
X-63107Y-185101D02*
X-63107Y-172657D01*
X-57507Y-180434D01*
X-57507Y-181990D01*
X-64973Y-181990D01*
G54D12*
X-68396Y-185101D02*
X-68396Y-185101D01*
G54D12*
X-71818Y-172657D02*
X-79284Y-172657D01*
X-78351Y-174212D01*
X-76484Y-176546D01*
X-74618Y-179657D01*
X-73684Y-181990D01*
X-73684Y-185101D01*
G54D12*
X-82707Y-185101D02*
X-82707Y-178101D01*
G54D12*
X-82707Y-179657D02*
X-83640Y-178568D01*
X-85507Y-178101D01*
X-87373Y-178568D01*
X-88307Y-179657D01*
X-88307Y-185101D01*
G54D12*
X-91729Y-185101D02*
X-91729Y-172657D01*
X-98262Y-172657D01*
G54D12*
X-91729Y-178879D02*
X-98262Y-178879D01*
G54D12*
X-33356Y-16603D02*
X-45801Y-16603D01*
X-38023Y-11003D01*
X-36467Y-11003D01*
X-36467Y-18470D01*
G54D12*
X-45801Y-21892D02*
X-45801Y-29359D01*
X-44245Y-28426D01*
X-41912Y-26559D01*
X-38801Y-24692D01*
X-36467Y-23759D01*
X-33356Y-23759D01*
G54D12*
X-43467Y-40248D02*
X-35690Y-40248D01*
X-34134Y-39315D01*
X-33356Y-37448D01*
X-33356Y-35581D01*
X-34134Y-33715D01*
X-35690Y-32781D01*
X-43467Y-32781D01*
X-45023Y-33715D01*
X-45801Y-35581D01*
X-45801Y-37448D01*
X-45023Y-39315D01*
X-43467Y-40248D01*
G54D12*
X-33356Y-43670D02*
X-45801Y-43670D01*
G54D12*
X-37245Y-43670D02*
X-45801Y-51137D01*
G54D12*
X-39578Y-46470D02*
X-33356Y-51137D01*
G54D12*
X-98511Y-90376D02*
X-103178Y-95043D01*
X-90734Y-95043D01*
G54D12*
X-100845Y-105932D02*
X-93067Y-105932D01*
X-91511Y-104998D01*
X-90734Y-103132D01*
X-90734Y-101265D01*
X-91511Y-99398D01*
X-93067Y-98465D01*
X-100845Y-98465D01*
X-102400Y-99398D01*
X-103178Y-101265D01*
X-103178Y-103132D01*
X-102400Y-104999D01*
X-100845Y-105932D01*
G54D12*
X-90734Y-109354D02*
X-103178Y-109354D01*
G54D12*
X-94622Y-109354D02*
X-103178Y-116821D01*
G54D12*
X-96956Y-112154D02*
X-90734Y-116821D01*
G54D12*
X-210212Y811793D02*
X-214878Y816460D01*
X-214878Y804016D01*
G54D12*
X-225767Y814127D02*
X-225767Y806349D01*
X-224834Y804793D01*
X-222967Y804016D01*
X-221101Y804016D01*
X-219234Y804793D01*
X-218301Y806349D01*
X-218301Y814127D01*
X-219234Y815682D01*
X-221101Y816460D01*
X-222967Y816460D01*
X-224834Y815682D01*
X-225767Y814127D01*
G54D12*
X-229190Y804016D02*
X-229190Y816460D01*
X-233856Y808682D01*
X-238523Y816460D01*
X-238523Y804016D01*
G54D10*
X-201610Y823138D02*
X-257172Y823150D01*
X-257172Y675537D01*
X-201610Y675501D01*
G54D13*
X-209819Y909091D02*
X-223153Y909091D01*
G54D13*
X-209819Y903758D02*
X-223153Y903758D01*
G54D13*
X-216486Y909091D02*
X-216486Y903758D01*
G54D13*
X-223153Y899091D02*
X-209819Y899091D01*
X-218153Y895758D01*
X-209819Y892424D01*
X-223153Y892424D01*
G54D13*
X-209819Y882957D02*
X-217319Y882957D01*
G54D13*
X-215653Y882957D02*
X-217319Y881624D01*
X-217319Y880290D01*
G54D13*
X-210653Y871623D02*
X-209819Y872690D01*
X-209819Y874023D01*
X-210653Y875356D01*
X-212319Y875623D01*
X-215153Y875623D01*
X-216819Y874956D01*
X-217319Y873623D01*
X-216819Y872290D01*
X-215653Y871623D01*
X-213986Y871623D01*
X-213986Y875623D01*
G54D13*
X-217319Y866956D02*
X-209819Y864290D01*
X-217319Y861623D01*
G54D13*
X-218153Y852156D02*
X-223153Y848823D01*
X-209819Y848823D01*
G54D13*
X-209819Y844156D02*
X-209819Y844156D01*
G54D13*
X-220653Y839489D02*
X-222319Y838822D01*
X-223153Y837489D01*
X-223153Y836156D01*
X-222319Y834822D01*
X-220653Y834156D01*
X-218986Y834156D01*
X-217319Y834822D01*
X-216486Y836156D01*
X-215653Y834822D01*
X-213986Y834156D01*
X-212319Y834156D01*
X-210653Y834822D01*
X-209819Y836156D01*
X-209819Y837489D01*
X-210653Y838822D01*
X-212319Y839489D01*
G54D14*
X-41481Y886597D02*
X-41481Y894997D01*
X-57481Y894997D01*
X-57481Y886597D01*
G54D14*
X-49481Y894997D02*
X-49481Y886597D01*
G54D14*
X-44481Y880997D02*
X-42481Y879797D01*
X-41481Y877397D01*
X-41481Y874997D01*
X-42481Y872597D01*
X-44481Y871397D01*
X-46481Y871397D01*
X-48481Y872597D01*
X-49481Y874997D01*
X-49481Y877397D01*
X-50481Y879797D01*
X-52481Y880997D01*
X-54481Y880997D01*
X-56481Y879797D01*
X-57481Y877397D01*
X-57481Y874997D01*
X-56481Y872597D01*
X-54481Y871397D01*
G54D14*
X-41481Y865797D02*
X-57481Y865797D01*
X-57481Y859797D01*
X-56481Y857397D01*
X-54481Y856197D01*
X-52481Y856197D01*
X-50481Y857397D01*
X-49481Y859797D01*
X-49481Y865797D01*
G54D14*
X-49481Y839957D02*
X-47481Y836357D01*
X-45481Y835157D01*
X-41481Y835157D01*
G54D14*
X-41481Y844757D02*
X-57481Y844757D01*
X-57481Y838757D01*
X-56481Y836357D01*
X-54481Y835157D01*
X-52481Y835157D01*
X-50481Y836357D01*
X-49481Y838757D01*
X-49481Y844757D01*
G54D14*
X-49481Y829557D02*
X-50481Y827157D01*
X-50481Y824277D01*
X-48481Y822357D01*
X-41481Y822357D01*
G54D14*
X-44481Y822357D02*
X-46481Y823557D01*
X-46881Y825957D01*
X-46481Y828357D01*
X-44481Y829557D01*
X-42481Y829077D01*
X-41481Y827157D01*
X-41481Y825957D01*
X-41481Y825477D01*
X-42481Y823557D01*
X-44481Y822357D01*
G54D14*
X-41481Y809557D02*
X-57481Y809557D01*
G54D14*
X-47881Y809557D02*
X-49881Y810757D01*
X-50481Y813157D01*
X-49881Y815557D01*
X-47881Y816757D01*
X-43881Y816757D01*
X-41881Y815557D01*
X-41481Y813157D01*
X-41881Y810757D01*
X-43881Y809557D01*
G54D14*
X-41481Y803957D02*
X-50481Y803957D01*
G54D14*
X-53481Y803957D02*
X-53481Y803957D01*
G54D14*
X-49481Y798357D02*
X-50481Y795957D01*
X-50481Y793077D01*
X-48481Y791157D01*
X-41481Y791157D01*
G54D14*
X-44481Y791157D02*
X-46481Y792357D01*
X-46881Y794757D01*
X-46481Y797157D01*
X-44481Y798357D01*
X-42481Y797877D01*
X-41481Y795957D01*
X-41481Y794757D01*
X-41481Y794277D01*
X-42481Y792357D01*
X-44481Y791157D01*
G54D14*
X-57481Y783157D02*
X-42481Y783157D01*
X-41481Y781957D01*
X-41881Y780757D01*
G54D14*
X-50481Y785557D02*
X-50481Y780757D01*
G54D14*
X-41481Y775157D02*
X-50481Y775157D01*
G54D14*
X-53481Y775157D02*
X-53481Y775157D01*
G54D14*
X-43881Y762357D02*
X-47881Y762357D01*
X-49881Y763557D01*
X-50481Y765957D01*
X-49881Y768357D01*
X-47881Y769557D01*
X-43881Y769557D01*
X-41881Y768357D01*
X-41481Y765957D01*
X-41881Y763557D01*
X-43881Y762357D01*
G54D14*
X-41481Y756757D02*
X-50481Y756757D01*
G54D14*
X-48481Y756757D02*
X-49881Y755557D01*
X-50481Y753157D01*
X-49881Y750757D01*
X-48481Y749557D01*
X-41481Y749557D01*
G54D14*
X-41481Y738117D02*
X-57481Y738117D01*
X-47481Y732117D01*
X-57481Y726117D01*
X-41481Y726117D01*
G54D14*
X-42481Y713317D02*
X-41481Y715237D01*
X-41481Y717637D01*
X-42481Y720037D01*
X-44481Y720517D01*
X-47881Y720517D01*
X-49881Y719317D01*
X-50481Y716917D01*
X-49881Y714517D01*
X-48481Y713317D01*
X-46481Y713317D01*
X-46481Y720517D01*
G54D14*
X-57481Y705317D02*
X-42481Y705317D01*
X-41481Y704117D01*
X-41881Y702917D01*
G54D14*
X-50481Y707717D02*
X-50481Y702917D01*
G54D14*
X-42481Y690117D02*
X-41481Y692037D01*
X-41481Y694437D01*
X-42481Y696837D01*
X-44481Y697317D01*
X-47881Y697317D01*
X-49881Y696117D01*
X-50481Y693717D01*
X-49881Y691317D01*
X-48481Y690117D01*
X-46481Y690117D01*
X-46481Y697317D01*
G54D14*
X-41481Y684517D02*
X-50481Y684517D01*
G54D14*
X-48481Y684517D02*
X-50481Y682117D01*
X-50481Y679717D01*
G54D14*
X-41481Y668277D02*
X-41481Y668277D01*
G54D14*
X-50481Y668277D02*
X-50481Y668277D01*
G54D14*
X-41481Y662677D02*
X-41481Y662677D01*
G54D14*
X-50481Y662677D02*
X-50481Y662677D01*
G54D14*
X-41481Y651237D02*
X-57481Y651237D01*
G54D14*
X-47881Y651237D02*
X-49881Y650037D01*
X-50481Y647637D01*
X-49881Y645237D01*
X-47881Y644037D01*
X-41481Y644037D01*
G54D14*
X-57481Y636037D02*
X-42481Y636037D01*
X-41481Y634837D01*
X-41881Y633637D01*
G54D14*
X-50481Y638437D02*
X-50481Y633637D01*
G54D14*
X-57481Y625637D02*
X-42481Y625637D01*
X-41481Y624437D01*
X-41881Y623237D01*
G54D14*
X-50481Y628037D02*
X-50481Y623237D01*
G54D14*
X-50481Y617637D02*
X-37481Y617637D01*
G54D14*
X-44481Y617637D02*
X-41881Y616437D01*
X-41481Y614037D01*
X-41881Y611637D01*
X-43881Y610437D01*
X-47881Y610437D01*
X-49881Y611637D01*
X-50481Y614037D01*
X-49881Y616437D01*
X-47481Y617637D01*
G54D14*
X-41481Y604837D02*
X-41481Y604837D01*
G54D14*
X-50481Y604837D02*
X-50481Y604837D01*
G54D14*
X-41481Y599237D02*
X-57481Y589637D01*
G54D14*
X-41481Y584037D02*
X-57481Y574437D01*
G54D14*
X-41481Y568837D02*
X-50481Y568837D01*
G54D14*
X-53481Y568837D02*
X-53481Y568837D01*
G54D14*
X-43881Y556037D02*
X-47881Y556037D01*
X-49881Y557237D01*
X-50481Y559637D01*
X-49881Y562037D01*
X-47881Y563237D01*
X-43881Y563237D01*
X-41881Y562037D01*
X-41481Y559637D01*
X-41881Y557237D01*
X-43881Y556037D01*
G54D14*
X-48481Y550437D02*
X-48481Y540837D01*
G54D14*
X-41481Y535237D02*
X-50481Y535237D01*
G54D14*
X-48481Y535237D02*
X-49881Y534037D01*
X-50481Y531637D01*
X-49881Y529237D01*
X-48481Y528037D01*
X-41481Y528037D01*
G54D14*
X-42481Y515237D02*
X-41481Y517157D01*
X-41481Y519557D01*
X-42481Y521957D01*
X-44481Y522437D01*
X-47881Y522437D01*
X-49881Y521237D01*
X-50481Y518837D01*
X-49881Y516437D01*
X-48481Y515237D01*
X-46481Y515237D01*
X-46481Y522437D01*
G54D14*
X-57481Y507237D02*
X-42481Y507237D01*
X-41481Y506037D01*
X-41881Y504837D01*
G54D14*
X-50481Y509637D02*
X-50481Y504837D01*
G54D14*
X-41481Y499237D02*
X-41481Y499237D01*
G54D14*
X-41481Y493637D02*
X-50481Y493637D01*
G54D14*
X-48481Y493637D02*
X-50481Y491237D01*
X-50481Y488837D01*
G54D14*
X-50481Y476037D02*
X-41481Y476037D01*
G54D14*
X-43481Y476037D02*
X-41881Y477237D01*
X-41481Y479637D01*
X-41881Y482037D01*
X-43481Y483237D01*
X-50481Y483237D01*
G54D10*
X-171043Y-326469D02*
X-187893Y-326469D01*
X-187893Y-341494D01*
G54D10*
X-113893Y-369331D02*
X-113893Y-376419D01*
G54D10*
X-113893Y-341494D02*
X-113893Y-326469D01*
X-130743Y-326469D01*
G54D15*
G75*
G01X-234389Y863082D02*
G03X-234389Y863082I0J750D01*
G01*
G54D15*
G75*
G01X-234389Y860682D02*
G03X-234389Y860682I0J3150D01*
G01*
G54D15*
X-234389Y867008D02*
X-234389Y879708D01*
X-266139Y882882D01*
X-266139Y861451D01*
X-237564Y863832D01*
G54D15*
X-234389Y878120D02*
X-231214Y878120D01*
X-231214Y875739D01*
X-234389Y875739D01*
G54D15*
X-258995Y861451D02*
X-258995Y859864D01*
X-255820Y859864D01*
X-255820Y862245D01*
G54D15*
G75*
G01X-266234Y882748D02*
G03X-266234Y861616I16270J-10566D01*
G01*
G54D15*
X-269314Y874945D02*
X-270901Y874945D01*
X-270901Y869389D01*
X-269314Y869389D01*
G54D15*
X-267726Y880501D02*
X-270901Y880501D01*
X-270901Y878914D01*
X-268520Y878914D01*
G54D15*
X-255820Y874151D02*
X-257407Y874151D01*
X-257407Y869389D01*
X-255820Y869389D01*
X-255820Y874151D01*
G54D15*
X-267726Y887645D02*
X-232801Y855895D01*
G54D15*
X-232801Y887645D02*
X-267726Y855895D01*
G54D10*
X-211546Y-201788D02*
X-211547Y-171788D01*
X-274246Y-171788D01*
X-274247Y-201788D01*
X-211546Y-201788D01*
G54D12*
X-204067Y-192178D02*
X-204067Y-184711D01*
G54D12*
X-200956Y-188444D02*
X-207178Y-188444D01*
G54D10*
X-254797Y-258338D02*
X-254797Y-280338D01*
X-204797Y-280338D01*
X-204797Y-258338D01*
X-254797Y-258338D01*
G54D10*
X-195086Y-171019D02*
X-85091Y-171042D01*
X-85091Y971654D01*
X-195086Y971676D01*
X-195086Y-171019D01*
G54D10*
X-87358Y485693D02*
X-80074Y485692D01*
X-80104Y635694D01*
X-87388Y635695D01*
G54D10*
X-130095Y635695D02*
X-150079Y635696D01*
G54D10*
X-192787Y485692D02*
X-200071Y485693D01*
X-200101Y635695D01*
X-192816Y635694D01*
G54D10*
X-130096Y485693D02*
X-150080Y485695D01*
G54D10*
X-250375Y433738D02*
X-250375Y381738D01*
G54D10*
G75*
G01X-222788Y397738D02*
G03X-222788Y397738I0J10000D01*
G01*
G54D10*
X-231325Y433738D02*
X-214250Y433738D01*
G54D10*
X-195200Y433738D02*
X-195200Y381738D01*
G54D10*
X-214250Y381738D02*
X-231325Y381738D01*
G54D10*
X-84872Y433733D02*
X-84872Y381733D01*
G54D10*
G75*
G01X-57284Y397733D02*
G03X-57284Y397733I0J10000D01*
G01*
G54D10*
X-65822Y433733D02*
X-48747Y433733D01*
G54D10*
X-29697Y433733D02*
X-29697Y381733D01*
G54D10*
X-48747Y381733D02*
X-65822Y381733D01*
G54D10*
X-59731Y271754D02*
X-219731Y271754D01*
G54D12*
X-104887Y140095D02*
X-98354Y140095D01*
X-98354Y152539D01*
X-104887Y152539D01*
G54D12*
X-98354Y146317D02*
X-104887Y146317D01*
G54D12*
X-108308Y142428D02*
X-109242Y140872D01*
X-111108Y140095D01*
X-112975Y140095D01*
X-114842Y140872D01*
X-115775Y142428D01*
X-115775Y143984D01*
X-114842Y145539D01*
X-112975Y146317D01*
X-111108Y146317D01*
X-109242Y147095D01*
X-108308Y148650D01*
X-108308Y150206D01*
X-109242Y151761D01*
X-111108Y152539D01*
X-112975Y152539D01*
X-114842Y151761D01*
X-115775Y150206D01*
G54D12*
X-119198Y140095D02*
X-119198Y152539D01*
X-123864Y152539D01*
X-125731Y151761D01*
X-126664Y150206D01*
X-126664Y148650D01*
X-125731Y147095D01*
X-123864Y146317D01*
X-119198Y146317D01*
G54D12*
X-130086Y145539D02*
X-137553Y145539D01*
G54D12*
X-145642Y146317D02*
X-143776Y146317D01*
X-141909Y147095D01*
X-140976Y148650D01*
X-140976Y150206D01*
X-141909Y151761D01*
X-143776Y152539D01*
X-145642Y152539D01*
X-147509Y151761D01*
X-148442Y150206D01*
X-148442Y148650D01*
X-147509Y147095D01*
X-145642Y146317D01*
X-147509Y145539D01*
X-148442Y143984D01*
X-148442Y142428D01*
X-147509Y140872D01*
X-145642Y140095D01*
X-143776Y140095D01*
X-141909Y140872D01*
X-140976Y142428D01*
X-140976Y143984D01*
X-141909Y145539D01*
X-143776Y146317D01*
G54D12*
X-159331Y140095D02*
X-151864Y140095D01*
X-151864Y140872D01*
X-152798Y142428D01*
X-158398Y147095D01*
X-159331Y148650D01*
X-159331Y150206D01*
X-158398Y151761D01*
X-156531Y152539D01*
X-154664Y152539D01*
X-152798Y151761D01*
X-151864Y150206D01*
G54D12*
X-170220Y150206D02*
X-169287Y151761D01*
X-167420Y152539D01*
X-165554Y152539D01*
X-163687Y151761D01*
X-162754Y150206D01*
X-162754Y146317D01*
X-162754Y145539D01*
X-165554Y147095D01*
X-167420Y147095D01*
X-169287Y146317D01*
X-170220Y144761D01*
X-170220Y142428D01*
X-169287Y140872D01*
X-167420Y140095D01*
X-165554Y140095D01*
X-163687Y140872D01*
X-162754Y142428D01*
X-162754Y146317D01*
G54D12*
X-181109Y150206D02*
X-180176Y151761D01*
X-178309Y152539D01*
X-176442Y152539D01*
X-174576Y151761D01*
X-173642Y150206D01*
X-173642Y146317D01*
X-173642Y145539D01*
X-176442Y147095D01*
X-178309Y147095D01*
X-180176Y146317D01*
X-181109Y144761D01*
X-181109Y142428D01*
X-180176Y140872D01*
X-178309Y140095D01*
X-176442Y140095D01*
X-174576Y140872D01*
X-173642Y142428D01*
X-173642Y146317D01*
G54D10*
X-59731Y271754D02*
X-59456Y198438D01*
G54D10*
X-79018Y31750D02*
X-60243Y31754D01*
X-60245Y34908D01*
G54D10*
X-201255Y31750D02*
X-220030Y31754D01*
X-220028Y34908D01*
G54D10*
X-219731Y271754D02*
X-219456Y198438D01*
G54D10*
X-111538Y430481D02*
X-105138Y430481D01*
G54D10*
X-92438Y430481D02*
X-92438Y443181D01*
X-102013Y443181D01*
G54D10*
X-124238Y430481D02*
X-124238Y443181D01*
X-114663Y443181D01*
G54D10*
X-69381Y-56960D02*
X-62981Y-56960D01*
G54D10*
X-50281Y-56960D02*
X-50281Y-44260D01*
X-59856Y-44260D01*
G54D10*
X-82081Y-56960D02*
X-82081Y-44260D01*
X-72506Y-44260D01*
G54D10*
X-187893Y-369331D02*
X-187893Y-376419D01*
G54D10*
X-267388Y28855D02*
X-267388Y6855D01*
X-217388Y6855D01*
X-217388Y28855D01*
X-267388Y28855D01*
G54D12*
X-219432Y-2698D02*
X-224098Y1968D01*
X-224098Y-10476D01*
G54D12*
X-234987Y-365D02*
X-234987Y-8143D01*
X-234054Y-9698D01*
X-232187Y-10476D01*
X-230321Y-10476D01*
X-228454Y-9698D01*
X-227521Y-8143D01*
X-227521Y-365D01*
X-228454Y1190D01*
X-230321Y1968D01*
X-232187Y1968D01*
X-234054Y1190D01*
X-234987Y-365D01*
G54D12*
X-245876Y-365D02*
X-245876Y-8143D01*
X-244943Y-9698D01*
X-243076Y-10476D01*
X-241210Y-10476D01*
X-239343Y-9698D01*
X-238410Y-8143D01*
X-238410Y-365D01*
X-239343Y1190D01*
X-241210Y1968D01*
X-243076Y1968D01*
X-244943Y1190D01*
X-245876Y-365D01*
G54D12*
X-249299Y-10476D02*
X-249299Y-3476D01*
G54D12*
X-249299Y-5032D02*
X-250232Y-3943D01*
X-252099Y-3476D01*
X-253965Y-3943D01*
X-254899Y-5032D01*
X-254899Y-10476D01*
G54D12*
X-258321Y-10476D02*
X-258321Y1968D01*
X-264854Y1968D01*
G54D12*
X-258321Y-4254D02*
X-264854Y-4254D01*
G54D10*
X-28298Y-80860D02*
X-28298Y-11390D01*
X-30162Y-9525D01*
M02*
