%FSLAX34Y34*%
%MOMM*%
%LNSOLDERMASK_BOTTOM*%
G71*
G01*
%ADD10R, 1.80X1.80*%
%ADD11R, 3.20X1.80*%
%ADD12C, 1.60*%
%ADD13R, 1.40X1.60*%
%ADD14R, 3.70X1.60*%
%ADD15R, 5.20X2.20*%
%ADD16R, 1.58X2.99*%
%ADD17R, 0.90X2.40*%
%ADD18R, 0.60X1.55*%
%ADD19R, 2.00X2.10*%
%ADD20C, 0.90*%
%ADD21C, 5.20*%
%ADD22C, 5.20*%
%ADD23R, 3.20X2.70*%
%ADD24R, 1.00X1.60*%
%ADD25R, 1.30X1.30*%
%ADD26C, 2.70*%
%LPD*%
X-101935Y814513D02*
G54D10*
D03*
X-101935Y786513D02*
G54D10*
D03*
X-136860Y754760D02*
G54D10*
D03*
G36*
X-171860Y763763D02*
X-189860Y763763D01*
X-189860Y745763D01*
X-171860Y745763D01*
X-171860Y763763D01*
G37*
X-180860Y786513D02*
G54D10*
D03*
X-136860Y786513D02*
G54D10*
D03*
X-108395Y719841D02*
G54D11*
D03*
X-108390Y673738D02*
G54D11*
D03*
X-171335Y719838D02*
G54D11*
D03*
X-171335Y673738D02*
G54D11*
D03*
X-243785Y688088D02*
G54D10*
D03*
X-215785Y688088D02*
G54D10*
D03*
X-243785Y656338D02*
G54D10*
D03*
X-215785Y656338D02*
G54D10*
D03*
X-243785Y624588D02*
G54D10*
D03*
X-215785Y624588D02*
G54D10*
D03*
X-243785Y592838D02*
G54D10*
D03*
X-215785Y592838D02*
G54D10*
D03*
X-243785Y561088D02*
G54D10*
D03*
X-215785Y561088D02*
G54D10*
D03*
X-243785Y529338D02*
G54D10*
D03*
X-215785Y529335D02*
G54D10*
D03*
X-243785Y497588D02*
G54D10*
D03*
X-215785Y497585D02*
G54D10*
D03*
X-126838Y394031D02*
G54D10*
D03*
X-98840Y394030D02*
G54D10*
D03*
X-181825Y394031D02*
G54D10*
D03*
X-153830Y394030D02*
G54D10*
D03*
X-181825Y425781D02*
G54D10*
D03*
X-153830Y425780D02*
G54D10*
D03*
X-181825Y308881D02*
G54D10*
D03*
X-181825Y336881D02*
G54D10*
D03*
X-153825Y308881D02*
G54D10*
D03*
X-153825Y336881D02*
G54D10*
D03*
X-241575Y308881D02*
G54D10*
D03*
X-213575Y308881D02*
G54D10*
D03*
X-63912Y352756D02*
G54D12*
D03*
X-213575Y346981D02*
G54D12*
D03*
G36*
X-231947Y41264D02*
X-213947Y41264D01*
X-213947Y51264D01*
X-231947Y51264D01*
X-231947Y41264D01*
G37*
X-254697Y46264D02*
G54D10*
D03*
X-254697Y74264D02*
G54D10*
D03*
X-39298Y6564D02*
G54D10*
D03*
X-67300Y6560D02*
G54D10*
D03*
X-99041Y293188D02*
G54D10*
D03*
X-71041Y293188D02*
G54D10*
D03*
X-99041Y324938D02*
G54D10*
D03*
X-71041Y324938D02*
G54D10*
D03*
X-39298Y230188D02*
G54D12*
D03*
X-127412Y254330D02*
G54D12*
D03*
X-39298Y186264D02*
G54D12*
D03*
X-39298Y166264D02*
G54D12*
D03*
X-39298Y146264D02*
G54D12*
D03*
X-206297Y-97888D02*
G54D13*
D03*
G36*
X-222296Y-89889D02*
X-236296Y-89888D01*
X-236297Y-105888D01*
X-222297Y-105889D01*
X-222296Y-89889D01*
G37*
X-252300Y-97890D02*
G54D13*
D03*
X-229297Y-35889D02*
G54D14*
D03*
X-229297Y-27951D02*
G54D15*
D03*
X-154506Y-1360D02*
G54D10*
D03*
X-126506Y-1360D02*
G54D10*
D03*
X-97931Y-1360D02*
G54D12*
D03*
X-222946Y-148688D02*
G54D16*
D03*
X-262850Y-148690D02*
G54D16*
D03*
X-39300Y-119860D02*
G54D10*
D03*
X-39298Y-91860D02*
G54D10*
D03*
X-67872Y-119860D02*
G54D10*
D03*
X-67872Y-91860D02*
G54D10*
D03*
X-67476Y-148832D02*
G54D10*
D03*
X-39480Y-148830D02*
G54D10*
D03*
X-39218Y-61660D02*
G54D12*
D03*
X-39300Y-172870D02*
G54D12*
D03*
X-57780Y-277890D02*
G54D17*
D03*
X-70484Y-277890D02*
G54D17*
D03*
X-83184Y-277890D02*
G54D17*
D03*
X-95884Y-277890D02*
G54D17*
D03*
X-108584Y-277890D02*
G54D17*
D03*
X-121284Y-277890D02*
G54D17*
D03*
X-133984Y-277890D02*
G54D17*
D03*
X-146684Y-277890D02*
G54D17*
D03*
X-146684Y-203890D02*
G54D17*
D03*
X-133984Y-203890D02*
G54D17*
D03*
X-121284Y-203890D02*
G54D17*
D03*
X-108584Y-203890D02*
G54D17*
D03*
G36*
X-91383Y-191890D02*
X-100383Y-191890D01*
X-100384Y-215890D01*
X-91384Y-215890D01*
X-91383Y-191890D01*
G37*
X-83184Y-203890D02*
G54D17*
D03*
X-70484Y-203890D02*
G54D17*
D03*
X-57784Y-203890D02*
G54D17*
D03*
X-76788Y-237418D02*
G54D12*
D03*
X-93600Y-246938D02*
G54D12*
D03*
X-186767Y-229976D02*
G54D13*
D03*
X-186767Y-251804D02*
G54D13*
D03*
X-169701Y-229976D02*
G54D13*
D03*
X-169701Y-251804D02*
G54D13*
D03*
X-243800Y-237590D02*
G54D10*
D03*
X-215797Y-237588D02*
G54D10*
D03*
X-137812Y-328612D02*
G54D18*
D03*
X-144312Y-328612D02*
G54D18*
D03*
X-150812Y-328612D02*
G54D18*
D03*
X-157312Y-328612D02*
G54D18*
D03*
X-163810Y-328610D02*
G54D18*
D03*
X-110810Y-355360D02*
G54D19*
D03*
X-190810Y-355360D02*
G54D19*
D03*
X-130810Y-333860D02*
G54D20*
D03*
X-170810Y-333860D02*
G54D20*
D03*
X-89631Y-301707D02*
G54D12*
D03*
X-164161Y-296862D02*
G54D12*
D03*
X-243800Y-304260D02*
G54D12*
D03*
X-206297Y-120114D02*
G54D12*
D03*
X-56990Y-303846D02*
G54D12*
D03*
X-53975Y-348672D02*
G54D21*
D03*
X-247650Y-348672D02*
G54D21*
D03*
X-53975Y943553D02*
G54D21*
D03*
X-247650Y943553D02*
G54D21*
D03*
X-222946Y-186788D02*
G54D16*
D03*
X-262850Y-186790D02*
G54D16*
D03*
X-243800Y-269340D02*
G54D10*
D03*
X-215797Y-269338D02*
G54D10*
D03*
X-140036Y940317D02*
G54D22*
D03*
X-140141Y-139682D02*
G54D22*
D03*
X-140035Y865313D02*
G54D22*
D03*
X-140142Y-64678D02*
G54D22*
D03*
X-171838Y635306D02*
G54D23*
D03*
X-108340Y635310D02*
G54D23*
D03*
X-171838Y486081D02*
G54D23*
D03*
X-108338Y486081D02*
G54D23*
D03*
X-204790Y439740D02*
G54D24*
D03*
X-204790Y375740D02*
G54D24*
D03*
X-240788Y375738D02*
G54D24*
D03*
X-240788Y439738D02*
G54D24*
D03*
X-39291Y439738D02*
G54D24*
D03*
X-39291Y375738D02*
G54D24*
D03*
X-75281Y375738D02*
G54D24*
D03*
X-75281Y439738D02*
G54D24*
D03*
G36*
X-231589Y61264D02*
X-213589Y61264D01*
X-213589Y71264D01*
X-231589Y71264D01*
X-231589Y61264D01*
G37*
G36*
X-231589Y81264D02*
X-213589Y81264D01*
X-213589Y91264D01*
X-231589Y91264D01*
X-231589Y81264D01*
G37*
G36*
X-231589Y101264D02*
X-213589Y101264D01*
X-213589Y111264D01*
X-231589Y111264D01*
X-231589Y101264D01*
G37*
G36*
X-231589Y121264D02*
X-213589Y121264D01*
X-213589Y131264D01*
X-231589Y131264D01*
X-231589Y121264D01*
G37*
G36*
X-231589Y141264D02*
X-213589Y141264D01*
X-213589Y151264D01*
X-231589Y151264D01*
X-231589Y141264D01*
G37*
G36*
X-231589Y161264D02*
X-213589Y161264D01*
X-213589Y171264D01*
X-231589Y171264D01*
X-231589Y161264D01*
G37*
G36*
X-231589Y181264D02*
X-213589Y181264D01*
X-213589Y191264D01*
X-231589Y191264D01*
X-231589Y181264D01*
G37*
G36*
X-65873Y41260D02*
X-47873Y41260D01*
X-47873Y51260D01*
X-65873Y51260D01*
X-65873Y41260D01*
G37*
G36*
X-65874Y61264D02*
X-47874Y61264D01*
X-47874Y71264D01*
X-65874Y71264D01*
X-65874Y61264D01*
G37*
G36*
X-65874Y81264D02*
X-47874Y81264D01*
X-47874Y91264D01*
X-65874Y91264D01*
X-65874Y81264D01*
G37*
G36*
X-65874Y101264D02*
X-47874Y101264D01*
X-47874Y111264D01*
X-65874Y111264D01*
X-65874Y101264D01*
G37*
G36*
X-65874Y121264D02*
X-47874Y121264D01*
X-47874Y131264D01*
X-65874Y131264D01*
X-65874Y121264D01*
G37*
G36*
X-65874Y141264D02*
X-47874Y141264D01*
X-47874Y151264D01*
X-65874Y151264D01*
X-65874Y141264D01*
G37*
G36*
X-65874Y161264D02*
X-47874Y161264D01*
X-47874Y171264D01*
X-65874Y171264D01*
X-65874Y161264D01*
G37*
G36*
X-65874Y181264D02*
X-47874Y181264D01*
X-47874Y191264D01*
X-65874Y191264D01*
X-65874Y181264D01*
G37*
G36*
X-195090Y37130D02*
X-195090Y19130D01*
X-185090Y19130D01*
X-185090Y37130D01*
X-195090Y37130D01*
G37*
G36*
X-175090Y37130D02*
X-175090Y19130D01*
X-165090Y19130D01*
X-165090Y37130D01*
X-175090Y37130D01*
G37*
G36*
X-155090Y37130D02*
X-155090Y19130D01*
X-145090Y19130D01*
X-145090Y37130D01*
X-155090Y37130D01*
G37*
G36*
X-135090Y37130D02*
X-135090Y19130D01*
X-125090Y19130D01*
X-125090Y37130D01*
X-135090Y37130D01*
G37*
G36*
X-115090Y37130D02*
X-115090Y19130D01*
X-105090Y19130D01*
X-105090Y37130D01*
X-115090Y37130D01*
G37*
G36*
X-95090Y37130D02*
X-95090Y19130D01*
X-85090Y19130D01*
X-85090Y37130D01*
X-95090Y37130D01*
G37*
G36*
X-231589Y41264D02*
X-213589Y41264D01*
X-213589Y51264D01*
X-231589Y51264D01*
X-231589Y41264D01*
G37*
X-117838Y425781D02*
G54D25*
D03*
X-98840Y425780D02*
G54D25*
D03*
X-108338Y447981D02*
G54D25*
D03*
X-75681Y-61660D02*
G54D25*
D03*
X-56680Y-61660D02*
G54D25*
D03*
X-66181Y-39460D02*
G54D25*
D03*
X-256390Y17860D02*
G54D10*
D03*
X-228392Y17858D02*
G54D10*
D03*
X-251160Y754760D02*
G54D26*
D03*
X-50460Y754760D02*
G54D26*
D03*
X-42210Y847730D02*
G54D26*
D03*
X-259380Y847730D02*
G54D26*
D03*
M02*
