%FSLAX34Y34*%
%MOMM*%
%LNSOLDERMASK_TOP*%
G71*
G01*
%ADD10C, 1.60*%
%ADD11C, 0.90*%
%ADD12C, 5.20*%
%ADD13C, 5.20*%
%ADD14C, 2.70*%
%LPD*%
X-63912Y352756D02*
G54D10*
D03*
X-213575Y346981D02*
G54D10*
D03*
X-39298Y230188D02*
G54D10*
D03*
X-127412Y254330D02*
G54D10*
D03*
X-39298Y186264D02*
G54D10*
D03*
X-39298Y166264D02*
G54D10*
D03*
X-39298Y146264D02*
G54D10*
D03*
X-97931Y-1360D02*
G54D10*
D03*
X-39218Y-61660D02*
G54D10*
D03*
X-39300Y-172870D02*
G54D10*
D03*
X-76788Y-237418D02*
G54D10*
D03*
X-93600Y-246938D02*
G54D10*
D03*
X-130810Y-333860D02*
G54D11*
D03*
X-170810Y-333860D02*
G54D11*
D03*
X-89631Y-301707D02*
G54D10*
D03*
X-164161Y-296862D02*
G54D10*
D03*
X-243800Y-304260D02*
G54D10*
D03*
X-206297Y-120114D02*
G54D10*
D03*
X-56990Y-303846D02*
G54D10*
D03*
X-53975Y-348672D02*
G54D12*
D03*
X-247650Y-348672D02*
G54D12*
D03*
X-53975Y943553D02*
G54D12*
D03*
X-247650Y943553D02*
G54D12*
D03*
X-140036Y940317D02*
G54D13*
D03*
X-140141Y-139682D02*
G54D13*
D03*
X-140035Y865313D02*
G54D13*
D03*
X-140142Y-64678D02*
G54D13*
D03*
X-251160Y754760D02*
G54D14*
D03*
X-50460Y754760D02*
G54D14*
D03*
X-42210Y847730D02*
G54D14*
D03*
X-259380Y847730D02*
G54D14*
D03*
M02*
